<svg class="filled-button green-button" xmlns="http://www.w3.org/2000/svg"
     viewBox="0 0 38.48 32.72"><title>Asset 3</title><g id="Layer_2"><g id="Layer_1-2"><rect class="cls-1" x="1" y="1" width="36.48" height="24.24" rx="3.49"/><path class="cls-1" d="M21.58,26.86V25.24H17.13v1.62a1.62,1.62,0,0,1-1.62,1.62h-.82a1.62,1.62,0,0,0-1.62,1.62h0a1.63,1.63,0,0,0,1.62,1.62H24a1.63,1.63,0,0,0,1.62-1.62h0A1.62,1.62,0,0,0,24,28.48H23.2A1.62,1.62,0,0,1,21.58,26.86Z"/><line class="cls-1" x1="1" y1="20.81" x2="37.48" y2="20.81"/></g></g></svg>