<?xml version="1.0" encoding="UTF-8" standalone="no"?>
<svg
   xmlns:dc="http://purl.org/dc/elements/1.1/"
   xmlns:cc="http://creativecommons.org/ns#"
   xmlns:rdf="http://www.w3.org/1999/02/22-rdf-syntax-ns#"
   xmlns:svg="http://www.w3.org/2000/svg"
   xmlns="http://www.w3.org/2000/svg"
   xmlns:sodipodi="http://sodipodi.sourceforge.net/DTD/sodipodi-0.dtd"
   xmlns:inkscape="http://www.inkscape.org/namespaces/inkscape"
   viewBox="0 0 28.98 28.98"
   id="svg4283"
   version="1.1"
   inkscape:version="0.91 r13725"
   sodipodi:docname="footer-github2.svg">
  <metadata
     id="metadata4293">
    <rdf:RDF>
      <cc:Work
         rdf:about="">
        <dc:format>image/svg+xml</dc:format>
        <dc:type
           rdf:resource="http://purl.org/dc/dcmitype/StillImage" />
        <dc:title></dc:title>
      </cc:Work>
    </rdf:RDF>
  </metadata>
  <defs
     id="defs4291" />
  <sodipodi:namedview
     pagecolor="#ffffff"
     bordercolor="#666666"
     borderopacity="1"
     objecttolerance="10"
     gridtolerance="10"
     guidetolerance="10"
     inkscape:pageopacity="0"
     inkscape:pageshadow="2"
     inkscape:window-width="1393"
     inkscape:window-height="855"
     id="namedview4289"
     showgrid="false"
     inkscape:snap-page="true"
     inkscape:snap-bbox="true"
     inkscape:zoom="23.03343"
     inkscape:cx="25.721331"
     inkscape:cy="4.8941738"
     inkscape:window-x="47"
     inkscape:window-y="23"
     inkscape:window-maximized="0"
     inkscape:current-layer="svg4283" />
  <path
     inkscape:connector-curvature="0"
     style="fill:currentColor"
     d="m 25.903799,-0.02625716 -22.7857753,0 c -1.7154046,0 -3.10714918,1.39174606 -3.10714918,3.10715066 l 0,22.7857755 c 0,1.715408 1.39174458,3.107151 3.10714918,3.107151 l 22.7857753,0 c 1.715406,0 3.107153,-1.391743 3.107153,-3.107151 l 0,-22.7857755 c 0,-1.7154046 -1.391747,-3.10715066 -3.107153,-3.10715066 z M 17.96114,24.811532 c -0.54375,0.0971 -0.744421,-0.23951 -0.744421,-0.51786 0,-0.349552 0.01298,-2.136163 0.01298,-3.579695 0,-1.009823 -0.336607,-1.650673 -0.731474,-1.987283 2.395092,-0.265401 4.919654,-0.595537 4.919654,-4.731933 0,-1.178127 -0.420755,-1.767189 -1.106921,-2.524559 0.110049,-0.27835 0.479022,-1.424112 -0.110042,-2.9129551 -0.899777,-0.2783465 -2.95827,1.1587103 -2.95827,1.1587103 -0.854463,-0.23951 -1.780134,-0.3625002 -2.692865,-0.3625002 -0.912724,0 -1.838395,0.1229902 -2.692865,0.3625002 0,0 -2.058486,-1.4370568 -2.9582629,-1.1587103 -0.5890647,1.4823721 -0.2265645,2.6281341 -0.1100492,2.9129551 -0.6861595,0.75737 -1.0098188,1.346432 -1.0098188,2.524559 0,4.116976 2.4145129,4.466532 4.8096119,4.731933 -0.31072,0.27835 -0.589065,0.75737 -0.686167,1.443532 -0.614958,0.27835 -2.1879478,0.757367 -3.1265731,-0.899781 C 8.1865967,18.247677 7.124983,18.163523 7.124983,18.163523 6.0763234,18.150569 7.05376,18.823794 7.05376,18.823794 c 0.6991134,0.323661 1.1910759,1.566522 1.1910759,1.566522 0.6279055,1.922549 3.6314831,1.275227 3.6314831,1.275227 0,0.899778 0.01298,2.362728 0.01298,2.628129 0,0.27835 -0.194197,0.61496 -0.744421,0.51786 -4.2723272,-1.430586 -7.2629648,-5.495773 -7.2629648,-10.247126 0,-5.9424251 4.5442136,-10.4542667 10.4866328,-10.4542667 5.942427,0 10.758513,4.5118416 10.758513,10.4542667 0.0066,4.751353 -2.893528,8.823015 -7.165871,10.247126 z m -6.350234,-3.955145 c -0.122996,0.02588 -0.239512,-0.02588 -0.252459,-0.110045 -0.01298,-0.0971 0.07122,-0.18125 0.194198,-0.207141 0.122988,-0.01295 0.239511,0.03884 0.252458,0.122991 0.01939,0.08415 -0.06474,0.168304 -0.194197,0.194195 z m -0.614959,-0.05826 c 0,0.08415 -0.09709,0.155359 -0.226564,0.155359 -0.142409,0.01295 -0.239512,-0.05826 -0.239512,-0.155359 0,-0.08415 0.0971,-0.155356 0.226565,-0.155356 0.122996,-0.01295 0.239511,0.05826 0.239511,0.155356 z m -0.88683,-0.07121 c -0.02588,0.08415 -0.1553559,0.122993 -0.2654051,0.08415 -0.1229887,-0.02588 -0.207144,-0.122991 -0.1812501,-0.207144 0.025879,-0.08415 0.1553562,-0.122991 0.2654054,-0.0971 0.1294618,0.03883 0.2136098,0.135937 0.1812498,0.220088 z M 9.3129086,20.377365 c -0.058247,0.07121 -0.1812501,0.05825 -0.2783523,-0.03884 -0.097095,-0.08415 -0.1229888,-0.207145 -0.058247,-0.265404 0.058247,-0.07121 0.1812501,-0.05825 0.2783523,0.03884 0.084148,0.08415 0.1165227,0.213615 0.058247,0.265403 z M 8.723844,19.7883 c -0.058247,0.03884 -0.1683032,0 -0.2395115,-0.0971 -0.071223,-0.0971 -0.071223,-0.207141 0,-0.252455 0.071223,-0.05826 0.1812501,-0.01295 0.2395115,0.08415 0.071223,0.0971 0.071223,0.213616 0,0.265401 z M 8.3030825,19.160398 c -0.058247,0.05825 -0.1553562,0.02588 -0.2265645,-0.03884 -0.071223,-0.08415 -0.084148,-0.18125 -0.025879,-0.226564 0.058247,-0.05826 0.1553636,-0.02588 0.2265645,0.03884 0.071223,0.08415 0.084155,0.18125 0.025879,0.226565 z M 7.869374,18.681378 c -0.025879,0.05826 -0.1100418,0.07121 -0.1812501,0.02588 -0.084148,-0.03883 -0.1229888,-0.110045 -0.097095,-0.168301 0.025879,-0.03884 0.097095,-0.05826 0.1812501,-0.02588 0.084148,0.04531 0.1229888,0.11652 0.097095,0.168306 z"
     id="path4883" />
</svg>
