<svg xmlns="http://www.w3.org/2000/svg" viewBox="0 0 15.44 14.1"><defs><style>.cls-1{fill:#19ac86;}</style></defs><title>URL</title><g id="Layer_2"><g id="Layer_1-2"><path
        class="cls-1" d="M13.26,0H2.18A2.18,2.18,0,0,0,0,2.18v9.73A2.18,2.18,0,0,0,2.18,14.1H13.26a2.18,2.18,0,0,0,2.18-2.18V2.18A2.18,2.18,0,0,0,13.26,0ZM2.18,1H13.26a1.17,1.17,0,0,1,1.17,1.17V4.36H1V2.18A1.17,1.17,0,0,1,2.18,1ZM1,11.92V5.37H4.36v7.72H2.18A1.17,1.17,0,0,1,1,11.92Zm12.25,1.17H5.37V5.37h9.06v6.55A1.17,1.17,0,0,1,13.26,13.09Z"/><circle class="cls-1" cx="2.69" cy="2.69" r="0.84"/><circle class="cls-1" cx="4.87" cy="2.69" r="0.84"/><path class="cls-1" d="M9.06,3.19h3.69a.5.5,0,1,0,0-1H9.06a.5.5,0,0,0,0,1Z"/></g></g></svg>