<svg xmlns="http://www.w3.org/2000/svg" viewBox="0 0 28.98 28.98"><g id="Layer_2"><g id="Layer_1-2"><path class="cls-1"
                                                                                                                            d="M24.7,24.7H20.4V18c0-1.6,0-3.67-2.23-3.67s-2.58,1.75-2.58,3.55V24.7H11.3V10.87h4.12v1.89h.06a4.52,4.52,0,0,1,4.07-2.23c4.35,0,5.16,2.86,5.16,6.59V24.7ZM6.45,9A2.49,2.49,0,1,1,8.94,6.48,2.49,2.49,0,0,1,6.45,9ZM8.6,24.7H4.29V10.87H8.6V24.7ZM26.84,0H2.14A2.12,2.12,0,0,0,0,2.09v24.8A2.12,2.12,0,0,0,2.14,29h24.7A2.12,2.12,0,0,0,29,26.89V2.09A2.12,2.12,0,0,0,26.84,0Z"/></g></g></svg>