<svg xmlns="http://www.w3.org/2000/svg" viewBox="0 0 18.03 17.86"><defs><style>.cls-1{fill:#19ac86;}</style></defs><title>Telefónni číslo</title><g id="Layer_2"><g
        id="Layer_1-2"><path
        class="cls-1" d="M6.09,2.05c-1-.46-1.45-.33-1.65-.13a.56.56,0,0,0-.12.62.54.54,0,0,0,.48.36h0A2.42,2.42,0,0,1,6.9,5a.6.6,0,0,0,.35.5.62.62,0,0,0,.25.05.6.6,0,0,0,.36-.11.57.57,0,0,0,.22-.54A3.58,3.58,0,0,0,6.09,2.05Z"/><path class="cls-1" d="M4.67,1.2a4.54,4.54,0,0,1,4,3.91A.55.55,0,0,0,9,5.62a.62.62,0,0,0,.29.07.64.64,0,0,0,.36-.11A.57.57,0,0,0,9.85,5,5.83,5.83,0,0,0,6.59.48C5.18-.18,4.57,0,4.31.19a.54.54,0,0,0-.15.58A.61.61,0,0,0,4.67,1.2Z"/><path class="cls-1" d="M14.28,9.86c-1-.46-1.45-.33-1.66-.13a.57.57,0,0,0-.16.61.63.63,0,0,0,.54.44,2.35,2.35,0,0,1,2.1,2,.6.6,0,0,0,.35.5.62.62,0,0,0,.25.05.6.6,0,0,0,.36-.11.57.57,0,0,0,.22-.54A3.58,3.58,0,0,0,14.28,9.86Z"/><path class="cls-1" d="M13,12.23c-1.49-1.53-1.89-1.95-2.26-1.91s-.37.21-.55.46a3.94,3.94,0,0,1-1,1L6.06,8.62a3.94,3.94,0,0,1,1-1c.25-.17.45-.31.47-.55s-.4-.81-2-2.4C4.93,4.13,4.18,3.4,3.24,2.47c-.5-.5-1.39.38-1.77.76a4.36,4.36,0,0,0-1,5.06L9,16.89a3.18,3.18,0,0,0,2.32,1,5.38,5.38,0,0,0,3.54-1.59c.69-.69.91-1.32.57-1.66C14.4,13.62,13.64,12.84,13,12.23ZM4.72,8.65a.55.55,0,0,0,.16.43L8.78,13a.56.56,0,0,0,.43.16c.52,0,1.21-.68,1.73-1.28l3.28,3.22c-.91,1.21-2.72,2-4,1.28L1.8,8.07A2.13,2.13,0,0,1,1.2,6.32,4,4,0,0,1,2.78,3.65L6,6.93C5.4,7.45,4.74,8.13,4.72,8.65Z"/><path class="cls-1" d="M18,12.84a5.93,5.93,0,0,0-3.25-4.55c-1.41-.65-2-.52-2.28-.29a.54.54,0,0,0-.15.58.61.61,0,0,0,.52.43,4.43,4.43,0,0,1,3.93,4,.57.57,0,0,0,.59.5h0a.64.64,0,0,0,.61-.65Z"/></g></g></svg>