<svg xmlns="http://www.w3.org/2000/svg" viewBox="0 0 17.21 14.39"><defs><style>.cls-1{fill:#19ac86;}</style></defs><g id="Layer_2"><g id="Layer_1-2"><path
        class="cls-1" d="M15.65,0H1.56A1.56,1.56,0,0,0,0,1.56v9.87A1.56,1.56,0,0,0,1.56,13H7l1.26,1.26a.5.5,0,0,0,.7,0L10.22,13h5.43a1.56,1.56,0,0,0,1.56-1.56V1.56A1.56,1.56,0,0,0,15.65,0Zm.56,1.56v9.87a.56.56,0,0,1-.56.56H10a.5.5,0,0,0-.35.15L8.6,13.19,7.55,12.13A.5.5,0,0,0,7.19,12H1.56A.56.56,0,0,1,1,11.42V1.56H1L6.78,5.5,3,9.31a.5.5,0,0,0,.35.85A.49.49,0,0,0,3.67,10L7.62,6.07l.71.48a.5.5,0,0,0,.56,0l.71-.48L13.54,10a.5.5,0,1,0,.7-.7L10.43,5.5l5.78-3.94Zm-7.61,4L1.95,1H15.26Z"/></g></g></svg>