<?xml version="1.0" encoding="UTF-8" standalone="no"?>
<!-- Created with Inkscape (http://www.inkscape.org/) -->

<svg
   xmlns:dc="http://purl.org/dc/elements/1.1/"
   xmlns:cc="http://creativecommons.org/ns#"
   xmlns:rdf="http://www.w3.org/1999/02/22-rdf-syntax-ns#"
   xmlns:svg="http://www.w3.org/2000/svg"
   xmlns="http://www.w3.org/2000/svg"
   xmlns:sodipodi="http://sodipodi.sourceforge.net/DTD/sodipodi-0.dtd"
   xmlns:inkscape="http://www.inkscape.org/namespaces/inkscape"
   width="315.64557mm"
   height="101.34821mm"
   viewBox="0 0 315.64557 101.34821"
   version="1.1"
   id="svg10695"
   inkscape:version="0.92.2 5c3e80d, 2017-08-06"
   sodipodi:docname="brand.svg">
  <defs
     id="defs10689" />
  <sodipodi:namedview
     id="base"
     pagecolor="#ffffff"
     bordercolor="#666666"
     borderopacity="1.0"
     inkscape:pageopacity="0.0"
     inkscape:pageshadow="2"
     inkscape:zoom="0.49497475"
     inkscape:cx="657.61718"
     inkscape:cy="361.99664"
     inkscape:document-units="mm"
     inkscape:current-layer="layer1"
     showgrid="false"
     fit-margin-top="0"
     fit-margin-left="0"
     fit-margin-right="0"
     fit-margin-bottom="0"
     inkscape:window-width="1920"
     inkscape:window-height="1030"
     inkscape:window-x="1920"
     inkscape:window-y="0"
     inkscape:window-maximized="1" />
  <metadata
     id="metadata10692">
    <rdf:RDF>
      <cc:Work
         rdf:about="">
        <dc:format>image/svg+xml</dc:format>
        <dc:type
           rdf:resource="http://purl.org/dc/dcmitype/StillImage" />
        <dc:title></dc:title>
      </cc:Work>
    </rdf:RDF>
  </metadata>
  <g
     inkscape:label="Vrstva 1"
     inkscape:groupmode="layer"
     id="layer1"
     transform="translate(0.98818984,-97.825896)">
    <g
       id="g4582"
       transform="matrix(0.28222223,0,0,0.28222223,-217.05257,-210.71539)"
       inkscape:export-xdpi="599.987"
       inkscape:export-ydpi="599.987">
      <circle
         inkscape:export-ydpi="150"
         inkscape:export-xdpi="150"
         inkscape:export-filename="/Users/mvecera/lumeer-intos.png"
         style="fill:#ffffff;fill-opacity:1;stroke:#000000;stroke-width:10;stroke-linecap:round;stroke-linejoin:round;stroke-miterlimit:4;stroke-dasharray:none;stroke-opacity:1"
         id="circle4584"
         cx="952.04724"
         cy="1294.3262"
         r="153.03812" />
      <g
         style="fill:#000000;fill-opacity:1;stroke:#000000;stroke-opacity:1"
         inkscape:export-ydpi="150"
         inkscape:export-xdpi="150"
         inkscape:export-filename="/Users/mvecera/lumeer-intos.png"
         id="g4586"
         transform="translate(667.90439,835.42857)">
        <ellipse
           ry="10.714286"
           rx="8.5714283"
           cy="452.36221"
           cx="257.14285"
           id="ellipse4588"
           style="fill:#000000;fill-opacity:1;stroke:#000000;stroke-width:10;stroke-linecap:round;stroke-linejoin:round;stroke-miterlimit:4;stroke-dasharray:none;stroke-opacity:1" />
        <ellipse
           style="fill:#000000;fill-opacity:1;stroke:#000000;stroke-width:10;stroke-linecap:round;stroke-linejoin:round;stroke-miterlimit:4;stroke-dasharray:none;stroke-opacity:1"
           id="ellipse4590"
           cx="311.14285"
           cy="452.36221"
           rx="8.5714283"
           ry="10.714286" />
      </g>
      <g
         inkscape:export-ydpi="150"
         inkscape:export-xdpi="150"
         inkscape:export-filename="/Users/mvecera/lumeer-intos.png"
         id="g4608"
         transform="translate(840.94456,1039)"
         style="fill:#ffffff;fill-opacity:1;stroke:#ffffff;stroke-opacity:1" />
      <g
         style="fill:#000000;fill-opacity:1;stroke:#000000;stroke-opacity:1"
         inkscape:export-ydpi="150"
         inkscape:export-xdpi="150"
         inkscape:export-filename="/Users/mvecera/lumeer-intos.png"
         transform="translate(291.40748,949.42857)"
         id="g4640">
        <path
           sodipodi:nodetypes="ccsc"
           inkscape:connector-curvature="0"
           id="path4642"
           d="m 670.0884,411.65834 h 100.15284 c 0,0 -72.71177,-47.42772 -100.07477,-26.41431 -6.98322,5.36276 -0.0781,26.41431 -0.0781,26.41431 z"
           style="fill:#000000;fill-opacity:1;fill-rule:evenodd;stroke:#000000;stroke-width:5.41782808;stroke-linecap:round;stroke-linejoin:round;stroke-miterlimit:4;stroke-dasharray:none;stroke-opacity:1" />
        <path
           style="fill:#000000;fill-opacity:1;fill-rule:evenodd;stroke:#000000;stroke-width:5.41782808;stroke-linecap:round;stroke-linejoin:round;stroke-miterlimit:4;stroke-dasharray:none;stroke-opacity:1"
           d="M 651.19112,411.65834 H 551.03829 c 0,0 72.71177,-47.42772 100.07476,-26.41431 6.98322,5.36276 0.0781,26.41431 0.0781,26.41431 z"
           id="path4644"
           inkscape:connector-curvature="0"
           sodipodi:nodetypes="ccsc" />
      </g>
      <g
         style="fill:#000000;fill-opacity:1;stroke:#000000;stroke-opacity:1"
         inkscape:export-ydpi="150"
         inkscape:export-xdpi="150"
         inkscape:export-filename="/Users/mvecera/lumeer-intos.png"
         id="g4646"
         transform="translate(0,420)">
        <path
           sodipodi:nodetypes="cscsc"
           inkscape:connector-curvature="0"
           id="path4648"
           d="m 939.44187,721.03217 c 0,0 -71.72083,16.16244 -105.05587,54.54824 -33.33503,38.38579 -68.69037,34.34518 -68.69037,34.34518 0,0 62.85416,14.60976 105.42352,3.8673 45.4061,-11.45831 76.40394,-33.16172 68.32272,-92.76072 z"
           style="fill:#000000;fill-opacity:1;fill-rule:evenodd;stroke:#000000;stroke-width:1px;stroke-linecap:butt;stroke-linejoin:miter;stroke-opacity:1" />
        <path
           inkscape:connector-curvature="0"
           id="path4650"
           d="m 914.18806,737.19461 c 0,0 28.28427,-6.06092 39.39595,-29.29442 11.11167,-23.23351 9.09137,-34.34519 9.09137,-34.34519 0,0 32.32488,43.43656 5.05076,65.65991 -27.27412,22.22336 -53.53808,-2.0203 -53.53808,-2.0203 z"
           style="fill:#000000;fill-opacity:1;fill-rule:evenodd;stroke:#000000;stroke-width:1px;stroke-linecap:butt;stroke-linejoin:miter;stroke-opacity:1" />
        <path
           sodipodi:nodetypes="cscsc"
           inkscape:connector-curvature="0"
           id="path4652"
           d="m 958.63477,731.13369 c 0,0 10.10152,-11.11167 39.39595,-15.15228 29.29438,-4.04061 73.74118,14.14213 73.74118,14.14213 0,0 -37.3756,12.12184 -67.6802,26.26397 -30.30465,14.14214 -45.45693,-25.25382 -45.45693,-25.25382 z"
           style="fill:#000000;fill-opacity:1;fill-rule:evenodd;stroke:#000000;stroke-width:1px;stroke-linecap:butt;stroke-linejoin:miter;stroke-opacity:1" />
        <path
           sodipodi:nodetypes="cscscc"
           inkscape:connector-curvature="0"
           id="path4654"
           d="m 943.48248,729.11339 c 0,0 38.3858,11.11168 91.92392,16.16244 53.538,5.05076 69.7005,4.04061 69.7005,4.04061 0,0 -26.264,38.87601 -84.8528,47.96738 -58.58887,9.09137 -105.05589,-33.82524 -105.05589,-33.82524 z"
           style="fill:#000000;fill-opacity:1;fill-rule:evenodd;stroke:#000000;stroke-width:1px;stroke-linecap:butt;stroke-linejoin:miter;stroke-opacity:1" />
      </g>
    </g>
    <g
       aria-label="LUMEER"
       style="font-style:normal;font-weight:normal;font-size:10.58333302px;line-height:6.61458302px;font-family:sans-serif;letter-spacing:0px;word-spacing:0px;fill:#ffffff;fill-opacity:1;stroke:none;stroke-width:0.26458332px;stroke-linecap:butt;stroke-linejoin:miter;stroke-opacity:1"
       id="text11274">
      <path
         d="m 135.8271,159.94271 v 6.85799 h -22.3012 v -37.00779 h 8.5852 v 30.1498 z"
         style="font-style:normal;font-variant:normal;font-weight:900;font-stretch:normal;font-size:50.79999924px;font-family:Lato;-inkscape-font-specification:'Lato Heavy';fill:#ffffff;fill-opacity:1;stroke-width:0.26458332px"
         id="path11276"
         inkscape:connector-curvature="0" />
      <path
         d="m 154.8652,160.01891 q 1.7272,0 3.0734,-0.5588 1.3716,-0.5842 2.3114,-1.651 0.9398,-1.0668 1.4224,-2.5908 0.508,-1.5494 0.508,-3.5052 v -21.9202 h 8.5852 v 21.9202 q 0,3.4036 -1.1176,6.2484 -1.0922,2.8448 -3.1496,4.9022 -2.0574,2.05739 -5.0038,3.20039 -2.9464,1.143 -6.6294,1.143 -3.7084,0 -6.6548,-1.143 -2.9464,-1.143 -5.0038,-3.20039 -2.0574,-2.0574 -3.1496,-4.9022 -1.0922,-2.8448 -1.0922,-6.2484 v -21.9202 h 8.5852 v 21.8948 q 0,1.9558 0.4826,3.5052 0.508,1.524 1.4478,2.6162 0.9398,1.0668 2.286,1.651 1.3716,0.5588 3.0988,0.5588 z"
         style="font-style:normal;font-variant:normal;font-weight:900;font-stretch:normal;font-size:50.79999924px;font-family:Lato;-inkscape-font-specification:'Lato Heavy';fill:#ffffff;fill-opacity:1;stroke-width:0.26458332px"
         id="path11278"
         inkscape:connector-curvature="0" />
      <path
         d="m 219.02798,129.79291 v 37.00779 h -7.5692 v -21.28519 q 0,-0.7366 0.0254,-1.6002 0.0508,-0.8636 0.1524,-1.7526 l -9.8298,19.0246 q -0.4572,0.889 -1.2446,1.3462 -0.762,0.4572 -1.7526,0.4572 h -1.1684 q -0.9906,0 -1.778,-0.4572 -0.762,-0.4572 -1.2192,-1.3462 l -9.8298,-19.0754 q 0.0762,0.9144 0.127,1.8034 0.0508,0.8636 0.0508,1.6002 v 21.28519 h -7.5692 v -37.00779 h 6.5532 q 0.5588,0 0.9652,0.0254 0.4318,0.0254 0.762,0.1524 0.3302,0.127 0.5842,0.4064 0.2794,0.254 0.5334,0.7366 l 9.525,18.7706 q 0.508,0.9652 0.9652,2.0066 0.4826,1.0414 0.9144,2.1336 0.4318,-1.1176 0.889,-2.1844 0.4826,-1.0668 1.016,-2.032 l 9.4996,-18.6944 q 0.254,-0.4826 0.508,-0.7366 0.2794,-0.2794 0.6096,-0.4064 0.3302,-0.127 0.7366,-0.1524 0.4318,-0.0254 0.9906,-0.0254 z"
         style="font-style:normal;font-variant:normal;font-weight:900;font-stretch:normal;font-size:50.79999924px;font-family:Lato;-inkscape-font-specification:'Lato Heavy';fill:#ffffff;fill-opacity:1;stroke-width:0.26458332px"
         id="path11280"
         inkscape:connector-curvature="0" />
      <path
         d="m 234.87441,136.39691 v 8.636 h 11.63319 v 6.35 h -11.63319 v 8.8138 h 15.18919 v 6.60399 h -23.82519 v -37.00779 h 23.82519 v 6.604 z"
         style="font-style:normal;font-variant:normal;font-weight:900;font-stretch:normal;font-size:50.79999924px;font-family:Lato;-inkscape-font-specification:'Lato Heavy';fill:#ffffff;fill-opacity:1;stroke-width:0.26458332px"
         id="path11282"
         inkscape:connector-curvature="0" />
      <path
         d="m 263.9455,136.39691 v 8.636 h 11.6332 v 6.35 h -11.6332 v 8.8138 h 15.1892 v 6.60399 h -23.8252 v -37.00779 h 23.8252 v 6.604 z"
         style="font-style:normal;font-variant:normal;font-weight:900;font-stretch:normal;font-size:50.79999924px;font-family:Lato;-inkscape-font-specification:'Lato Heavy';fill:#ffffff;fill-opacity:1;stroke-width:0.26458332px"
         id="path11284"
         inkscape:connector-curvature="0" />
      <path
         d="m 296.42019,147.19191 q 1.7526,0 2.9718,-0.4318 1.2446,-0.4572 2.032,-1.2446 0.7874,-0.7874 1.143,-1.8288 0.3556,-1.0668 0.3556,-2.286 0,-2.4384 -1.6002,-3.81 -1.5748,-1.3716 -4.9022,-1.3716 h -3.4544 v 10.9728 z m 18.2372,19.60879 h -7.7724 q -2.159,0 -3.0988,-1.6256 l -6.1468,-10.74419 q -0.4318,-0.6858 -0.9652,-0.9906 -0.5334,-0.3302 -1.524,-0.3302 h -2.1844 v 13.69059 h -8.5852 v -37.00779 h 12.0396 q 4.0132,0 6.8326,0.8382 2.8448,0.8128 4.6228,2.286 1.8034,1.4732 2.6162,3.4798 0.8128,2.0066 0.8128,4.3688 0,1.8034 -0.4826,3.4036 -0.4826,1.6002 -1.4224,2.9718 -0.9398,1.3462 -2.3368,2.413 -1.3716,1.0668 -3.175,1.7526 0.8382,0.4318 1.5748,1.0922 0.7366,0.635 1.3208,1.524 z"
         style="font-style:normal;font-variant:normal;font-weight:900;font-stretch:normal;font-size:50.79999924px;font-family:Lato;-inkscape-font-specification:'Lato Heavy';fill:#ffffff;fill-opacity:1;stroke-width:0.26458332px"
         id="path11286"
         inkscape:connector-curvature="0" />
    </g>
  </g>
</svg>
