<?xml version="1.0" encoding="UTF-8" standalone="no"?>
<!-- Created with Inkscape (http://www.inkscape.org/) -->

<svg
   xmlns:dc="http://purl.org/dc/elements/1.1/"
   xmlns:cc="http://creativecommons.org/ns#"
   xmlns:rdf="http://www.w3.org/1999/02/22-rdf-syntax-ns#"
   xmlns:svg="http://www.w3.org/2000/svg"
   xmlns="http://www.w3.org/2000/svg"
   xmlns:sodipodi="http://sodipodi.sourceforge.net/DTD/sodipodi-0.dtd"
   xmlns:inkscape="http://www.inkscape.org/namespaces/inkscape"
   width="85mm"
   height="55mm"
   viewBox="0 0 301.1811 194.88189"
   id="svg2"
   version="1.1"
   inkscape:version="0.91 r"
   sodipodi:docname="card-tlivora.svg"
   inkscape:export-filename="/Users/mvecera/kubedo8.png"
   inkscape:export-xdpi="300.18179"
   inkscape:export-ydpi="300.18179">
  <defs
     id="defs4">
    <path
       d="m 290.53862,-503.56579 a 179.44934,179.44934 0 0 1 167.56971,17.61228 179.44934,179.44934 0 0 1 79.10255,148.77025 l -179.44934,0 z"
       sodipodi:end="0"
       sodipodi:start="4.3284165"
       sodipodi:ry="179.44934"
       sodipodi:rx="179.44934"
       sodipodi:cy="-337.18326"
       sodipodi:cx="357.76154"
       sodipodi:type="arc"
       transform="scale(1,-1)"
       id="circle5539-6"
       style="fill:none;fill-opacity:1;stroke:none;stroke-width:11.72579384;stroke-linecap:round;stroke-linejoin:round;stroke-miterlimit:4;stroke-dasharray:none;stroke-opacity:1" />
    <path
       d="M 192.92212,303.41816 A 169.08575,169.08575 0 0 1 376.73479,173.15108 169.08575,169.08575 0 0 1 526.82611,341.16656 l -169.08575,0 z"
       sodipodi:end="0"
       sodipodi:start="3.3667401"
       sodipodi:ry="169.08575"
       sodipodi:rx="169.08575"
       sodipodi:cy="341.16656"
       sodipodi:cx="357.74036"
       sodipodi:type="arc"
       id="path4188"
       style="opacity:1;fill:none;stroke:none;stroke-width:5.77194309;stroke-miterlimit:4;stroke-dasharray:none;stroke-dashoffset:0;stroke-opacity:1" />
  </defs>
  <sodipodi:namedview
     id="base"
     pagecolor="#ffffff"
     bordercolor="#666666"
     borderopacity="1.0"
     inkscape:pageopacity="0.0"
     inkscape:pageshadow="2"
     inkscape:zoom="1.979899"
     inkscape:cx="56.86713"
     inkscape:cy="78.634443"
     inkscape:document-units="px"
     inkscape:current-layer="layer1"
     showgrid="false"
     inkscape:snap-grids="true"
     inkscape:snap-page="false"
     inkscape:window-width="1396"
     inkscape:window-height="855"
     inkscape:window-x="652"
     inkscape:window-y="532"
     inkscape:window-maximized="0">
    <inkscape:grid
       type="xygrid"
       id="grid7995" />
  </sodipodi:namedview>
  <metadata
     id="metadata7">
    <rdf:RDF>
      <cc:Work
         rdf:about="">
        <dc:format>image/svg+xml</dc:format>
        <dc:type
           rdf:resource="http://purl.org/dc/dcmitype/StillImage" />
        <dc:title></dc:title>
      </cc:Work>
    </rdf:RDF>
  </metadata>
  <g
     inkscape:label="Vrstva 1"
     inkscape:groupmode="layer"
     id="layer1"
     transform="translate(0,-857.48031)">
    <g
       id="g5705"
       transform="matrix(0.14469079,0,0,0.14469079,23.379507,756.53703)">
      <g
         id="g4499"
         inkscape:export-xdpi="13.67"
         inkscape:export-ydpi="13.67"
         transform="translate(-505.1884,772.16297)">
        <circle
           style="fill:#ffffff;fill-opacity:1;stroke:#000000;stroke-width:10;stroke-linecap:round;stroke-linejoin:round;stroke-miterlimit:4;stroke-dasharray:none;stroke-opacity:1"
           id="circle4501"
           cx="552.04724"
           cy="162.89758"
           r="153.03812" />
        <path
           inkscape:connector-curvature="0"
           style="fill:#000000;fill-opacity:1;stroke:#000000;stroke-width:10;stroke-linecap:round;stroke-linejoin:round;stroke-miterlimit:4;stroke-dasharray:none;stroke-opacity:1"
           d="m 551.98181,9.85938 a 153.03812,153.03812 0 0 0 -147.5625,113.13671 l 116.19336,0 33.1543,-33.15429 33.15429,33.15429 112.75391,0 A 153.03812,153.03812 0 0 0 551.98181,9.85938 Z"
           id="path4503" />
        <g
           id="g4505"
           transform="translate(267.90439,-296)">
          <ellipse
             ry="10.714286"
             rx="8.5714283"
             cy="452.36221"
             cx="257.14285"
             id="ellipse4507"
             style="fill:#000000;fill-opacity:1;stroke:#000000;stroke-width:10;stroke-linecap:round;stroke-linejoin:round;stroke-miterlimit:4;stroke-dasharray:none;stroke-opacity:1" />
          <ellipse
             style="fill:#000000;fill-opacity:1;stroke:#000000;stroke-width:10;stroke-linecap:round;stroke-linejoin:round;stroke-miterlimit:4;stroke-dasharray:none;stroke-opacity:1"
             id="ellipse4509"
             cx="311.14285"
             cy="452.36221"
             rx="8.5714283"
             ry="10.714286" />
        </g>
        <g
           id="g4511"
           transform="translate(376.94456,-92.42857)"
           style="fill:#ffffff;fill-opacity:1;stroke:#ffffff;stroke-opacity:1">
          <path
             inkscape:connector-curvature="0"
             id="path4513"
             d="m 39.285714,224.50506 10,-26.42857"
             style="fill:#ffffff;fill-opacity:1;fill-rule:evenodd;stroke:#ffffff;stroke-width:10;stroke-linecap:round;stroke-linejoin:round;stroke-miterlimit:4;stroke-dasharray:none;stroke-opacity:1" />
          <path
             style="fill:#ffffff;fill-opacity:1;fill-rule:evenodd;stroke:#ffffff;stroke-width:10;stroke-linecap:round;stroke-linejoin:round;stroke-miterlimit:4;stroke-dasharray:none;stroke-opacity:1"
             d="m 55.285714,224.50506 10,-26.42857"
             id="path4515"
             inkscape:connector-curvature="0" />
          <path
             inkscape:connector-curvature="0"
             id="path4517"
             d="m 71.285714,224.50506 10,-26.42857"
             style="fill:#ffffff;fill-opacity:1;fill-rule:evenodd;stroke:#ffffff;stroke-width:10;stroke-linecap:round;stroke-linejoin:round;stroke-miterlimit:4;stroke-dasharray:none;stroke-opacity:1" />
        </g>
        <g
           style="fill:#ffffff;fill-opacity:1;stroke:#ffffff;stroke-opacity:1"
           transform="translate(424.94456,-92.42857)"
           id="g4519">
          <path
             style="fill:#ffffff;fill-opacity:1;fill-rule:evenodd;stroke:#ffffff;stroke-width:10;stroke-linecap:round;stroke-linejoin:round;stroke-miterlimit:4;stroke-dasharray:none;stroke-opacity:1"
             d="m 39.285714,224.50506 10,-26.42857"
             id="path4521"
             inkscape:connector-curvature="0" />
          <path
             inkscape:connector-curvature="0"
             id="path4523"
             d="m 55.285714,224.50506 10,-26.42857"
             style="fill:#ffffff;fill-opacity:1;fill-rule:evenodd;stroke:#ffffff;stroke-width:10;stroke-linecap:round;stroke-linejoin:round;stroke-miterlimit:4;stroke-dasharray:none;stroke-opacity:1" />
          <path
             style="fill:#ffffff;fill-opacity:1;fill-rule:evenodd;stroke:#ffffff;stroke-width:10;stroke-linecap:round;stroke-linejoin:round;stroke-miterlimit:4;stroke-dasharray:none;stroke-opacity:1"
             d="m 71.285714,224.50506 10,-26.42857"
             id="path4525"
             inkscape:connector-curvature="0" />
        </g>
        <g
           id="g4527"
           transform="translate(440.94456,-92.42857)"
           style="fill:#ffffff;fill-opacity:1;stroke:#ffffff;stroke-opacity:1">
          <path
             inkscape:connector-curvature="0"
             id="path4529"
             d="m 39.285714,224.50506 10,-26.42857"
             style="fill:#ffffff;fill-opacity:1;fill-rule:evenodd;stroke:#ffffff;stroke-width:10;stroke-linecap:round;stroke-linejoin:round;stroke-miterlimit:4;stroke-dasharray:none;stroke-opacity:1" />
          <path
             style="fill:#ffffff;fill-opacity:1;fill-rule:evenodd;stroke:#ffffff;stroke-width:10;stroke-linecap:round;stroke-linejoin:round;stroke-miterlimit:4;stroke-dasharray:none;stroke-opacity:1"
             d="m 55.285714,224.50506 10,-26.42857"
             id="path4531"
             inkscape:connector-curvature="0" />
          <path
             inkscape:connector-curvature="0"
             id="path4533"
             d="m 71.285714,224.50506 10,-26.42857"
             style="fill:#ffffff;fill-opacity:1;fill-rule:evenodd;stroke:#ffffff;stroke-width:10;stroke-linecap:round;stroke-linejoin:round;stroke-miterlimit:4;stroke-dasharray:none;stroke-opacity:1" />
        </g>
        <g
           style="fill:#ffffff;fill-opacity:1;stroke:#ffffff;stroke-opacity:1"
           transform="matrix(-1,0,0,1,729.51599,-92.42857)"
           id="g4535">
          <path
             style="fill:#ffffff;fill-opacity:1;fill-rule:evenodd;stroke:#ffffff;stroke-width:10;stroke-linecap:round;stroke-linejoin:round;stroke-miterlimit:4;stroke-dasharray:none;stroke-opacity:1"
             d="m 39.285714,224.50506 10,-26.42857"
             id="path4537"
             inkscape:connector-curvature="0" />
          <path
             inkscape:connector-curvature="0"
             id="path4539"
             d="m 55.285714,224.50506 10,-26.42857"
             style="fill:#ffffff;fill-opacity:1;fill-rule:evenodd;stroke:#ffffff;stroke-width:10;stroke-linecap:round;stroke-linejoin:round;stroke-miterlimit:4;stroke-dasharray:none;stroke-opacity:1" />
          <path
             style="fill:#ffffff;fill-opacity:1;fill-rule:evenodd;stroke:#ffffff;stroke-width:10;stroke-linecap:round;stroke-linejoin:round;stroke-miterlimit:4;stroke-dasharray:none;stroke-opacity:1"
             d="m 71.285714,224.50506 10,-26.42857"
             id="path4541"
             inkscape:connector-curvature="0" />
        </g>
        <g
           id="g4543"
           transform="matrix(-1,0,0,1,681.51599,-92.42857)"
           style="fill:#ffffff;fill-opacity:1;stroke:#ffffff;stroke-opacity:1">
          <path
             inkscape:connector-curvature="0"
             id="path4545"
             d="m 39.285714,224.50506 10,-26.42857"
             style="fill:#ffffff;fill-opacity:1;fill-rule:evenodd;stroke:#ffffff;stroke-width:10;stroke-linecap:round;stroke-linejoin:round;stroke-miterlimit:4;stroke-dasharray:none;stroke-opacity:1" />
          <path
             style="fill:#ffffff;fill-opacity:1;fill-rule:evenodd;stroke:#ffffff;stroke-width:10;stroke-linecap:round;stroke-linejoin:round;stroke-miterlimit:4;stroke-dasharray:none;stroke-opacity:1"
             d="m 55.285714,224.50506 10,-26.42857"
             id="path4547"
             inkscape:connector-curvature="0" />
          <path
             inkscape:connector-curvature="0"
             id="path4549"
             d="m 71.285714,224.50506 10,-26.42857"
             style="fill:#ffffff;fill-opacity:1;fill-rule:evenodd;stroke:#ffffff;stroke-width:10;stroke-linecap:round;stroke-linejoin:round;stroke-miterlimit:4;stroke-dasharray:none;stroke-opacity:1" />
        </g>
        <g
           style="fill:#ffffff;fill-opacity:1;stroke:#ffffff;stroke-opacity:1"
           transform="matrix(-1,0,0,1,665.51599,-92.42857)"
           id="g4551">
          <path
             style="fill:#ffffff;fill-opacity:1;fill-rule:evenodd;stroke:#ffffff;stroke-width:10;stroke-linecap:round;stroke-linejoin:round;stroke-miterlimit:4;stroke-dasharray:none;stroke-opacity:1"
             d="m 39.285714,224.50506 10,-26.42857"
             id="path4553"
             inkscape:connector-curvature="0" />
          <path
             inkscape:connector-curvature="0"
             id="path4555"
             d="m 55.285714,224.50506 10,-26.42857"
             style="fill:#ffffff;fill-opacity:1;fill-rule:evenodd;stroke:#ffffff;stroke-width:10;stroke-linecap:round;stroke-linejoin:round;stroke-miterlimit:4;stroke-dasharray:none;stroke-opacity:1" />
          <path
             style="fill:#ffffff;fill-opacity:1;fill-rule:evenodd;stroke:#ffffff;stroke-width:10;stroke-linecap:round;stroke-linejoin:round;stroke-miterlimit:4;stroke-dasharray:none;stroke-opacity:1"
             d="m 71.285714,224.50506 10,-26.42857"
             id="path4557"
             inkscape:connector-curvature="0" />
        </g>
        <g
           transform="translate(166.51111,144)"
           style="font-style:normal;font-weight:normal;font-size:40px;line-height:125%;font-family:sans-serif;letter-spacing:0px;word-spacing:0px;fill:#000000;fill-opacity:1;stroke:none;stroke-width:5;stroke-linecap:butt;stroke-linejoin:miter;stroke-miterlimit:4;stroke-dasharray:none;stroke-opacity:1"
           id="flowRoot4559">
          <path
             d="m 304.9502,128.94445 0,-28.00781 5.41015,0 0,22.8125 13.51563,0 0,5.19531 -18.92578,0 z"
             style="font-style:normal;font-variant:normal;font-weight:bold;font-stretch:normal;font-family:Overpass;-inkscape-font-specification:'Overpass Bold';text-align:center;text-anchor:middle;stroke-width:5;stroke-miterlimit:4;stroke-dasharray:none"
             id="path8021" />
          <path
             d="m 339.16895,129.43273 q -1.42579,0 -2.83204,-0.25391 -1.38671,-0.23437 -2.63671,-0.78125 -1.25,-0.54687 -2.32422,-1.40625 -1.05469,-0.8789 -1.83594,-2.1289 -0.78125,-1.25 -1.23047,-2.89063 -0.42969,-1.64062 -0.42969,-3.75 l 0,-17.28515 5.41016,0 0,17.28515 q 0,1.73828 0.39062,2.91016 0.41016,1.15234 1.17188,1.83594 0.76172,0.68359 1.85547,0.97656 1.09375,0.27344 2.46094,0.27344 1.34765,0 2.42187,-0.27344 1.09375,-0.29297 1.85547,-0.97656 0.78125,-0.6836 1.19141,-1.83594 0.41015,-1.17188 0.41015,-2.91016 l 0,-17.28515 5.39063,0 0,17.28515 q 0,3.125 -0.9375,5.27344 -0.9375,2.12891 -2.51953,3.45703 -1.5625,1.3086 -3.59375,1.89453 -2.03125,0.58594 -4.21875,0.58594 z"
             style="font-style:normal;font-variant:normal;font-weight:bold;font-stretch:normal;font-family:Overpass;-inkscape-font-specification:'Overpass Bold';text-align:center;text-anchor:middle;stroke-width:5;stroke-miterlimit:4;stroke-dasharray:none"
             id="path8023" />
          <path
             d="m 378.0166,128.94445 0,-14.39453 q 0,-0.23438 0,-0.54688 0.0195,-0.3125 0.0195,-0.625 0.0195,-0.33203 0.0195,-0.60547 0.0195,-0.27343 0.0391,-0.42968 -0.21485,0.66406 -0.42969,1.1914 -0.19531,0.52735 -0.41016,1.01563 l -6.79687,14.88281 -6.83594,-14.88281 q -0.21484,-0.48828 -0.42969,-1.01563 -0.19531,-0.52734 -0.41015,-1.1914 0.0195,0.15625 0.0195,0.42968 0.0195,0.27344 0.0195,0.60547 0.0195,0.3125 0.0195,0.625 0.0195,0.3125 0.0195,0.54688 l 0,14.39453 -5.41015,0 0,-28.00781 5.48828,0 6.875,15.44922 q 0.21484,0.50781 0.39062,0.97656 0.17578,0.44922 0.33203,0.9375 0.15625,-0.48828 0.33203,-0.9375 0.17579,-0.46875 0.39063,-0.97656 l 6.99219,-15.44922 5.15625,0 0,28.00781 -5.39063,0 z"
             style="font-style:normal;font-variant:normal;font-weight:bold;font-stretch:normal;font-family:Overpass;-inkscape-font-specification:'Overpass Bold';text-align:center;text-anchor:middle;stroke-width:5;stroke-miterlimit:4;stroke-dasharray:none"
             id="path8025" />
          <path
             d="m 390.65332,128.94445 0,-28.00781 19.12109,0 0,5.13672 -13.71093,0 0,5.8789 8.0664,0 0,5.11719 -8.0664,0 0,6.75781 14.55078,0 0,5.11719 -19.96094,0 z"
             style="font-style:normal;font-variant:normal;font-weight:bold;font-stretch:normal;font-family:Overpass;-inkscape-font-specification:'Overpass Bold';text-align:center;text-anchor:middle;stroke-width:5;stroke-miterlimit:4;stroke-dasharray:none"
             id="path8027" />
          <path
             d="m 416.43457,128.94445 0,-28.00781 19.12109,0 0,5.13672 -13.71093,0 0,5.8789 8.0664,0 0,5.11719 -8.0664,0 0,6.75781 14.55078,0 0,5.11719 -19.96094,0 z"
             style="font-style:normal;font-variant:normal;font-weight:bold;font-stretch:normal;font-family:Overpass;-inkscape-font-specification:'Overpass Bold';text-align:center;text-anchor:middle;stroke-width:5;stroke-miterlimit:4;stroke-dasharray:none"
             id="path8029" />
          <path
             d="m 442.21582,128.94445 0,-28.00781 13.00781,0 q 2.65625,0 4.4336,0.74218 1.79687,0.72266 2.89062,1.9336 1.09375,1.21094 1.5625,2.79297 0.46875,1.58203 0.46875,3.30078 0,1.1914 -0.35156,2.42187 -0.33203,1.21094 -1.01563,2.30469 -0.68359,1.09375 -1.69921,1.99219 -1.01563,0.8789 -2.36329,1.36719 l 5.42969,11.15234 -6.07422,0 -5.23437,-10.44922 -5.64453,0 0,10.44922 -5.41016,0 z m 13.08594,-15.56641 q 1.03515,0 1.73828,-0.29297 0.70312,-0.3125 1.13281,-0.82031 0.42969,-0.50781 0.60547,-1.17187 0.19531,-0.66407 0.19531,-1.38672 0,-0.66406 -0.17578,-1.3086 -0.15625,-0.66406 -0.5664,-1.17187 -0.41016,-0.52734 -1.13282,-0.83984 -0.70312,-0.3125 -1.79687,-0.3125 l -7.67578,0 0,7.30468 7.67578,0 z"
             style="font-style:normal;font-variant:normal;font-weight:bold;font-stretch:normal;font-family:Overpass;-inkscape-font-specification:'Overpass Bold';text-align:center;text-anchor:middle;stroke-width:5;stroke-miterlimit:4;stroke-dasharray:none"
             id="path8031" />
        </g>
        <g
           transform="translate(-108.59252,-182)"
           id="g4567">
          <path
             sodipodi:nodetypes="ccsc"
             inkscape:connector-curvature="0"
             id="path4569"
             d="m 670.0884,411.65834 100.15284,0 c 0,0 -72.71177,-47.42772 -100.07477,-26.41431 -6.98322,5.36276 -0.0781,26.41431 -0.0781,26.41431 z"
             style="fill:#000000;fill-opacity:1;fill-rule:evenodd;stroke:#000000;stroke-width:5.41782808;stroke-linecap:round;stroke-linejoin:round;stroke-miterlimit:4;stroke-dasharray:none;stroke-opacity:1" />
          <path
             style="fill:#000000;fill-opacity:1;fill-rule:evenodd;stroke:#000000;stroke-width:5.41782808;stroke-linecap:round;stroke-linejoin:round;stroke-miterlimit:4;stroke-dasharray:none;stroke-opacity:1"
             d="m 651.19112,411.65834 -100.15283,0 c 0,0 72.71177,-47.42772 100.07476,-26.41431 6.98322,5.36276 0.0781,26.41431 0.0781,26.41431 z"
             id="path4571"
             inkscape:connector-curvature="0"
             sodipodi:nodetypes="ccsc" />
        </g>
      </g>
      <path
         style="opacity:1;fill:none;stroke:none;stroke-width:5.77194309;stroke-miterlimit:4;stroke-dasharray:none;stroke-dashoffset:0;stroke-opacity:1"
         id="path4585"
         sodipodi:type="arc"
         sodipodi:cx="46.837666"
         sodipodi:cy="939.04382"
         sodipodi:rx="169.08575"
         sodipodi:ry="169.08575"
         sodipodi:start="3.3667401"
         sodipodi:end="0"
         d="M -117.98057,901.29541 A 169.08575,169.08575 0 0 1 65.8321,771.02834 169.08575,169.08575 0 0 1 215.92342,939.04382 l -169.085754,0 z" />
      <path
         style="fill:none;fill-opacity:1;stroke:none;stroke-width:11.72579384;stroke-linecap:round;stroke-linejoin:round;stroke-miterlimit:4;stroke-dasharray:none;stroke-opacity:1"
         id="path4587"
         transform="scale(1,-1)"
         sodipodi:type="arc"
         sodipodi:cx="46.858845"
         sodipodi:cy="-935.06055"
         sodipodi:rx="179.44934"
         sodipodi:ry="179.44934"
         sodipodi:start="4.3284165"
         sodipodi:end="0"
         d="m -20.364069,-1101.4431 a 179.44934,179.44934 0 0 1 167.569709,17.6123 179.44934,179.44934 0 0 1 79.10255,148.77025 l -179.449345,0 z" />
    </g>
    <g
       id="g5752"
       transform="translate(0,9.0000103)">
      <rect
         ry="0.72066015"
         y="867.94287"
         x="61.680222"
         height="4.5457044"
         width="232.3351"
         id="rect5746"
         style="opacity:1;fill:#18bc9c;fill-opacity:1;stroke:none;stroke-width:2.68000007;stroke-miterlimit:4;stroke-dasharray:none;stroke-dashoffset:0;stroke-opacity:1" />
      <text
         sodipodi:linespacing="125%"
         id="text5748"
         y="895.17133"
         x="60.130222"
         style="font-style:normal;font-weight:normal;font-size:25px;line-height:125%;font-family:sans-serif;letter-spacing:0px;word-spacing:0px;fill:#2c3e50;fill-opacity:1;stroke:none;stroke-width:1px;stroke-linecap:butt;stroke-linejoin:miter;stroke-opacity:1;"
         xml:space="preserve"><tspan
           style="font-style:italic;font-variant:normal;font-weight:300;font-stretch:normal;font-size:25px;font-family:Lato;-inkscape-font-specification:'Lato Light Italic';fill:#2c3e50;fill-opacity:1;"
           y="895.17133"
           x="60.130222"
           id="tspan5750"
           sodipodi:role="line">Data to organise? Sure!</tspan></text>
    </g>
    <text
       xml:space="preserve"
       style="font-style:normal;font-weight:normal;font-size:40px;line-height:125%;font-family:sans-serif;letter-spacing:0px;word-spacing:0px;fill:#2c3e50;fill-opacity:1;stroke:none;stroke-width:1px;stroke-linecap:butt;stroke-linejoin:miter;stroke-opacity:1"
       x="62.501472"
       y="946.31647"
       id="text5757"
       sodipodi:linespacing="125%"><tspan
         sodipodi:role="line"
         id="tspan5759"
         x="62.501472"
         y="946.31647"
         style="font-style:normal;font-variant:normal;font-weight:900;font-stretch:normal;font-size:27.5px;font-family:Lato;-inkscape-font-specification:'Lato Heavy';fill:#2c3e50;fill-opacity:1">Tomáš Livora</tspan><tspan
         sodipodi:role="line"
         x="62.501472"
         y="967.8399"
         style="font-style:normal;font-variant:normal;font-weight:600;font-stretch:normal;font-size:15px;font-family:Lato;-inkscape-font-specification:'Lato Semi-Bold';fill:#2c3e50;fill-opacity:1"
         id="tspan5769"> Technical Lead</tspan><tspan
         sodipodi:role="line"
         x="62.501472"
         y="986.5899"
         id="tspan5761"
         style="font-style:normal;font-variant:normal;font-weight:600;font-stretch:normal;font-size:15px;font-family:Lato;-inkscape-font-specification:'Lato Semi-Bold';fill:#2c3e50;fill-opacity:1" /><tspan
         sodipodi:role="line"
         x="62.501472"
         y="1005.3399"
         style="font-style:normal;font-variant:normal;font-weight:600;font-stretch:normal;font-size:15px;font-family:Lato;-inkscape-font-specification:'Lato Semi-Bold';fill:#2c3e50;fill-opacity:1"
         id="tspan8018">+420 728 936 681</tspan><tspan
         sodipodi:role="line"
         x="62.501472"
         y="1024.0898"
         id="tspan5763"
         style="font-style:normal;font-variant:normal;font-weight:600;font-stretch:normal;font-size:15px;font-family:Lato;-inkscape-font-specification:'Lato Semi-Bold';fill:#2c3e50;fill-opacity:1">tomas.livora@lumeer.io</tspan><tspan
         sodipodi:role="line"
         x="62.501472"
         y="1042.8398"
         style="font-style:normal;font-variant:normal;font-weight:600;font-stretch:normal;font-size:15px;font-family:Lato;-inkscape-font-specification:'Lato Semi-Bold';fill:#2c3e50;fill-opacity:1"
         id="tspan5767">www.lumeer.io</tspan></text>
    <g
       transform="matrix(0.03482812,0,0,0.03482812,39.602205,992.39395)"
       id="g5851"
       style="fill:#2c3e50;fill-opacity:1">
      <path
         inkscape:connector-curvature="0"
         d="m 401.129,311.475 c -1.137,-3.426 -8.371,-8.473 -21.697,-15.129 -3.61,-2.098 -8.754,-4.949 -15.41,-8.566 -6.662,-3.617 -12.709,-6.95 -18.13,-9.996 -5.432,-3.045 -10.521,-5.995 -15.276,-8.846 -0.76,-0.571 -3.139,-2.234 -7.136,-5 -4.001,-2.758 -7.375,-4.805 -10.14,-6.14 -2.759,-1.327 -5.473,-1.995 -8.138,-1.995 -3.806,0 -8.56,2.714 -14.268,8.135 -5.708,5.428 -10.944,11.324 -15.7,17.706 -4.757,6.379 -9.802,12.275 -15.126,17.7 -5.332,5.427 -9.713,8.138 -13.135,8.138 -1.718,0 -3.86,-0.479 -6.427,-1.424 -2.566,-0.951 -4.518,-1.766 -5.858,-2.423 -1.328,-0.671 -3.607,-1.999 -6.845,-4.004 -3.244,-1.999 -5.048,-3.094 -5.428,-3.285 -26.075,-14.469 -48.438,-31.029 -67.093,-49.676 -18.649,-18.658 -35.211,-41.019 -49.676,-67.097 -0.19,-0.381 -1.287,-2.19 -3.284,-5.424 -2,-3.237 -3.333,-5.518 -3.999,-6.854 -0.666,-1.331 -1.475,-3.283 -2.425,-5.852 -0.95,-2.569 -1.427,-4.709 -1.427,-6.424 0,-3.424 2.713,-7.804 8.138,-13.134 5.424,-5.327 11.326,-10.373 17.7,-15.128 6.379,-4.755 12.275,-9.991 17.701,-15.699 5.424,-5.711 8.136,-10.467 8.136,-14.273 0,-2.663 -0.666,-5.378 -1.997,-8.137 -1.332,-2.765 -3.378,-6.139 -6.139,-10.138 -2.762,-3.997 -4.427,-6.374 -4.999,-7.139 -2.852,-4.755 -5.799,-9.846 -8.848,-15.271 -3.049,-5.424 -6.377,-11.47 -9.995,-18.131 C 110.593,31.311 107.74,26.17 105.644,22.554 98.986,9.233 93.943,1.997 90.516,0.859 89.183,0.288 87.183,0 84.521,0 79.379,0 72.671,0.95 64.392,2.856 56.11,4.759 49.593,6.755 44.834,8.852 35.317,12.847 25.23,24.457 14.57,43.678 4.863,61.566 0.01,79.271 0.01,96.78 c 0,5.135 0.333,10.131 0.999,14.989 0.666,4.853 1.856,10.326 3.571,16.418 1.712,6.09 3.093,10.614 4.137,13.56 1.045,2.948 2.996,8.229 5.852,15.845 2.852,7.614 4.567,12.275 5.138,13.988 6.661,18.654 14.56,35.307 23.695,49.964 15.03,24.362 35.541,49.539 61.521,75.521 25.981,25.98 51.153,46.49 75.517,61.526 14.655,9.134 31.314,17.032 49.965,23.698 1.714,0.568 6.375,2.279 13.986,5.141 7.614,2.854 12.897,4.805 15.845,5.852 2.949,1.048 7.474,2.43 13.559,4.145 6.098,1.715 11.566,2.905 16.419,3.576 4.856,0.657 9.853,0.996 14.989,0.996 17.508,0 35.214,-4.856 53.105,-14.562 19.219,-10.656 30.826,-20.745 34.823,-30.269 2.102,-4.754 4.093,-11.273 5.996,-19.555 1.909,-8.278 2.857,-14.985 2.857,-20.126 0.006,-2.673 -0.281,-4.668 -0.855,-6.012 z"
         id="path5853"
         style="fill:#2c3e50;fill-opacity:1" />
    </g>
    <g
       transform="matrix(0.03253538,0,0,0.03253538,43.457185,974.60131)"
       id="g5855" />
    <g
       transform="matrix(0.03253538,0,0,0.03253538,43.457185,974.60131)"
       id="g5857" />
    <g
       transform="matrix(0.03253538,0,0,0.03253538,43.457185,974.60131)"
       id="g5859" />
    <g
       transform="matrix(0.03253538,0,0,0.03253538,43.457185,974.60131)"
       id="g5861" />
    <g
       transform="matrix(0.03253538,0,0,0.03253538,43.457185,974.60131)"
       id="g5863" />
    <g
       transform="matrix(0.03253538,0,0,0.03253538,43.457185,974.60131)"
       id="g5865" />
    <g
       transform="matrix(0.03253538,0,0,0.03253538,43.457185,974.60131)"
       id="g5867" />
    <g
       transform="matrix(0.03253538,0,0,0.03253538,43.457185,974.60131)"
       id="g5869" />
    <g
       transform="matrix(0.03253538,0,0,0.03253538,43.457185,974.60131)"
       id="g5871" />
    <g
       transform="matrix(0.03253538,0,0,0.03253538,43.457185,974.60131)"
       id="g5873" />
    <g
       transform="matrix(0.03253538,0,0,0.03253538,43.457185,974.60131)"
       id="g5875" />
    <g
       transform="matrix(0.03253538,0,0,0.03253538,43.457185,974.60131)"
       id="g5877" />
    <g
       transform="matrix(0.03253538,0,0,0.03253538,43.457185,974.60131)"
       id="g5879" />
    <g
       transform="matrix(0.03253538,0,0,0.03253538,43.457185,974.60131)"
       id="g5881" />
    <g
       transform="matrix(0.03253538,0,0,0.03253538,43.457185,974.60131)"
       id="g5883" />
    <g
       transform="matrix(0.02736368,0,0,0.02736368,39.602556,1012.8299)"
       id="g6578"
       style="fill:#2c3e50;fill-opacity:1">
      <g
         id="g6580"
         style="fill:#2c3e50;fill-opacity:1">
        <path
           inkscape:connector-curvature="0"
           d="m 49.106,178.729 c 6.472,4.567 25.981,18.131 58.528,40.685 32.548,22.554 57.482,39.92 74.803,52.099 1.903,1.335 5.946,4.237 12.131,8.71 6.186,4.476 11.326,8.093 15.416,10.852 4.093,2.758 9.041,5.852 14.849,9.277 5.806,3.422 11.279,5.996 16.418,7.7 5.14,1.718 9.898,2.569 14.275,2.569 l 0.287,0 0.288,0 c 4.377,0 9.137,-0.852 14.277,-2.569 5.137,-1.704 10.615,-4.281 16.416,-7.7 5.804,-3.429 10.752,-6.52 14.845,-9.277 4.093,-2.759 9.229,-6.376 15.417,-10.852 6.184,-4.477 10.232,-7.375 12.135,-8.71 17.508,-12.179 62.051,-43.11 133.615,-92.79 13.894,-9.703 25.502,-21.411 34.827,-35.116 9.332,-13.699 13.993,-28.07 13.993,-43.105 0,-12.564 -4.523,-23.319 -13.565,-32.264 C 489.02,59.291 478.312,54.82 465.944,54.82 l -420.265,0 C 31.024,54.82 19.746,59.768 11.847,69.664 3.949,79.562 0,91.934 0,106.779 c 0,11.991 5.236,24.985 15.703,38.974 10.466,13.99 21.604,24.983 33.403,32.976 z"
           id="path6582"
           style="fill:#2c3e50;fill-opacity:1" />
        <path
           inkscape:connector-curvature="0"
           d="m 483.072,209.275 c -62.424,42.251 -109.824,75.087 -142.177,98.501 -10.849,7.991 -19.65,14.229 -26.409,18.699 -6.759,4.473 -15.748,9.041 -26.98,13.702 -11.228,4.668 -21.692,6.995 -31.401,6.995 l -0.291,0 -0.287,0 c -9.707,0 -20.177,-2.327 -31.405,-6.995 -11.228,-4.661 -20.223,-9.229 -26.98,-13.702 -6.755,-4.47 -15.559,-10.708 -26.407,-18.699 C 145.038,288.934 97.74,256.096 28.839,209.275 17.987,202.047 8.375,193.762 0,184.437 l 0,226.685 c 0,12.57 4.471,23.319 13.418,32.265 8.945,8.949 19.701,13.422 32.264,13.422 l 420.266,0 c 12.56,0 23.315,-4.473 32.261,-13.422 8.949,-8.949 13.418,-19.694 13.418,-32.265 l 0,-226.685 c -8.186,9.132 -17.7,17.417 -28.555,24.838 z"
           id="path6584"
           style="fill:#2c3e50;fill-opacity:1" />
      </g>
    </g>
    <g
       transform="matrix(0.02760352,0,0,0.02760352,41.676425,997.84184)"
       id="g6586" />
    <g
       transform="matrix(0.02760352,0,0,0.02760352,41.676425,997.84184)"
       id="g6588" />
    <g
       transform="matrix(0.02760352,0,0,0.02760352,41.676425,997.84184)"
       id="g6590" />
    <g
       transform="matrix(0.02760352,0,0,0.02760352,41.676425,997.84184)"
       id="g6592" />
    <g
       transform="matrix(0.02760352,0,0,0.02760352,41.676425,997.84184)"
       id="g6594" />
    <g
       transform="matrix(0.02760352,0,0,0.02760352,41.676425,997.84184)"
       id="g6596" />
    <g
       transform="matrix(0.02760352,0,0,0.02760352,41.676425,997.84184)"
       id="g6598" />
    <g
       transform="matrix(0.02760352,0,0,0.02760352,41.676425,997.84184)"
       id="g6600" />
    <g
       transform="matrix(0.02760352,0,0,0.02760352,41.676425,997.84184)"
       id="g6602" />
    <g
       transform="matrix(0.02760352,0,0,0.02760352,41.676425,997.84184)"
       id="g6604" />
    <g
       transform="matrix(0.02760352,0,0,0.02760352,41.676425,997.84184)"
       id="g6606" />
    <g
       transform="matrix(0.02760352,0,0,0.02760352,41.676425,997.84184)"
       id="g6608" />
    <g
       transform="matrix(0.02760352,0,0,0.02760352,41.676425,997.84184)"
       id="g6610" />
    <g
       transform="matrix(0.02760352,0,0,0.02760352,41.676425,997.84184)"
       id="g6612" />
    <g
       transform="matrix(0.02760352,0,0,0.02760352,41.676425,997.84184)"
       id="g6614" />
    <g
       transform="matrix(0.03041511,0,0,0.03041511,39.602571,1031.0175)"
       id="g7315"
       style="fill:#2c3e50;fill-opacity:1">
      <g
         id="g7317"
         style="fill:#2c3e50;fill-opacity:1">
        <path
           inkscape:connector-curvature="0"
           d="M 230.149,120.939 65.986,256.274 c 0,0.191 -0.048,0.472 -0.144,0.855 -0.094,0.38 -0.144,0.656 -0.144,0.852 l 0,137.041 c 0,4.948 1.809,9.236 5.426,12.847 3.616,3.613 7.898,5.431 12.847,5.431 l 109.63,0 0,-109.636 73.097,0 0,109.64 109.629,0 c 4.948,0 9.236,-1.814 12.847,-5.435 3.617,-3.607 5.432,-7.898 5.432,-12.847 l 0,-137.041 c 0,-0.76 -0.104,-1.334 -0.288,-1.707 L 230.149,120.939 Z"
           id="path7319"
           style="fill:#2c3e50;fill-opacity:1" />
        <path
           inkscape:connector-curvature="0"
           d="m 457.122,225.438 -62.522,-51.962 0,-116.487 c 0,-2.663 -0.856,-4.853 -2.574,-6.567 -1.704,-1.712 -3.894,-2.568 -6.563,-2.568 l -54.816,0 c -2.666,0 -4.855,0.856 -6.57,2.568 -1.711,1.714 -2.566,3.905 -2.566,6.567 l 0,55.673 -69.662,-58.245 c -6.084,-4.949 -13.318,-7.423 -21.694,-7.423 -8.375,0 -15.608,2.474 -21.698,7.423 L 3.172,225.438 c -1.903,1.52 -2.946,3.566 -3.14,6.136 -0.193,2.568 0.472,4.811 1.997,6.713 l 17.701,21.128 c 1.525,1.712 3.521,2.759 5.996,3.142 2.285,0.192 4.57,-0.476 6.855,-1.998 L 230.149,95.817 427.719,260.558 c 1.526,1.328 3.521,1.991 5.996,1.991 l 0.858,0 c 2.471,-0.376 4.463,-1.43 5.996,-3.138 l 17.703,-21.125 c 1.522,-1.906 2.189,-4.145 1.991,-6.716 -0.195,-2.563 -1.242,-4.609 -3.141,-6.132 z"
           id="path7321"
           style="fill:#2c3e50;fill-opacity:1" />
      </g>
    </g>
    <g
       transform="matrix(0.03041511,0,0,0.03041511,5.7218508,1032.0277)"
       id="g7323" />
    <g
       transform="matrix(0.03041511,0,0,0.03041511,5.7218508,1032.0277)"
       id="g7325" />
    <g
       transform="matrix(0.03041511,0,0,0.03041511,5.7218508,1032.0277)"
       id="g7327" />
    <g
       transform="matrix(0.03041511,0,0,0.03041511,5.7218508,1032.0277)"
       id="g7329" />
    <g
       transform="matrix(0.03041511,0,0,0.03041511,5.7218508,1032.0277)"
       id="g7331" />
    <g
       transform="matrix(0.03041511,0,0,0.03041511,5.7218508,1032.0277)"
       id="g7333" />
    <g
       transform="matrix(0.03041511,0,0,0.03041511,5.7218508,1032.0277)"
       id="g7335" />
    <g
       transform="matrix(0.03041511,0,0,0.03041511,5.7218508,1032.0277)"
       id="g7337" />
    <g
       transform="matrix(0.03041511,0,0,0.03041511,5.7218508,1032.0277)"
       id="g7339" />
    <g
       transform="matrix(0.03041511,0,0,0.03041511,5.7218508,1032.0277)"
       id="g7341" />
    <g
       transform="matrix(0.03041511,0,0,0.03041511,5.7218508,1032.0277)"
       id="g7343" />
    <g
       transform="matrix(0.03041511,0,0,0.03041511,5.7218508,1032.0277)"
       id="g7345" />
    <g
       transform="matrix(0.03041511,0,0,0.03041511,5.7218508,1032.0277)"
       id="g7347" />
    <g
       transform="matrix(0.03041511,0,0,0.03041511,5.7218508,1032.0277)"
       id="g7349" />
    <g
       transform="matrix(0.03041511,0,0,0.03041511,5.7218508,1032.0277)"
       id="g7351" />
  </g>
</svg>
