<?xml version="1.0" encoding="UTF-8" standalone="no"?>
<svg
   xmlns:dc="http://purl.org/dc/elements/1.1/"
   xmlns:cc="http://creativecommons.org/ns#"
   xmlns:rdf="http://www.w3.org/1999/02/22-rdf-syntax-ns#"
   xmlns:svg="http://www.w3.org/2000/svg"
   xmlns="http://www.w3.org/2000/svg"
   xmlns:sodipodi="http://sodipodi.sourceforge.net/DTD/sodipodi-0.dtd"
   xmlns:inkscape="http://www.inkscape.org/namespaces/inkscape"
   viewBox="0 0 28.98 28.98"
   version="1.1"
   id="svg1012"
   sodipodi:docname="footer-instagram.svg"
   inkscape:version="0.92.2 2405546, 2018-03-11">
  <metadata
     id="metadata1016">
    <rdf:RDF>
      <cc:Work
         rdf:about="">
        <dc:format>image/svg+xml</dc:format>
        <dc:type
           rdf:resource="http://purl.org/dc/dcmitype/StillImage" />
        <dc:title>Twitter</dc:title>
      </cc:Work>
    </rdf:RDF>
  </metadata>
  <sodipodi:namedview
     pagecolor="#ffffff"
     bordercolor="#666666"
     borderopacity="1"
     objecttolerance="10"
     gridtolerance="10"
     guidetolerance="10"
     inkscape:pageopacity="0"
     inkscape:pageshadow="2"
     inkscape:window-width="1920"
     inkscape:window-height="1030"
     id="namedview1014"
     showgrid="false"
     inkscape:zoom="7.4016564"
     inkscape:cx="4.6195146"
     inkscape:cy="-18.995675"
     inkscape:window-x="1920"
     inkscape:window-y="0"
     inkscape:window-maximized="1"
     inkscape:current-layer="svg1012" />
  <defs
     id="defs1004">
    <style
       id="style1002">.cls-1{fill:#19ac86;}</style>
  </defs>
  <title
     id="title1006">Twitter</title>
  <path
     inkscape:connector-curvature="0"
     style="fill:#19ac86;fill-opacity:1;stroke-width:1"
     d="m 14.493232,7.0598936 c -4.111831,0 -7.4284487,3.3173584 -7.4284487,7.4301064 0,4.112748 3.3166177,7.430106 7.4284487,7.430106 4.11183,0 7.428448,-3.317358 7.428448,-7.430106 0,-4.112748 -3.316618,-7.4301064 -7.428448,-7.4301064 z m 0,12.2606454 c -2.657174,0 -4.8294607,-2.166306 -4.8294607,-4.830539 0,-2.664233 2.1658217,-4.8305394 4.8294607,-4.8305394 2.663638,0 4.829461,2.1663064 4.829461,4.8305394 0,2.664233 -2.172288,4.830539 -4.829461,4.830539 z M 23.9582,6.7559636 c 0,0.963522 -0.775817,1.733045 -1.732658,1.733045 -0.963306,0 -1.732658,-0.77599 -1.732658,-1.733045 0,-0.957054 0.775817,-1.733044 1.732658,-1.733044 0.956841,0 1.732658,0.77599 1.732658,1.733044 z m 4.919973,1.758911 C 28.768265,6.1933706 28.238124,4.1369976 26.537791,2.4427516 24.843924,0.74850665 22.788009,0.21824665 20.467023,0.10184865 c -2.392102,-0.135799 -9.561945,-0.135799 -11.9540477,0 -2.314521,0.109932 -4.370435,0.640192 -6.070768,2.33443695 -1.70033203,1.694245 -2.22400903,3.750619 -2.34038103,6.072123 -0.135768,2.3926364 -0.135768,9.5640794 0,11.9567164 0.109907,2.321504 0.640049,4.377878 2.34038103,6.072123 1.700333,1.694245 3.749782,2.224505 6.070768,2.340904 2.3921027,0.135798 9.5619457,0.135798 11.9540477,0 2.320986,-0.109932 4.376901,-0.640192 6.070768,-2.340904 1.693868,-1.694245 2.224009,-3.750619 2.340382,-6.072123 0.135768,-2.392637 0.135768,-9.557613 0,-11.9502504 z M 25.787835,23.032359 c -0.504281,1.267451 -1.480518,2.243905 -2.754151,2.754765 -1.907216,0.756591 -6.432816,0.581993 -8.540452,0.581993 -2.107637,0 -6.6397007,0.168131 -8.5404527,-0.581993 -1.267168,-0.504393 -2.243404,-1.480848 -2.75415,-2.754765 -0.756422,-1.907643 -0.581863,-6.434252 -0.581863,-8.542359 0,-2.108107 -0.168094,-6.6411834 0.581863,-8.5423594 0.504281,-1.26745 1.480517,-2.243904 2.75415,-2.754765 1.907217,-0.75659 6.4328157,-0.581992 8.5404527,-0.581992 2.107636,0 6.639701,-0.168132 8.540452,0.581992 1.267168,0.504394 2.243405,1.480848 2.754151,2.754765 0.756422,1.907643 0.581863,6.4342524 0.581863,8.5423594 0,2.108107 0.174559,6.641183 -0.581863,8.542359 z"
     id="path2" />
</svg>
