<svg xmlns="http://www.w3.org/2000/svg" viewBox="0 0 28.98 28.98"><defs><style>.cls-1{fill:#19ac86;}</style></defs><title>Twitter</title><g id="Layer_2"><g id="Layer_1-2"><path
        class="cls-1" d="M29,14.49A14.49,14.49,0,1,1,14.49,0,14.49,14.49,0,0,1,29,14.49ZM11.84,22.14a9.87,9.87,0,0,0,9.94-9.94c0-.15,0-.3,0-.45a7.16,7.16,0,0,0,1.75-1.81,7.09,7.09,0,0,1-2,.55,3.49,3.49,0,0,0,1.54-1.93,7.08,7.08,0,0,1-2.22.85,3.5,3.5,0,0,0-6,2.39,3.2,3.2,0,0,0,.09.8,9.91,9.91,0,0,1-7.2-3.65,3.49,3.49,0,0,0,1.09,4.66,3.43,3.43,0,0,1-1.58-.43v0A3.5,3.5,0,0,0,10,16.63a3.48,3.48,0,0,1-.92.12,3.34,3.34,0,0,1-.66-.07,3.49,3.49,0,0,0,3.26,2.43,7,7,0,0,1-4.34,1.49,6.35,6.35,0,0,1-.83-.05,9.73,9.73,0,0,0,5.34,1.58"/></g></g></svg>