<?xml version="1.0" encoding="UTF-8" standalone="no"?>
<!-- Generator: Adobe Illustrator 22.1.0, SVG Export Plug-In . SVG Version: 6.00 Build 0)  -->

<svg
   xmlns:dc="http://purl.org/dc/elements/1.1/"
   xmlns:cc="http://creativecommons.org/ns#"
   xmlns:rdf="http://www.w3.org/1999/02/22-rdf-syntax-ns#"
   xmlns:svg="http://www.w3.org/2000/svg"
   xmlns="http://www.w3.org/2000/svg"
   xmlns:sodipodi="http://sodipodi.sourceforge.net/DTD/sodipodi-0.dtd"
   xmlns:inkscape="http://www.inkscape.org/namespaces/inkscape"
   version="1.1"
   id="Layer_1"
   x="0px"
   y="0px"
   viewBox="0 0 330.16403 76.000004"
   xml:space="preserve"
   inkscape:version="0.91 r13725"
   sodipodi:docname="logo-titile-green.svg"
   width="330.16403"
   height="76"><metadata
     id="metadata29"><rdf:RDF><cc:Work
         rdf:about=""><dc:format>image/svg+xml</dc:format><dc:type
           rdf:resource="http://purl.org/dc/dcmitype/StillImage" /><dc:title></dc:title></cc:Work></rdf:RDF></metadata><defs
     id="defs27" /><sodipodi:namedview
     pagecolor="#ffffff"
     bordercolor="#666666"
     borderopacity="1"
     objecttolerance="10"
     gridtolerance="10"
     guidetolerance="10"
     inkscape:pageopacity="0"
     inkscape:pageshadow="2"
     inkscape:window-width="1396"
     inkscape:window-height="855"
     id="namedview25"
     showgrid="false"
     fit-margin-top="0"
     fit-margin-left="0"
     fit-margin-right="0"
     fit-margin-bottom="0"
     inkscape:zoom="1.054131"
     inkscape:cx="165.11403"
     inkscape:cy="38.050003"
     inkscape:window-x="44"
     inkscape:window-y="23"
     inkscape:window-maximized="0"
     inkscape:current-layer="Layer_1" /><style
     type="text/css"
     id="style3">
	.st0{fill:none;stroke:#1CAE88;stroke-width:0.5;stroke-miterlimit:10;}
	.st1{fill:#243645;}
	.st2{fill:#FFFFFF;}
	.st3{clip-path:url(#SVGID_2_);}
	.st4{clip-path:url(#SVGID_4_);}
	.st5{fill:#1CAE88;}
	.st6{fill:none;stroke:#1CAE88;stroke-miterlimit:10;}
	.st7{fill:none;stroke:#1CAE88;stroke-width:3;stroke-miterlimit:10;}
	.st8{fill:none;stroke:#1CAE88;stroke-width:2;stroke-miterlimit:10;}
	.st9{fill:#010202;}
	.st10{fill:#3C3C3B;}
	.st11{fill:#DADADA;}
	.st12{fill:#EDEDED;}
	.st13{fill:#706F6F;}
	.st14{fill:#F6F6F6;}
	.st15{fill:#344251;}
	.st16{fill:#465160;}
	.st17{fill:#59616F;}
	.st18{fill:#6E737F;}
	.st19{fill:#4CB694;}
	.st20{fill:#6ABEA0;}
	.st21{fill:#83C7AC;}
	.st22{fill:#99CFB8;}
	.st23{fill:none;stroke:#BE1622;stroke-width:0.5;stroke-miterlimit:10;}
	.st24{fill:none;stroke:#BE1622;stroke-width:0.5;stroke-miterlimit:10;stroke-dasharray:6.0762,6.0762;}
	.st25{fill:none;stroke:#BE1622;stroke-width:0.5;stroke-miterlimit:10;stroke-dasharray:6.0102,6.0102;}
	.st26{fill:#9D9D9C;}
	.st27{clip-path:url(#SVGID_10_);}
	.st28{fill:none;stroke:#1CAE88;stroke-width:2;stroke-miterlimit:10;stroke-dasharray:5.812,5.812;}
	.st29{fill:none;stroke:#1CAE88;stroke-width:2;stroke-miterlimit:10;stroke-dasharray:6.0053,6.0053;}
	.st30{fill:none;stroke:#1CAE88;stroke-width:2;stroke-miterlimit:10;stroke-dasharray:6.0332,6.0332;}
	.st31{fill:none;stroke:#1CAE88;stroke-width:2;stroke-miterlimit:10;stroke-dasharray:5.9956,5.9956;}
	.st32{fill:none;stroke:#1CAE88;stroke-width:2;stroke-miterlimit:10;stroke-dasharray:5.9864,5.9864;}
	.st33{fill:none;stroke:#1CAE88;stroke-width:2;stroke-miterlimit:10;stroke-dasharray:5.9656,5.9656;}
	.st34{fill:#F2F2F2;}
	.st35{fill:none;stroke:#BE1622;stroke-width:0.5;stroke-miterlimit:10;stroke-dasharray:5.8716,5.8716;}
	.st36{fill:none;stroke:#BE1622;stroke-width:0.5;stroke-miterlimit:10;stroke-dasharray:5.8994,5.8994;}
	.st37{fill:#36A9E1;}
	.st38{clip-path:url(#SVGID_14_);}
	.st39{fill:none;stroke:#1CAE88;stroke-width:2;stroke-miterlimit:10;stroke-dasharray:5.9324,5.9324;}
	.st40{fill:none;stroke:#1CAE88;stroke-width:2;stroke-miterlimit:10;stroke-dasharray:6.3127,6.3127;}
	.st41{fill:none;stroke:#1CAE88;stroke-width:2;stroke-miterlimit:10;stroke-dasharray:6.0857,6.0857;}
	.st42{fill:none;stroke:#1CAE88;stroke-width:2;stroke-miterlimit:10;stroke-dasharray:6.4055,6.4055;}
	.st43{fill-rule:evenodd;clip-rule:evenodd;fill:#6E7481;}
	.st44{clip-path:url(#SVGID_18_);}
	.st45{clip-path:url(#SVGID_22_);}
</style><path
     class="st5"
     d="m 124.66403,53.7 0,7.2 -25.3,0 0,-42.7 8.8,0 0,35.5 16.5,0 z"
     id="path5"
     inkscape:connector-curvature="0"
     style="fill:#1cae88" /><path
     class="st5"
     d="m 146.46403,53.8 c 1.4,0 2.7,-0.2 3.8,-0.7 1.1,-0.5 2.1,-1.2 2.9,-2 0.8,-0.9 1.4,-1.9 1.8,-3.2 0.4,-1.3 0.6,-2.7 0.6,-4.2 l 0,-25.5 8.8,0 0,25.4 c 0,2.6 -0.4,5 -1.2,7.1 -0.8,2.2 -2,4 -3.6,5.6 -1.5,1.6 -3.4,2.8 -5.6,3.7 -2.2,0.9 -4.7,1.3 -7.5,1.3 -2.8,0 -5.3,-0.4 -7.5,-1.3 -2.2,-0.9 -4.1,-2.1 -5.7,-3.7 -1.5,-1.6 -2.7,-3.4 -3.6,-5.6 -0.8,-2.2 -1.2,-4.5 -1.2,-7.1 l 0,-25.4 8.8,0 0,25.4 c 0,1.6 0.2,3 0.6,4.2 0.4,1.3 1,2.3 1.8,3.2 0.8,0.9 1.7,1.6 2.9,2 1.1,0.6 2.4,0.8 3.9,0.8 z"
     id="path7"
     inkscape:connector-curvature="0"
     style="fill:#1cae88" /><path
     class="st5"
     d="m 219.86403,18.2 0,42.6 -7.8,0 0,-26.1 c 0,-0.5 0,-1.1 0,-1.8 0,-0.6 0.1,-1.3 0.2,-1.9 l -12.2,23.1 c -0.7,1.3 -1.7,1.9 -3.1,1.9 l -1.2,0 c -0.7,0 -1.3,-0.2 -1.8,-0.5 -0.5,-0.3 -1,-0.8 -1.3,-1.4 l -12.3,-23.2 c 0.1,0.7 0.1,1.3 0.1,2 0,0.6 0.1,1.2 0.1,1.8 l 0,26.2 -7.8,0 0,-42.7 6.7,0 c 0.4,0 0.7,0 1,0 0.3,0 0.6,0.1 0.8,0.2 0.2,0.1 0.4,0.2 0.6,0.4 0.2,0.2 0.4,0.4 0.5,0.8 l 11.9,22.7 c 0.4,0.7 0.7,1.4 1,2.1 0.3,0.7 0.6,1.5 0.9,2.2 0.3,-0.8 0.6,-1.5 0.9,-2.3 0.3,-0.7 0.7,-1.5 1,-2.1 l 11.8,-22.7 c 0.2,-0.3 0.4,-0.6 0.6,-0.8 0.2,-0.2 0.4,-0.3 0.6,-0.4 0.2,-0.1 0.5,-0.1 0.8,-0.2 0.3,0 0.6,0 1,0 l 7,0 z"
     id="path9"
     inkscape:connector-curvature="0"
     style="fill:#1cae88" /><path
     class="st5"
     d="m 237.56403,25.1 0,11 14.2,0 0,6.7 -14.2,0 0,11.2 18.3,0 0,6.9 -27.2,0 0,-42.7 27.2,0 0,6.9 -18.3,0 z"
     id="path11"
     inkscape:connector-curvature="0"
     style="fill:#1cae88" /><path
     class="st5"
     d="m 271.36403,25.1 0,11 14.2,0 0,6.7 -14.2,0 0,11.2 18.3,0 0,6.9 -27.2,0 0,-42.7 27.2,0 0,6.9 -18.3,0 z"
     id="path13"
     inkscape:connector-curvature="0"
     style="fill:#1cae88" /><path
     class="st5"
     d="m 330.16403,60.8 -8,0 c -1.5,0 -2.6,-0.6 -3.2,-1.7 l -8.1,-13.1 c -0.3,-0.5 -0.7,-0.9 -1.1,-1.1 -0.4,-0.2 -1,-0.4 -1.8,-0.4 l -3,0 0,16.2 -8.8,0 0,-42.5 13.4,0 c 3,0 5.5,0.3 7.6,0.9 2.1,0.6 3.8,1.5 5.2,2.6 1.4,1.1 2.3,2.4 3,3.9 0.6,1.5 0.9,3.2 0.9,5 0,1.4 -0.2,2.7 -0.6,4 -0.4,1.3 -1,2.4 -1.7,3.5 -0.8,1 -1.7,2 -2.8,2.8 -1.1,0.8 -2.4,1.4 -3.8,1.9 0.6,0.3 1.1,0.7 1.6,1.1 0.5,0.4 0.9,1 1.3,1.6 l 9.9,15.3 z m -20.6,-22.4 c 1.4,0 2.7,-0.2 3.7,-0.5 1,-0.4 1.9,-0.9 2.6,-1.5 0.7,-0.6 1.2,-1.4 1.5,-2.2 0.3,-0.9 0.5,-1.8 0.5,-2.8 0,-2 -0.7,-3.6 -2,-4.7 -1.3,-1.1 -3.4,-1.7 -6.1,-1.7 l -4.6,0 0,13.5 4.4,0 z"
     id="path15"
     inkscape:connector-curvature="0"
     style="fill:#1cae88" /><path
     class="st5"
     d="m 35.96403,72.8 c -16.4,0 -29.7,-13.3 -29.7,-29.7 0,-3.2 0.5,-6.3 1.5,-9.2 1.6,-2.1 4.3,-4.1 8.6,-5.6 6.1,3.8 12.2,5.6 18.1,5.6 3.8,0 7.6,-0.7 11.3,-2.2 2.3,-1.7 4.8,-2.4 7.1,-2.4 5.1,0 9.8,3.6 12.3,8.5 0.3,1.8 0.5,3.6 0.5,5.4 0,16.3 -13.3,29.6 -29.7,29.6 m -3.9,-72.8 c -9.3,0.5 -16.6,3.4 -17.4,11.4 -8.6,2.1 -15.39999995,7.3 -14.59999995,23.1 0.8,-0.8 1.29999995,-1.8 2.59999995,-1.8 -0.4,3 -0.1,5.8 0.6,7.9 -0.1,0.8 -0.1,1.7 -0.1,2.6 0,18.1 14.7,32.8 32.8,32.8 18.1,0 32.8,-14.7 32.8,-32.8 0,0 0,-0.1 0,-0.1 1.2,-2.2 1.9,-5.1 1.1,-8 1,1 1.8,2.6 2.1,4.4 -1,-21.3 -10.1,-31.9 -24.9,-34.3 0.9,-1.1 2.5,-1.7 4.7,-1.7 1,0 2,0.1 3.1,0.4 -5.2,-2.4 -9.7,-3.5 -13.6,-3.5 -4,0 -7.4,1.1 -10.3,3 -1,-1.4 -0.5,-2.7 1.1,-3.4"
     id="path17"
     inkscape:connector-curvature="0"
     style="fill:#1cae88" /><path
     class="st5"
     d="m 28.56403,41 c -1.7,0 -3.2,1.4 -3.2,3.2 0,1.7 1.4,3.2 3.2,3.2 1.7,0 3.2,-1.4 3.2,-3.2 0,-0.3 0,-0.5 -0.1,-0.8 l -2.3,0 0.4,-2.2 c -0.4,-0.1 -0.8,-0.2 -1.2,-0.2"
     id="path19"
     inkscape:connector-curvature="0"
     style="fill:#1cae88" /><path
     class="st5"
     d="m 43.46403,41 c -1.7,0 -3.2,1.4 -3.2,3.2 0,1.7 1.4,3.2 3.2,3.2 1.7,0 3.2,-1.4 3.2,-3.2 0,-0.2 0,-0.5 -0.1,-0.7 l -2.2,0 0.4,-2.2 c -0.4,-0.2 -0.8,-0.3 -1.3,-0.3"
     id="path21"
     inkscape:connector-curvature="0"
     style="fill:#1cae88" /><path
     class="st5"
     d="m 41.26403,54 c -0.8,-0.3 -1.5,-0.5 -2.2,-0.5 -1.3,0 -2.3,0.6 -3.1,1.5 -0.8,-0.9 -1.8,-1.5 -3.1,-1.5 -0.7,0 -1.4,0.2 -2.2,0.5 -3.5,1.5 -4.4,4.8 -8.7,5.6 0,0 2.3,2.3 6.6,2.3 2,0 4.5,-0.5 7.4,-2 2.9,1.5 5.4,2 7.4,2 4.3,0 6.6,-2.3 6.6,-2.3 -4.3,-0.8 -5.2,-4.1 -8.7,-5.6 z"
     id="path23"
     inkscape:connector-curvature="0"
     style="fill:#1cae88" /></svg>