<?xml version="1.0" encoding="UTF-8" standalone="no"?>
<!-- Created with Inkscape (http://www.inkscape.org/) -->

<svg
   xmlns:dc="http://purl.org/dc/elements/1.1/"
   xmlns:cc="http://creativecommons.org/ns#"
   xmlns:rdf="http://www.w3.org/1999/02/22-rdf-syntax-ns#"
   xmlns:svg="http://www.w3.org/2000/svg"
   xmlns="http://www.w3.org/2000/svg"
   xmlns:sodipodi="http://sodipodi.sourceforge.net/DTD/sodipodi-0.dtd"
   xmlns:inkscape="http://www.inkscape.org/namespaces/inkscape"
   width="54.178253mm"
   height="66.480309mm"
   viewBox="0 0 54.178253 66.480309"
   version="1.1"
   id="svg2201"
   inkscape:version="0.92.2 2405546, 2018-03-11"
   sodipodi:docname="lumeer-sticker-text-cut.svg">
  <defs
     id="defs2195" />
  <sodipodi:namedview
     id="base"
     pagecolor="#ffffff"
     bordercolor="#666666"
     borderopacity="1.0"
     inkscape:pageopacity="0.0"
     inkscape:pageshadow="2"
     inkscape:zoom="1.4"
     inkscape:cx="242.30476"
     inkscape:cy="86.210603"
     inkscape:document-units="mm"
     inkscape:current-layer="layer1"
     showgrid="false"
     fit-margin-top="0"
     fit-margin-left="0"
     fit-margin-right="0"
     fit-margin-bottom="0"
     inkscape:window-width="1920"
     inkscape:window-height="1030"
     inkscape:window-x="1920"
     inkscape:window-y="0"
     inkscape:window-maximized="1" />
  <metadata
     id="metadata2198">
    <rdf:RDF>
      <cc:Work
         rdf:about="">
        <dc:format>image/svg+xml</dc:format>
        <dc:type
           rdf:resource="http://purl.org/dc/dcmitype/StillImage" />
        <dc:title></dc:title>
      </cc:Work>
    </rdf:RDF>
  </metadata>
  <g
     inkscape:label="Vrstva 1"
     inkscape:groupmode="layer"
     id="layer1"
     transform="translate(-0.13477328,-43.452341)">
    <g
       id="g2826"
       transform="matrix(1.0070388,0,0,1.0070363,-4.5689443,-0.59157622)"
       style="stroke-width:0.99301165">
      <path
         sodipodi:nodetypes="scccccccsccccscccscccsscsssssssscs"
         inkscape:connector-curvature="0"
         id="path1429"
         d="m 48.909481,93.147291 c 4.456071,-4.434221 7.225052,-10.559039 7.244213,-17.32135 0.270679,-0.53236 0.443918,-1.140521 0.615749,-1.751931 0.777449,0.39411 1.691121,-0.196969 1.649981,-1.06743 -0.375071,-7.749099 -2.216002,-13.684869 -5.432592,-17.93192 -2.267439,-2.993829 -5.245258,-5.062809 -8.722034,-6.353841 0.216283,0.03146 0.369393,0.02692 0.608094,0.06897 1.303319,0.219171 1.868803,-1.586151 0.673206,-2.149239 -3.833754,-1.765008 -7.219077,-2.6049 -10.181444,-2.6049 -2.06365,0 -3.872384,0.503488 -5.570494,1.197627 0.02711,-0.09935 0.04066,-0.201614 0.04021,-0.304437 v -0.0032 c 6.38e-4,-0.64083 -0.528499,-1.155486 -1.169257,-1.137313 l 10e-7,-2.1e-5 c -0.01093,5.08e-4 -0.02172,0.0011 -0.03256,0.0022 -3.433354,0.201905 -6.560722,0.817622 -9.008358,2.243046 -2.220427,1.293088 -3.693771,3.450449 -4.199177,6.205459 -2.973469,0.80201 -5.7737266,2.141809 -7.7375936,4.750299 -2.102421,2.79254 -3.202226,6.84278 -2.92458,12.64644 0.04364,0.90611 1.079219,1.398542 1.809909,0.860652 0.01973,1.251188 0.157069,2.434738 0.488386,3.488539 -0.04612,0.56066 -0.09384,1.167799 -0.09384,1.772989 0,6.777251 2.754235,12.9193 7.2032856,17.367022 4.449052,4.447739 5.570237,4.641609 12.410292,7.247108 l -15.85012,0.046 c -0.69901,0 -1.2621456,0.56298 -1.2621456,1.26179 v 6.76072 c 0,0.69881 0.5631356,1.26176 1.2621456,1.26176 h 41.680534 c 0.699011,0 1.2612,-0.56295 1.2612,-1.26176 v -6.76072 c 0,-0.69881 -0.562189,-1.25977 -1.2612,-1.26179 l -15.940275,-0.046 c 6.071219,-2.24919 7.982397,-2.789598 12.438464,-7.22384 z"
         style="fill:none;stroke:#ff0000;stroke-width:0.09930117;stroke-miterlimit:4;stroke-dasharray:none;stroke-opacity:1" />
      <g
         style="stroke-width:0.53594089"
         transform="matrix(1.8531134,0,0,1.8525626,-97.449775,-175.62837)"
         id="g1459">
        <path
           class="st1"
           d="m 69.63487,147.12592 c -6.297083,0 -11.43,-5.13291 -11.43,-11.43 0,-1.24354 0.211667,-2.43416 0.582084,-3.57187 0.635,-0.82021 1.640416,-1.56104 3.307291,-2.16959 2.354792,1.45521 4.683125,2.14313 6.958542,2.14313 1.481666,0 2.910416,-0.29104 4.339166,-0.84667 0.899584,-0.66146 1.825625,-0.9525 2.725209,-0.9525 1.984375,0 3.783541,1.40229 4.736041,3.30729 0.132292,0.66146 0.185209,1.37584 0.185209,2.09021 0.02646,6.29709 -5.106459,11.43 -11.403542,11.43 m -1.561042,-28.07229 c -3.598333,0.21167 -6.402916,1.32292 -6.693958,4.41854 -3.307292,0.79375 -5.900208,2.80459 -5.609167,8.89 0.291042,-0.29104 0.502709,-0.68791 1.005417,-0.68791 -0.132292,1.1377 -0.05292,2.2225 0.238125,3.0427 -0.02646,0.3175 -0.05292,0.66146 -0.05292,0.97896 0,6.985 5.662083,12.64709 12.647084,12.64709 6.985,0 12.673541,-5.66209 12.673541,-12.64709 0,-0.0265 0,-0.0265 0,-0.0529 0.47625,-0.84666 0.740833,-1.98437 0.423333,-3.09562 0.396875,0.39687 0.687917,1.00541 0.79375,1.69333 -0.396875,-8.20208 -3.889374,-12.30312 -9.604374,-13.2027 0.343958,-0.42334 0.978958,-0.635 1.799166,-0.635 0.370417,0 0.767292,0.0529 1.217084,0.13229 -2.010834,-0.92604 -3.757084,-1.34938 -5.23875,-1.34938 -1.534584,0 -2.831042,0.42334 -3.96875,1.13771 -0.423334,-0.44979 -0.211667,-0.9525 0.370416,-1.27"
           id="path4"
           inkscape:connector-curvature="0"
           style="fill:#243645;stroke-width:0.14180103" />
        <path
           class="st1"
           d="m 66.750912,134.87571 c -0.661459,0 -1.217083,0.55563 -1.217083,1.21709 0,0.66146 0.555624,1.21708 1.217083,1.21708 0.661458,0 1.217083,-0.55562 1.217083,-1.21708 0,-0.10584 -0.02646,-0.21167 -0.02646,-0.29104 H 67.06841 l 0.15875,-0.84667 c -0.15875,-0.0265 -0.3175,-0.0794 -0.47625,-0.0794"
           id="path6"
           inkscape:connector-curvature="0"
           style="fill:#243645;stroke-width:0.14180103" />
        <path
           class="st1"
           d="m 72.49237,134.87571 c -0.661458,0 -1.217083,0.55563 -1.217083,1.21709 0,0.66146 0.555625,1.21708 1.217083,1.21708 0.661458,0 1.217083,-0.55562 1.217083,-1.21708 0,-0.10584 0,-0.18521 -0.02646,-0.26459 h -0.820208 l 0.15875,-0.84666 c -0.158748,-0.0529 -0.343957,-0.10584 -0.529165,-0.10584"
           id="path8"
           inkscape:connector-curvature="0"
           style="fill:#243645;stroke-width:0.14180103" />
        <path
           class="st1"
           d="m 71.645703,139.87634 c -0.291041,-0.13229 -0.582083,-0.18521 -0.820208,-0.18521 -0.502708,0 -0.899583,0.23813 -1.190625,0.58208 -0.291042,-0.34395 -0.687917,-0.58208 -1.190625,-0.58208 -0.264583,0 -0.529167,0.0529 -0.820208,0.18521 -1.349375,0.58208 -1.719792,1.85208 -3.360208,2.16958 0,0 0.873125,0.87313 2.539999,0.87313 0.767292,0 1.719792,-0.18521 2.8575,-0.76729 1.11125,0.55562 2.06375,0.76729 2.8575,0.76729 1.666875,0 2.54,-0.87313 2.54,-0.87313 -1.693333,-0.3175 -2.06375,-1.56104 -3.413125,-2.16958 z"
           id="path10"
           inkscape:connector-curvature="0"
           style="fill:#243645;stroke-width:0.14180103" />
      </g>
      <g
         transform="matrix(2.2146779,0,0,2.2140196,33.863641,-178.15728)"
         id="text2074"
         style="font-style:normal;font-variant:normal;font-weight:bold;font-stretch:normal;font-size:4.93888903px;line-height:6.61458302px;font-family:Lato;-inkscape-font-specification:'Lato Bold';letter-spacing:0px;word-spacing:0px;fill:#243645;fill-opacity:1;stroke:none;stroke-width:0.11865083px;stroke-linecap:butt;stroke-linejoin:miter;stroke-opacity:1"
         aria-label="LUMEER.IO">
        <path
           inkscape:connector-curvature="0"
           id="path2117"
           style="font-style:normal;font-variant:normal;font-weight:800;font-stretch:normal;font-size:3.52777767px;font-family:Lato;-inkscape-font-specification:'Lato Ultra-Bold';fill:#243645;fill-opacity:1;stroke:none;stroke-width:0.11865083px;stroke-opacity:1"
           d="m -8.7628937,128.83629 v 0.43039 h -1.5187083 v -2.5594 h 0.5291666 v 2.12901 z" />
        <path
           inkscape:connector-curvature="0"
           id="path2119"
           style="font-style:normal;font-variant:normal;font-weight:800;font-stretch:normal;font-size:3.52777767px;font-family:Lato;-inkscape-font-specification:'Lato Ultra-Bold';fill:#243645;fill-opacity:1;stroke:none;stroke-width:0.11865083px;stroke-opacity:1"
           d="m -7.4561829,128.84334 q 0.1287639,0 0.2310695,-0.0423 0.1023055,-0.0441 0.1728611,-0.12347 0.070556,-0.0794 0.1075972,-0.19226 0.037042,-0.11289 0.037042,-0.254 v -1.524 h 0.5291666 v 1.524 q 0,0.23283 -0.075847,0.42862 -0.074083,0.19403 -0.2134306,0.33514 -0.1393472,0.14111 -0.3386666,0.22049 -0.1993195,0.0794 -0.4497917,0.0794 -0.2504722,0 -0.4515555,-0.0794 -0.1993195,-0.0794 -0.3386667,-0.22049 -0.1393472,-0.14111 -0.2151944,-0.33514 -0.074083,-0.19579 -0.074083,-0.42862 v -1.524 h 0.5291666 v 1.524 q 0,0.14111 0.037042,0.254 0.037042,0.11288 0.1075972,0.19226 0.070555,0.0794 0.1728611,0.12347 0.1023056,0.0423 0.2328333,0.0423 z" />
        <path
           inkscape:connector-curvature="0"
           id="path2121"
           style="font-style:normal;font-variant:normal;font-weight:800;font-stretch:normal;font-size:3.52777767px;font-family:Lato;-inkscape-font-specification:'Lato Ultra-Bold';fill:#243645;fill-opacity:1;stroke:none;stroke-width:0.11865083px;stroke-opacity:1"
           d="m -3.0496576,126.70728 v 2.5594 h -0.4674305 v -1.57163 q 0,-0.0494 0.00176,-0.10583 0.00353,-0.0564 0.010583,-0.11465 l -0.7320139,1.38818 q -0.059972,0.11465 -0.1852083,0.11465 h -0.074083 q -0.061736,0 -0.1093611,-0.0282 -0.047625,-0.03 -0.075847,-0.0864 l -0.7355417,-1.39347 q 0.00529,0.0617 0.00882,0.11994 0.00353,0.0564 0.00353,0.10583 v 1.57163 h -0.4674305 v -2.5594 h 0.4021667 q 0.033514,0 0.059972,0.002 0.026458,0.002 0.045861,0.0106 0.021167,0.007 0.037042,0.0247 0.017639,0.0159 0.033514,0.0459 l 0.7161389,1.36525 q 0.033514,0.0617 0.061736,0.127 0.029986,0.0653 0.056444,0.13405 0.026458,-0.0705 0.054681,-0.13758 0.029986,-0.067 0.0635,-0.12876 l 0.7108472,-1.35996 q 0.015875,-0.03 0.033514,-0.0459 0.017639,-0.0176 0.037042,-0.0247 0.021167,-0.009 0.045861,-0.0106 0.026458,-0.002 0.061736,-0.002 z" />
        <path
           inkscape:connector-curvature="0"
           id="path2123"
           style="font-style:normal;font-variant:normal;font-weight:800;font-stretch:normal;font-size:3.52777767px;font-family:Lato;-inkscape-font-specification:'Lato Ultra-Bold';fill:#243645;fill-opacity:1;stroke:none;stroke-width:0.11865083px;stroke-opacity:1"
           d="m -1.9836626,127.12179 v 0.65793 h 0.8537222 v 0.4004 h -0.8537222 v 0.67204 h 1.09713881 v 0.41452 H -2.5163571 v -2.5594 h 1.62983331 v 0.41451 z" />
        <path
           inkscape:connector-curvature="0"
           id="path2125"
           style="font-style:normal;font-variant:normal;font-weight:800;font-stretch:normal;font-size:3.52777767px;font-family:Lato;-inkscape-font-specification:'Lato Ultra-Bold';fill:#243645;fill-opacity:1;stroke:none;stroke-width:0.11865083px;stroke-opacity:1"
           d="m 0.04205366,127.12179 v 0.65793 h 0.8537222 v 0.4004 h -0.8537222 v 0.67204 H 1.1391925 v 0.41452 h -1.62983327 v -2.5594 H 1.1391925 v 0.41451 z" />
        <path
           inkscape:connector-curvature="0"
           id="path2127"
           style="font-style:normal;font-variant:normal;font-weight:800;font-stretch:normal;font-size:3.52777767px;font-family:Lato;-inkscape-font-specification:'Lato Ultra-Bold';fill:#243645;fill-opacity:1;stroke:none;stroke-width:0.11865083px;stroke-opacity:1"
           d="m 2.3358806,127.91907 q 0.1287639,0 0.22225,-0.0318 0.093486,-0.0335 0.1534583,-0.09 0.059972,-0.0582 0.088194,-0.13582 0.028222,-0.0776 0.028222,-0.16933 0,-0.18168 -0.1217084,-0.28223 -0.1199444,-0.10054 -0.3668888,-0.10054 h -0.275166 v 0.80963 z m 1.2400138,1.34761 H 3.0978806 q -0.1340556,0 -0.1940278,-0.10231 l -0.4868333,-0.78493 q -0.029986,-0.0459 -0.067028,-0.067 -0.035278,-0.0212 -0.1058333,-0.0212 H 2.0642417 v 0.97543 H 1.5350751 v -2.5594 h 0.8043333 q 0.2681111,0 0.4586111,0.0564 0.1905,0.0547 0.3122083,0.15346 0.1217083,0.0988 0.1781528,0.23636 0.056444,0.13582 0.056444,0.29986 0,0.127 -0.037042,0.24165 -0.035278,0.11289 -0.1040694,0.20638 -0.068792,0.0935 -0.1693333,0.1658 -0.1005417,0.0723 -0.2293056,0.11642 0.051153,0.0282 0.09525,0.0688 0.044097,0.0388 0.079375,0.0935 z" />
        <path
           inkscape:connector-curvature="0"
           id="path2129"
           style="font-style:normal;font-variant:normal;font-weight:800;font-stretch:normal;font-size:3.52777767px;font-family:Lato;-inkscape-font-specification:'Lato Ultra-Bold';fill:#243645;fill-opacity:1;stroke:none;stroke-width:0.11865083px;stroke-opacity:1"
           d="m 3.6936892,129.01091 q 0,-0.0582 0.021167,-0.10936 0.022931,-0.0529 0.061736,-0.09 0.038806,-0.0388 0.089958,-0.06 0.052917,-0.0229 0.1146528,-0.0229 0.059972,0 0.1128889,0.0229 0.052917,0.0212 0.091722,0.06 0.038806,0.037 0.059972,0.09 0.022931,0.0512 0.022931,0.10936 0,0.06 -0.022931,0.11113 -0.021167,0.0512 -0.059972,0.09 -0.038806,0.037 -0.091722,0.0582 -0.052917,0.0212 -0.1128889,0.0212 -0.061736,0 -0.1146528,-0.0212 -0.051153,-0.0212 -0.089958,-0.0582 -0.038806,-0.0388 -0.061736,-0.09 -0.021167,-0.0512 -0.021167,-0.11113 z" />
        <path
           inkscape:connector-curvature="0"
           id="path2131"
           style="font-style:normal;font-variant:normal;font-weight:800;font-stretch:normal;font-size:3.52777767px;font-family:Lato;-inkscape-font-specification:'Lato Ultra-Bold';fill:#243645;fill-opacity:1;stroke:none;stroke-width:0.11865083px;stroke-opacity:1"
           d="M 5.202806,129.26668 H 4.6701115 v -2.5594 H 5.202806 Z" />
        <path
           inkscape:connector-curvature="0"
           id="path2133"
           style="font-style:normal;font-variant:normal;font-weight:800;font-stretch:normal;font-size:3.52777767px;font-family:Lato;-inkscape-font-specification:'Lato Ultra-Bold';fill:#243645;fill-opacity:1;stroke:none;stroke-width:0.11865083px;stroke-opacity:1"
           d="m 8.2110635,127.98609 q 0,0.28046 -0.09525,0.52035 -0.093486,0.23989 -0.2663472,0.41452 -0.1710972,0.17462 -0.41275,0.27516 -0.2416528,0.0988 -0.5362222,0.0988 -0.2945694,0 -0.5362222,-0.0988 -0.2416528,-0.10054 -0.4145139,-0.27516 -0.1728611,-0.17463 -0.2681111,-0.41452 -0.093486,-0.23989 -0.093486,-0.52035 0,-0.28045 0.093486,-0.51858 0.09525,-0.23989 0.2681111,-0.41451 0.1728611,-0.17463 0.4145139,-0.27341 0.2416528,-0.10054 0.5362222,-0.10054 0.2945694,0 0.5362222,0.10054 0.2416528,0.0988 0.41275,0.27517 0.1728611,0.17463 0.2663472,0.41452 0.09525,0.23812 0.09525,0.51681 z m -0.5415139,0 q 0,-0.20108 -0.052917,-0.35983 -0.052917,-0.16051 -0.1534584,-0.27164 -0.098778,-0.11289 -0.2416527,-0.17109 -0.1411112,-0.06 -0.3210278,-0.06 -0.1799167,0 -0.3227917,0.06 -0.142875,0.0582 -0.2434166,0.17109 -0.098778,0.11113 -0.1516945,0.27164 -0.052917,0.15875 -0.052917,0.35983 0,0.20285 0.052917,0.36337 0.052917,0.15875 0.1516945,0.26987 0.1005416,0.11113 0.2434166,0.1711 0.142875,0.0582 0.3227917,0.0582 0.1799166,0 0.3210278,-0.0582 0.1428749,-0.06 0.2416527,-0.1711 0.1005417,-0.11112 0.1534584,-0.26987 0.052917,-0.16052 0.052917,-0.36337 z" />
      </g>
    </g>
  </g>
</svg>
