<?xml version="1.0" encoding="UTF-8" standalone="no"?>
<!-- Created with Inkscape (http://www.inkscape.org/) -->

<svg
   xmlns:dc="http://purl.org/dc/elements/1.1/"
   xmlns:cc="http://creativecommons.org/ns#"
   xmlns:rdf="http://www.w3.org/1999/02/22-rdf-syntax-ns#"
   xmlns:svg="http://www.w3.org/2000/svg"
   xmlns="http://www.w3.org/2000/svg"
   xmlns:sodipodi="http://sodipodi.sourceforge.net/DTD/sodipodi-0.dtd"
   xmlns:inkscape="http://www.inkscape.org/namespaces/inkscape"
   width="55.80172mm"
   height="63.435295mm"
   viewBox="0 0 55.801719 63.435296"
   version="1.1"
   id="svg2201"
   inkscape:version="0.91 r13725"
   sodipodi:docname="lumeer-sticker2-text-cut.svg"
   inkscape:export-filename="/Users/mvecera/work/Lumeer/lumeer.github.io/img/lumeer-sticker2-text-cut.png"
   inkscape:export-xdpi="858"
   inkscape:export-ydpi="858">
  <defs
     id="defs2195" />
  <sodipodi:namedview
     id="base"
     pagecolor="#ffffff"
     bordercolor="#666666"
     borderopacity="1.0"
     inkscape:pageopacity="0.0"
     inkscape:pageshadow="2"
     inkscape:zoom="1.979899"
     inkscape:cx="82.226412"
     inkscape:cy="74.226621"
     inkscape:document-units="mm"
     inkscape:current-layer="g4556"
     showgrid="true"
     fit-margin-top="0"
     fit-margin-left="0"
     fit-margin-right="0"
     fit-margin-bottom="0"
     inkscape:window-width="1401"
     inkscape:window-height="855"
     inkscape:window-x="39"
     inkscape:window-y="23"
     inkscape:window-maximized="0"
     inkscape:snap-grids="false">
    <inkscape:grid
       type="xygrid"
       id="grid4694"
       originx="0.81150537"
       originy="-4.6463603" />
  </sodipodi:namedview>
  <metadata
     id="metadata2198">
    <rdf:RDF>
      <cc:Work
         rdf:about="">
        <dc:format>image/svg+xml</dc:format>
        <dc:type
           rdf:resource="http://purl.org/dc/dcmitype/StillImage" />
        <dc:title />
      </cc:Work>
    </rdf:RDF>
  </metadata>
  <g
     inkscape:label="Vrstva 1"
     inkscape:groupmode="layer"
     id="layer1"
     transform="translate(0.67673209,-41.850995)">
    <g
       id="g2826"
       transform="matrix(1.0070388,0,0,1.0070363,-4.5689443,-0.59157622)"
       style="stroke-width:0.99301165">
      <g
         id="g4556">
        <g
           id="g1459"
           transform="matrix(1.8531134,0,0,1.8525626,-97.449775,-175.62837)"
           style="stroke-width:0.53594089">
          <path
             style="fill:#243645;stroke-width:0.14180103"
             inkscape:connector-curvature="0"
             id="path4"
             d="m 69.63487,147.12592 c -6.297083,0 -11.43,-5.13291 -11.43,-11.43 0,-1.24354 0.211667,-2.43416 0.582084,-3.57187 0.635,-0.82021 1.640416,-1.56104 3.307291,-2.16959 2.354792,1.45521 4.683125,2.14313 6.958542,2.14313 1.481666,0 2.910416,-0.29104 4.339166,-0.84667 0.899584,-0.66146 1.825625,-0.9525 2.725209,-0.9525 1.984375,0 3.783541,1.40229 4.736041,3.30729 0.132292,0.66146 0.185209,1.37584 0.185209,2.09021 0.02646,6.29709 -5.106459,11.43 -11.403542,11.43 m -1.561042,-28.07229 c -3.598333,0.21167 -6.402916,1.32292 -6.693958,4.41854 -3.307292,0.79375 -5.900208,2.80459 -5.609167,8.89 0.291042,-0.29104 0.502709,-0.68791 1.005417,-0.68791 -0.132292,1.1377 -0.05292,2.2225 0.238125,3.0427 -0.02646,0.3175 -0.05292,0.66146 -0.05292,0.97896 0,6.985 5.662083,12.64709 12.647084,12.64709 6.985,0 12.673541,-5.66209 12.673541,-12.64709 0,-0.0265 0,-0.0265 0,-0.0529 0.47625,-0.84666 0.740833,-1.98437 0.423333,-3.09562 0.396875,0.39687 0.687917,1.00541 0.79375,1.69333 -0.396875,-8.20208 -3.889374,-12.30312 -9.604374,-13.2027 0.343958,-0.42334 0.978958,-0.635 1.799166,-0.635 0.370417,0 0.767292,0.0529 1.217084,0.13229 -2.010834,-0.92604 -3.757084,-1.34938 -5.23875,-1.34938 -1.534584,0 -2.831042,0.42334 -3.96875,1.13771 -0.423334,-0.44979 -0.211667,-0.9525 0.370416,-1.27"
             class="st1" />
          <path
             style="fill:#243645;stroke-width:0.14180103"
             inkscape:connector-curvature="0"
             id="path6"
             d="m 66.750912,134.87571 c -0.661459,0 -1.217083,0.55563 -1.217083,1.21709 0,0.66146 0.555624,1.21708 1.217083,1.21708 0.661458,0 1.217083,-0.55562 1.217083,-1.21708 0,-0.10584 -0.02646,-0.21167 -0.02646,-0.29104 l -0.873125,0 0.15875,-0.84667 c -0.15875,-0.0265 -0.3175,-0.0794 -0.47625,-0.0794"
             class="st1" />
          <path
             style="fill:#243645;stroke-width:0.14180103"
             inkscape:connector-curvature="0"
             id="path8"
             d="m 72.49237,134.87571 c -0.661458,0 -1.217083,0.55563 -1.217083,1.21709 0,0.66146 0.555625,1.21708 1.217083,1.21708 0.661458,0 1.217083,-0.55562 1.217083,-1.21708 0,-0.10584 0,-0.18521 -0.02646,-0.26459 l -0.820208,0 0.15875,-0.84666 c -0.158748,-0.0529 -0.343957,-0.10584 -0.529165,-0.10584"
             class="st1" />
          <path
             style="fill:#243645;stroke-width:0.14180103"
             inkscape:connector-curvature="0"
             id="path10"
             d="m 71.645703,139.87634 c -0.291041,-0.13229 -0.582083,-0.18521 -0.820208,-0.18521 -0.502708,0 -0.899583,0.23813 -1.190625,0.58208 -0.291042,-0.34395 -0.687917,-0.58208 -1.190625,-0.58208 -0.264583,0 -0.529167,0.0529 -0.820208,0.18521 -1.349375,0.58208 -1.719792,1.85208 -3.360208,2.16958 0,0 0.873125,0.87313 2.539999,0.87313 0.767292,0 1.719792,-0.18521 2.8575,-0.76729 1.11125,0.55562 2.06375,0.76729 2.8575,0.76729 1.666875,0 2.54,-0.87313 2.54,-0.87313 -1.693333,-0.3175 -2.06375,-1.56104 -3.413125,-2.16958 z"
             class="st1" />
        </g>
        <g
           aria-label="LUMEER.IO"
           style="font-style:normal;font-variant:normal;font-weight:bold;font-stretch:normal;font-size:4.93888903px;line-height:6.61458302px;font-family:Lato;-inkscape-font-specification:'Lato Bold';letter-spacing:0px;word-spacing:0px;fill:#243645;fill-opacity:1;stroke:none;stroke-width:0.11865083px;stroke-linecap:butt;stroke-linejoin:miter;stroke-opacity:1"
           id="text2074"
           transform="matrix(2.7268123,0,0,2.7260018,34.393891,-242.74623)">
          <g
             id="text4461"
             style="font-style:normal;font-weight:normal;font-size:1.26560891px;line-height:125%;font-family:sans-serif;letter-spacing:0px;word-spacing:0px;fill:#243645;fill-opacity:1;stroke:none;stroke-width:1px;stroke-linecap:butt;stroke-linejoin:miter;stroke-opacity:1"
             transform="matrix(0.99985012,0,0,1.0001499,2.0141003,-4.9547676)">
            <path
               inkscape:connector-curvature="0"
               id="path4466"
               style="font-style:normal;font-variant:normal;font-weight:900;font-stretch:normal;font-family:Lato;-inkscape-font-specification:'Lato Heavy';fill:#243645;fill-opacity:1"
               d="m -7.2356953,130.82359 -0.284762,0.922 -0.1936381,0 -0.1733884,-0.57142 q -0.00506,-0.0133 -0.00949,-0.0291 -0.00443,-0.0164 -0.00886,-0.0342 -0.00443,0.0177 -0.00886,0.0342 -0.00443,0.0158 -0.00949,0.0291 l -0.1759196,0.57142 -0.1936382,0 -0.284762,-0.922 0.1797165,0 q 0.027843,0 0.046195,0.0127 0.018984,0.0127 0.024679,0.0335 l 0.1265609,0.48093 q 0.0057,0.0228 0.01139,0.05 0.0057,0.0266 0.01139,0.0557 0.01139,-0.0595 0.027843,-0.10568 l 0.1493419,-0.48093 q 0.0057,-0.0177 0.024046,-0.0316 0.018984,-0.0146 0.045562,-0.0146 l 0.063281,0 q 0.027843,0 0.044929,0.0133 0.017086,0.0127 0.025945,0.0329 l 0.1480762,0.48093 q 0.016453,0.0443 0.027843,0.10062 0.00506,-0.0285 0.010125,-0.0532 0.0057,-0.0253 0.011391,-0.0475 l 0.1265609,-0.48093 q 0.00506,-0.0183 0.024046,-0.0323 0.018984,-0.0139 0.045562,-0.0139 l 0.1683259,0 z" />
            <path
               inkscape:connector-curvature="0"
               id="path4468"
               style="font-style:normal;font-variant:normal;font-weight:900;font-stretch:normal;font-family:Lato;-inkscape-font-specification:'Lato Heavy';fill:#243645;fill-opacity:1"
               d="m -5.8885139,130.82359 -0.284762,0.922 -0.1936382,0 -0.1733884,-0.57142 q -0.00506,-0.0133 -0.00949,-0.0291 -0.00443,-0.0164 -0.00886,-0.0342 -0.00443,0.0177 -0.00886,0.0342 -0.00443,0.0158 -0.00949,0.0291 l -0.1759196,0.57142 -0.1936382,0 -0.284762,-0.922 0.1797165,0 q 0.027843,0 0.046195,0.0127 0.018984,0.0127 0.024679,0.0335 l 0.1265609,0.48093 q 0.0057,0.0228 0.011391,0.05 0.0057,0.0266 0.01139,0.0557 0.011391,-0.0595 0.027843,-0.10568 l 0.1493419,-0.48093 q 0.0057,-0.0177 0.024047,-0.0316 0.018984,-0.0146 0.045562,-0.0146 l 0.06328,0 q 0.027843,0 0.044929,0.0133 0.017086,0.0127 0.025945,0.0329 l 0.1480763,0.48093 q 0.016453,0.0443 0.027843,0.10062 0.00506,-0.0285 0.010125,-0.0532 0.0057,-0.0253 0.01139,-0.0475 l 0.1265609,-0.48093 q 0.00506,-0.0183 0.024047,-0.0323 0.018984,-0.0139 0.045562,-0.0139 l 0.168326,0 z" />
            <path
               inkscape:connector-curvature="0"
               id="path4470"
               style="font-style:normal;font-variant:normal;font-weight:900;font-stretch:normal;font-family:Lato;-inkscape-font-specification:'Lato Heavy';fill:#243645;fill-opacity:1"
               d="m -4.5413326,130.82359 -0.284762,0.922 -0.1936382,0 -0.1733884,-0.57142 q -0.00506,-0.0133 -0.00949,-0.0291 -0.00443,-0.0164 -0.00886,-0.0342 -0.00443,0.0177 -0.00886,0.0342 -0.00443,0.0158 -0.00949,0.0291 l -0.1759196,0.57142 -0.1936382,0 -0.284762,-0.922 0.1797165,0 q 0.027843,0 0.046195,0.0127 0.018984,0.0127 0.024679,0.0335 l 0.1265609,0.48093 q 0.0057,0.0228 0.011391,0.05 0.0057,0.0266 0.011391,0.0557 0.01139,-0.0595 0.027843,-0.10568 l 0.1493419,-0.48093 q 0.0057,-0.0177 0.024047,-0.0316 0.018984,-0.0146 0.045562,-0.0146 l 0.06328,0 q 0.027843,0 0.044929,0.0133 0.017086,0.0127 0.025945,0.0329 l 0.1480763,0.48093 q 0.016453,0.0443 0.027843,0.10062 0.00506,-0.0285 0.010125,-0.0532 0.0057,-0.0253 0.011391,-0.0475 l 0.1265609,-0.48093 q 0.00506,-0.0183 0.024047,-0.0323 0.018984,-0.0139 0.045562,-0.0139 l 0.168326,0 z" />
            <path
               inkscape:connector-curvature="0"
               id="path4472"
               style="font-style:normal;font-variant:normal;font-weight:900;font-stretch:normal;font-family:Lato;-inkscape-font-specification:'Lato Heavy';fill:#243645;fill-opacity:1"
               d="m -4.561424,131.64624 q 0,-0.0228 0.00823,-0.0424 0.00886,-0.0196 0.023414,-0.0342 0.015187,-0.0146 0.035437,-0.0228 0.02025,-0.009 0.044296,-0.009 0.023414,0 0.043664,0.009 0.02025,0.008 0.035437,0.0228 0.015187,0.0146 0.023414,0.0342 0.00886,0.0196 0.00886,0.0424 0,0.0228 -0.00886,0.043 -0.00823,0.0196 -0.023414,0.0342 -0.015187,0.0146 -0.035437,0.0228 -0.02025,0.008 -0.043664,0.008 -0.024047,0 -0.044296,-0.008 -0.02025,-0.008 -0.035437,-0.0228 -0.014555,-0.0146 -0.023414,-0.0342 -0.00823,-0.0203 -0.00823,-0.043 z" />
            <path
               inkscape:connector-curvature="0"
               id="path4474"
               style="font-style:normal;font-variant:normal;font-weight:900;font-stretch:normal;font-family:Lato;-inkscape-font-specification:'Lato Heavy';fill:#243645;fill-opacity:1"
               d="m -3.6548921,131.57473 0,0.17086 -0.5556023,0 0,-0.922 0.2138879,0 0,0.75114 0.3417144,0 z" />
            <path
               inkscape:connector-curvature="0"
               id="path4476"
               style="font-style:normal;font-variant:normal;font-weight:900;font-stretch:normal;font-family:Lato;-inkscape-font-specification:'Lato Heavy';fill:#243645;fill-opacity:1"
               d="m -3.1805857,131.57663 q 0.043031,0 0.076569,-0.0139 0.034171,-0.0146 0.057585,-0.0411 0.023414,-0.0266 0.035437,-0.0645 0.012656,-0.0386 0.012656,-0.0873 l 0,-0.54611 0.2138879,0 0,0.54611 q 0,0.0848 -0.027843,0.15567 -0.027211,0.0709 -0.078468,0.12214 -0.051257,0.0512 -0.1246625,0.0797 -0.073405,0.0285 -0.1651619,0.0285 -0.092389,0 -0.1657948,-0.0285 -0.073405,-0.0285 -0.1246625,-0.0797 -0.051257,-0.0513 -0.078468,-0.12214 -0.027211,-0.0709 -0.027211,-0.15567 l 0,-0.54611 0.2138879,0 0,0.54548 q 0,0.0487 0.012023,0.0873 0.012656,0.038 0.03607,0.0652 0.023414,0.0266 0.056952,0.0411 0.034171,0.0139 0.077202,0.0139 z" />
            <path
               inkscape:connector-curvature="0"
               id="path4478"
               style="font-style:normal;font-variant:normal;font-weight:900;font-stretch:normal;font-family:Lato;-inkscape-font-specification:'Lato Heavy';fill:#243645;fill-opacity:1"
               d="m -1.5820622,130.82359 0,0.922 -0.1885758,0 0,-0.53029 q 0,-0.0184 6.328e-4,-0.0399 0.00127,-0.0215 0.0038,-0.0437 l -0.2448954,0.47397 q -0.01139,0.0222 -0.031007,0.0335 -0.018984,0.0114 -0.043664,0.0114 l -0.029109,0 q -0.024679,0 -0.044296,-0.0114 -0.018984,-0.0114 -0.030375,-0.0335 l -0.2448953,-0.47524 q 0.0019,0.0228 0.00316,0.0449 0.00127,0.0215 0.00127,0.0399 l 0,0.53029 -0.1885757,0 0,-0.922 0.1632635,0 q 0.013922,0 0.024047,6.4e-4 0.010758,6.3e-4 0.018984,0.004 0.00823,0.003 0.014555,0.0101 0.00696,0.006 0.013289,0.0183 l 0.2373017,0.46764 q 0.012656,0.024 0.024047,0.05 0.012023,0.0259 0.022781,0.0532 0.010758,-0.0278 0.022148,-0.0544 0.012023,-0.0266 0.025312,-0.0506 l 0.2366689,-0.46574 q 0.00633,-0.012 0.012656,-0.0183 0.00696,-0.007 0.015187,-0.0101 0.00823,-0.003 0.018351,-0.004 0.010758,-6.4e-4 0.024679,-6.4e-4 l 0.1632636,0 z" />
            <path
               inkscape:connector-curvature="0"
               id="path4480"
               style="font-style:normal;font-variant:normal;font-weight:900;font-stretch:normal;font-family:Lato;-inkscape-font-specification:'Lato Heavy';fill:#243645;fill-opacity:1"
               d="m -1.1872712,130.98812 0,0.21516 0.28982448,0 0,0.1582 -0.28982448,0 0,0.21958 0.3784171,0 0,0.16453 -0.5935706,0 0,-0.922 0.5935706,0 0,0.16453 -0.3784171,0 z" />
            <path
               inkscape:connector-curvature="0"
               id="path4482"
               style="font-style:normal;font-variant:normal;font-weight:900;font-stretch:normal;font-family:Lato;-inkscape-font-specification:'Lato Heavy';fill:#243645;fill-opacity:1"
               d="m -0.46300702,130.98812 0,0.21516 0.28982444,0 0,0.1582 -0.28982444,0 0,0.21958 0.37841707,0 0,0.16453 -0.59357058,0 0,-0.922 0.59357058,0 0,0.16453 -0.37841707,0 z" />
            <path
               inkscape:connector-curvature="0"
               id="path4484"
               style="font-style:normal;font-variant:normal;font-weight:900;font-stretch:normal;font-family:Lato;-inkscape-font-specification:'Lato Heavy';fill:#243645;fill-opacity:1"
               d="m 0.3460534,131.25707 q 0.0436635,0 0.0740381,-0.0108 0.0310074,-0.0114 0.0506244,-0.031 0.0196169,-0.0196 0.0284762,-0.0456 0.008859,-0.0266 0.008859,-0.057 0,-0.0607 -0.0398667,-0.0949 -0.0392339,-0.0342 -0.12213126,-0.0342 l -0.0860614,0 0,0.27338 0.0860614,0 z m 0.4543536,0.48852 -0.19363816,0 q -0.0537884,0 -0.0772021,-0.0405 l -0.15313868,-0.26768 q -0.0107577,-0.0171 -0.0240466,-0.0247 -0.0132889,-0.008 -0.0379683,-0.008 l -0.0544212,0 0,0.34108 -0.21388791,0 0,-0.922 0.29994931,0 q 0.0999831,0 0.1702244,0.0209 0.0708741,0.0203 0.11517041,0.057 0.0449291,0.0367 0.0651789,0.0867 0.0202497,0.05 0.0202497,0.10885 0,0.0449 -0.0120233,0.0848 -0.0120233,0.0399 -0.035437,0.074 -0.0234138,0.0335 -0.058218,0.0601 -0.0341714,0.0266 -0.0791006,0.0437 0.0208826,0.0108 0.0392339,0.0272 0.0183513,0.0158 0.0329058,0.038 l 0.19616938,0.32083 z" />
            <path
               inkscape:connector-curvature="0"
               id="path4486"
               style="font-style:normal;font-variant:normal;font-weight:900;font-stretch:normal;font-family:Lato;-inkscape-font-specification:'Lato Heavy';fill:#243645;fill-opacity:1"
               d="m 0.82977318,131.64624 q 0,-0.0228 0.008226,-0.0424 0.008859,-0.0196 0.0234138,-0.0342 0.0151873,-0.0146 0.035437,-0.0228 0.0202498,-0.009 0.0442963,-0.009 0.0234138,0 0.0436635,0.009 0.0202497,0.008 0.035437,0.0228 0.015187,0.0146 0.023414,0.0342 0.00886,0.0196 0.00886,0.0424 0,0.0228 -0.00886,0.043 -0.00823,0.0196 -0.023414,0.0342 -0.015187,0.0146 -0.035437,0.0228 -0.0202497,0.008 -0.0436635,0.008 -0.0240466,0 -0.0442963,-0.008 -0.0202497,-0.008 -0.035437,-0.0228 -0.0145545,-0.0146 -0.0234138,-0.0342 -0.008226,-0.0203 -0.008226,-0.043 z" />
            <path
               inkscape:connector-curvature="0"
               id="path4488"
               style="font-style:normal;font-variant:normal;font-weight:900;font-stretch:normal;font-family:Lato;-inkscape-font-specification:'Lato Heavy';fill:#243645;fill-opacity:1"
               d="m 1.3958563,131.74559 -0.2151535,0 0,-0.922 0.2151535,0 0,0.922 z" />
            <path
               inkscape:connector-curvature="0"
               id="path4490"
               style="font-style:normal;font-variant:normal;font-weight:900;font-stretch:normal;font-family:Lato;-inkscape-font-specification:'Lato Heavy';fill:#243645;fill-opacity:1"
               d="m 2.4786443,131.28428 q 0,0.1 -0.034804,0.18604 -0.034172,0.0861 -0.096819,0.14997 -0.062648,0.0633 -0.1512403,0.0994 -0.08796,0.0361 -0.1955366,0.0361 -0.1075767,0 -0.1961693,-0.0361 -0.088593,-0.0361 -0.1518731,-0.0994 -0.062648,-0.0639 -0.097452,-0.14997 -0.034171,-0.0861 -0.034171,-0.18604 0,-0.1 0.034171,-0.18605 0.034804,-0.0861 0.097452,-0.14934 0.06328,-0.0633 0.1518731,-0.0994 0.088593,-0.0361 0.1961693,-0.0361 0.1075768,0 0.1955366,0.0367 0.088593,0.0361 0.1512403,0.0994 0.062648,0.0633 0.096819,0.14934 0.034804,0.0861 0.034804,0.18542 z m -0.2189503,0 q 0,-0.0684 -0.017719,-0.12277 -0.017718,-0.055 -0.051257,-0.093 -0.032906,-0.038 -0.080999,-0.0582 -0.048093,-0.0203 -0.1094752,-0.0203 -0.062015,0 -0.1107407,0.0203 -0.048093,0.0203 -0.081632,0.0582 -0.032906,0.038 -0.050624,0.093 -0.017718,0.0544 -0.017718,0.12277 0,0.069 0.017718,0.12403 0.017719,0.0544 0.050624,0.0924 0.033539,0.038 0.081632,0.0582 0.048726,0.0196 0.1107407,0.0196 0.061382,0 0.1094752,-0.0196 0.048093,-0.0203 0.080999,-0.0582 0.033539,-0.038 0.051257,-0.0924 0.017719,-0.0551 0.017719,-0.12403 z" />
          </g>
        </g>
      </g>
      <g
         id="g4578"
         transform="translate(-68.661153,-20.818594)">
        <g
           style="stroke-width:0.53594089"
           transform="matrix(1.8531134,0,0,1.8525626,-97.449775,-175.62837)"
           id="g4580" />
        <g
           transform="matrix(2.2146779,0,0,2.2140196,33.863641,-178.15728)"
           id="g4590"
           style="font-style:normal;font-variant:normal;font-weight:bold;font-stretch:normal;font-size:4.93888903px;line-height:6.61458302px;font-family:Lato;-inkscape-font-specification:'Lato Bold';letter-spacing:0px;word-spacing:0px;fill:#243645;fill-opacity:1;stroke:none;stroke-width:0.11865083px;stroke-linecap:butt;stroke-linejoin:miter;stroke-opacity:1"
           aria-label="LUMEER.IO">
          <g
             transform="matrix(0.99985012,0,0,1.0001499,2.0141003,-4.9547676)"
             style="font-style:normal;font-weight:normal;font-size:1.26560891px;line-height:125%;font-family:sans-serif;letter-spacing:0px;word-spacing:0px;fill:none;fill-opacity:1;stroke:#000000;stroke-width:0.15820111;stroke-linecap:butt;stroke-linejoin:miter;stroke-miterlimit:4;stroke-dasharray:none;stroke-opacity:1"
             id="g4592" />
        </g>
      </g>
      <g
         id="g4628"
         transform="translate(-83.874703,-17.615733)"
         style="fill:none;stroke:#000000;stroke-opacity:1">
        <g
           style="fill:none;stroke:#000000;stroke-width:0.18906803;stroke-miterlimit:4;stroke-dasharray:none;stroke-opacity:1"
           transform="matrix(1.8531134,0,0,1.8525626,-92.045129,-175.62837)"
           id="g4630" />
        <path
           style="opacity:0.98999999;fill:none;fill-opacity:0.10171509;fill-rule:nonzero;stroke:#ff0000;stroke-width:0.03503124;stroke-linecap:round;stroke-linejoin:round;stroke-miterlimit:4;stroke-dasharray:none;stroke-dashoffset:0;stroke-opacity:1"
           d="m 112.45708,59.779268 c -5.61535,0.13857 -12.725873,2.309287 -14.019531,8.585937 -8.361798,1.868651 -12.535045,12.066623 -9.890625,19.613281 2.845949,1.438866 0.734736,6.37827 1.826172,9.199219 0.730212,7.181965 6.492369,14.086815 11.663394,17.668895 -5.098827,0 -5.184157,7.8897 0.0417,7.8897 7.69283,0 19.36776,-0.10374 27.26215,-0.10374 5.16652,0 4.89047,-7.87673 0.14994,-7.87673 8.39189,-4.43283 11.08764,-14.23405 11.92187,-22.882812 3.57527,-3.007163 0.61674,-9.430145 -0.28711,-13.712891 -1.78582,-5.330412 -5.46552,-10.169074 -10.62305,-12.597656 0.92397,-4.180183 -5.7076,-4.515272 -8.83593,-5.38086 -3.18167,-1.059666 -6.73627,1.589448 -9.20899,-0.402343 z"
           id="rect4683"
           inkscape:connector-curvature="0"
           sodipodi:nodetypes="cccccsccccccc" />
      </g>
    </g>
  </g>
</svg>
