<?xml version="1.0" encoding="UTF-8" standalone="no"?>
<!-- Created with Inkscape (http://www.inkscape.org/) -->

<svg
   xmlns:dc="http://purl.org/dc/elements/1.1/"
   xmlns:cc="http://creativecommons.org/ns#"
   xmlns:rdf="http://www.w3.org/1999/02/22-rdf-syntax-ns#"
   xmlns:svg="http://www.w3.org/2000/svg"
   xmlns="http://www.w3.org/2000/svg"
   xmlns:sodipodi="http://sodipodi.sourceforge.net/DTD/sodipodi-0.dtd"
   xmlns:inkscape="http://www.inkscape.org/namespaces/inkscape"
   width="94.125832mm"
   height="45.595921mm"
   viewBox="0 0 80.006959 38.756535"
   version="1.1"
   id="svg2201"
   inkscape:version="0.92.2 5c3e80d, 2017-08-06"
   sodipodi:docname="lumeer-sticker4-vect-cut.svg"
   inkscape:export-filename="/Users/mvecera/work/Lumeer/lumeer.github.io/img/lumeer-sticker4.png"
   inkscape:export-xdpi="300.0896"
   inkscape:export-ydpi="300.0896">
  <defs
     id="defs2195" />
  <sodipodi:namedview
     id="base"
     pagecolor="#ffffff"
     bordercolor="#666666"
     borderopacity="1.0"
     inkscape:pageopacity="0.0"
     inkscape:pageshadow="2"
     inkscape:zoom="1.979899"
     inkscape:cx="174.0021"
     inkscape:cy="82.965466"
     inkscape:document-units="mm"
     inkscape:current-layer="g2826"
     showgrid="false"
     fit-margin-top="0"
     fit-margin-left="0"
     fit-margin-right="0"
     fit-margin-bottom="0"
     inkscape:window-width="1635"
     inkscape:window-height="1009"
     inkscape:window-x="48"
     inkscape:window-y="0"
     inkscape:window-maximized="0"
     inkscape:snap-grids="false"
     scale-x="0.9">
    <inkscape:grid
       type="xygrid"
       id="grid4694"
       originx="0.84418975"
       originy="-18.594584" />
  </sodipodi:namedview>
  <metadata
     id="metadata2198">
    <rdf:RDF>
      <cc:Work
         rdf:about="">
        <dc:format>image/svg+xml</dc:format>
        <dc:type
           rdf:resource="http://purl.org/dc/dcmitype/StillImage" />
        <dc:title></dc:title>
      </cc:Work>
    </rdf:RDF>
  </metadata>
  <g
     inkscape:label="Vrstva 1"
     inkscape:groupmode="layer"
     id="layer1"
     transform="translate(0.8636041,-42.455534)">
    <g
       id="g2826"
       transform="matrix(1.0070388,0,0,1.0070363,-4.5689443,-0.59157622)"
       style="stroke-width:0.99301165">
      <g
         id="g4556">
        <g
           id="g1459"
           transform="matrix(1.2176447,0,0,1.2172828,-62.786575,-100.75942)"
           style="stroke-width:0.53594089">
          <path
             style="fill:#243645;stroke-width:0.14180103"
             inkscape:connector-curvature="0"
             id="path4"
             d="m 69.63487,147.12592 c -6.297083,0 -11.43,-5.13291 -11.43,-11.43 0,-1.24354 0.211667,-2.43416 0.582084,-3.57187 0.635,-0.82021 1.640416,-1.56104 3.307291,-2.16959 2.354792,1.45521 4.683125,2.14313 6.958542,2.14313 1.481666,0 2.910416,-0.29104 4.339166,-0.84667 0.899584,-0.66146 1.825625,-0.9525 2.725209,-0.9525 1.984375,0 3.783541,1.40229 4.736041,3.30729 0.132292,0.66146 0.185209,1.37584 0.185209,2.09021 0.02646,6.29709 -5.106459,11.43 -11.403542,11.43 m -1.561042,-28.07229 c -3.598333,0.21167 -6.402916,1.32292 -6.693958,4.41854 -3.307292,0.79375 -5.900208,2.80459 -5.609167,8.89 0.291042,-0.29104 0.502709,-0.68791 1.005417,-0.68791 -0.132292,1.1377 -0.05292,2.2225 0.238125,3.0427 -0.02646,0.3175 -0.05292,0.66146 -0.05292,0.97896 0,6.985 5.662083,12.64709 12.647084,12.64709 6.985,0 12.673541,-5.66209 12.673541,-12.64709 0,-0.0265 0,-0.0265 0,-0.0529 0.47625,-0.84666 0.740833,-1.98437 0.423333,-3.09562 0.396875,0.39687 0.687917,1.00541 0.79375,1.69333 -0.396875,-8.20208 -3.889374,-12.30312 -9.604374,-13.2027 0.343958,-0.42334 0.978958,-0.635 1.799166,-0.635 0.370417,0 0.767292,0.0529 1.217084,0.13229 -2.010834,-0.92604 -3.757084,-1.34938 -5.23875,-1.34938 -1.534584,0 -2.831042,0.42334 -3.96875,1.13771 -0.423334,-0.44979 -0.211667,-0.9525 0.370416,-1.27"
             class="st1" />
          <path
             style="fill:#243645;stroke-width:0.14180103"
             inkscape:connector-curvature="0"
             id="path6"
             d="m 66.750912,134.87571 c -0.661459,0 -1.217083,0.55563 -1.217083,1.21709 0,0.66146 0.555624,1.21708 1.217083,1.21708 0.661458,0 1.217083,-0.55562 1.217083,-1.21708 0,-0.10584 -0.02646,-0.21167 -0.02646,-0.29104 H 67.06841 l 0.15875,-0.84667 c -0.15875,-0.0265 -0.3175,-0.0794 -0.47625,-0.0794"
             class="st1" />
          <path
             style="fill:#243645;stroke-width:0.14180103"
             inkscape:connector-curvature="0"
             id="path8"
             d="m 72.49237,134.87571 c -0.661458,0 -1.217083,0.55563 -1.217083,1.21709 0,0.66146 0.555625,1.21708 1.217083,1.21708 0.661458,0 1.217083,-0.55562 1.217083,-1.21708 0,-0.10584 0,-0.18521 -0.02646,-0.26459 h -0.820208 l 0.15875,-0.84666 c -0.158748,-0.0529 -0.343957,-0.10584 -0.529165,-0.10584"
             class="st1" />
          <path
             style="fill:#243645;stroke-width:0.14180103"
             inkscape:connector-curvature="0"
             id="path10"
             d="m 71.645703,139.87634 c -0.291041,-0.13229 -0.582083,-0.18521 -0.820208,-0.18521 -0.502708,0 -0.899583,0.23813 -1.190625,0.58208 -0.291042,-0.34395 -0.687917,-0.58208 -1.190625,-0.58208 -0.264583,0 -0.529167,0.0529 -0.820208,0.18521 -1.349375,0.58208 -1.719792,1.85208 -3.360208,2.16958 0,0 0.873125,0.87313 2.539999,0.87313 0.767292,0 1.719792,-0.18521 2.8575,-0.76729 1.11125,0.55562 2.06375,0.76729 2.8575,0.76729 1.666875,0 2.54,-0.87313 2.54,-0.87313 -1.693333,-0.3175 -2.06375,-1.56104 -3.413125,-2.16958 z"
             class="st1" />
        </g>
        <g
           style="fill:none;stroke:#ff0000;stroke-width:0.06525117;stroke-miterlimit:4;stroke-dasharray:none;stroke-opacity:1"
           transform="matrix(1.2176447,0,0,1.2172828,-24.904997,-126.01387)"
           id="g4753">
          <path
             style="fill:none;stroke:#ff0000;stroke-width:0.43140006;stroke-miterlimit:4;stroke-dasharray:none;stroke-opacity:1"
             d="M 88.169922,2.4570312 C 75.63204,3.1943537 63.971123,5.4222084 54.513672,10.927734 46.25302,15.736393 40.33311,23.648275 38.048828,33.625 27.875158,36.679858 17.962855,41.52708 10.900391,50.912109 2.791869,61.687435 -1.2199443,77.030685 -0.20507812,98.244141 c 0.13297471,2.783039 1.95730492,5.423199 4.51953122,6.519529 0.7841872,0.33581 1.6558858,0.25193 2.5058594,0.29688 0.2200596,2.90361 0.4193661,5.80978 1.1757813,8.50781 -0.1599532,1.9502 -0.3359376,4.11129 -0.3359376,6.36523 0,50.21613 40.8684748,91.07422 91.0996098,91.07422 40.083224,-3.06635 59.026184,-18.4754 78.023514,-41.11443 0,0 10.04558,-7.88516 16.30109,0.13551 6.56599,9.88485 7.76083,15.62541 18.65586,15.62541 h 199.24024 c 10.89504,0 19.66601,-8.77102 19.66601,-19.66602 V 47.464844 c 0,-10.895004 -8.77097,-19.666016 -19.66601,-19.666016 H 211.74023 c -10.89503,0 -13.79262,7.765488 -20.17109,18.150787 -8.22591,6.480494 -13.57695,-1.892974 -13.57695,-1.892974 C 169.6993,36.42123 162.28586,28.85584 152.51172,24.03125 c 0.57937,-0.699048 1.40687,-1.205091 1.67969,-2.078125 1.07808,-3.450093 -0.77052,-7.555457 -4.06836,-9.037109 -13.98491,-6.4334262 -26.52136,-9.5800785 -37.72461,-9.5800785 -6.5067,0 -12.22478,1.4784264 -17.603518,3.3828125 C 94.60475,6.3287372 94.885034,5.828205 94.626953,5.4785156 93.155807,3.4850216 90.643602,2.309818 88.169922,2.4570312 Z"
             transform="matrix(0.15123176,0,0,0.1512771,23.562204,138.29963)"
             id="path4767"
             inkscape:connector-curvature="0"
             sodipodi:nodetypes="cccsccccscccsssssscccccsccc" />
        </g>
        <g
           id="g4802"
           transform="matrix(1.2778516,0,0,1.2778516,-17.389119,-5.9438808)">
          <g
             transform="matrix(2.6364613,0,0,2.6356777,64.169153,-271.09882)"
             id="text2074"
             style="font-style:normal;font-variant:normal;font-weight:bold;font-stretch:normal;font-size:4.93888903px;line-height:6.61458302px;font-family:Lato;-inkscape-font-specification:'Lato Bold';letter-spacing:0px;word-spacing:0px;fill:#243645;fill-opacity:1;stroke:none;stroke-width:0.11865083px;stroke-linecap:butt;stroke-linejoin:miter;stroke-opacity:1"
             aria-label="LUMEER.IO">
            <g
               transform="matrix(0.99985012,0,0,1.0001499,2.0141003,-4.9547676)"
               style="font-style:normal;font-weight:normal;font-size:1.26560891px;line-height:125%;font-family:sans-serif;letter-spacing:0px;word-spacing:0px;fill:#243645;fill-opacity:1;stroke:none;stroke-width:1px;stroke-linecap:butt;stroke-linejoin:miter;stroke-opacity:1"
               id="text4461">
              <path
                 d="m -7.2356953,130.82359 -0.284762,0.922 h -0.1936381 l -0.1733884,-0.57142 q -0.00506,-0.0133 -0.00949,-0.0291 -0.00443,-0.0164 -0.00886,-0.0342 -0.00443,0.0177 -0.00886,0.0342 -0.00443,0.0158 -0.00949,0.0291 l -0.1759196,0.57142 h -0.1936382 l -0.284762,-0.922 h 0.1797165 q 0.027843,0 0.046195,0.0127 0.018984,0.0127 0.024679,0.0335 l 0.1265609,0.48093 q 0.0057,0.0228 0.01139,0.05 0.0057,0.0266 0.01139,0.0557 0.01139,-0.0595 0.027843,-0.10568 l 0.1493419,-0.48093 q 0.0057,-0.0177 0.024046,-0.0316 0.018984,-0.0146 0.045562,-0.0146 h 0.063281 q 0.027843,0 0.044929,0.0133 0.017086,0.0127 0.025945,0.0329 l 0.1480762,0.48093 q 0.016453,0.0443 0.027843,0.10062 0.00506,-0.0285 0.010125,-0.0532 0.0057,-0.0253 0.011391,-0.0475 l 0.1265609,-0.48093 q 0.00506,-0.0183 0.024046,-0.0323 0.018984,-0.0139 0.045562,-0.0139 h 0.1683259 z"
                 style="font-style:normal;font-variant:normal;font-weight:900;font-stretch:normal;font-family:Lato;-inkscape-font-specification:'Lato Heavy';fill:#243645;fill-opacity:1"
                 id="path4466"
                 inkscape:connector-curvature="0" />
              <path
                 d="m -5.8885139,130.82359 -0.284762,0.922 h -0.1936382 l -0.1733884,-0.57142 q -0.00506,-0.0133 -0.00949,-0.0291 -0.00443,-0.0164 -0.00886,-0.0342 -0.00443,0.0177 -0.00886,0.0342 -0.00443,0.0158 -0.00949,0.0291 l -0.1759196,0.57142 h -0.1936382 l -0.284762,-0.922 h 0.1797165 q 0.027843,0 0.046195,0.0127 0.018984,0.0127 0.024679,0.0335 l 0.1265609,0.48093 q 0.0057,0.0228 0.011391,0.05 0.0057,0.0266 0.01139,0.0557 0.011391,-0.0595 0.027843,-0.10568 l 0.1493419,-0.48093 q 0.0057,-0.0177 0.024047,-0.0316 0.018984,-0.0146 0.045562,-0.0146 h 0.06328 q 0.027843,0 0.044929,0.0133 0.017086,0.0127 0.025945,0.0329 l 0.1480763,0.48093 q 0.016453,0.0443 0.027843,0.10062 0.00506,-0.0285 0.010125,-0.0532 0.0057,-0.0253 0.01139,-0.0475 l 0.1265609,-0.48093 q 0.00506,-0.0183 0.024047,-0.0323 0.018984,-0.0139 0.045562,-0.0139 h 0.168326 z"
                 style="font-style:normal;font-variant:normal;font-weight:900;font-stretch:normal;font-family:Lato;-inkscape-font-specification:'Lato Heavy';fill:#243645;fill-opacity:1"
                 id="path4468"
                 inkscape:connector-curvature="0" />
              <path
                 d="m -4.5413326,130.82359 -0.284762,0.922 h -0.1936382 l -0.1733884,-0.57142 q -0.00506,-0.0133 -0.00949,-0.0291 -0.00443,-0.0164 -0.00886,-0.0342 -0.00443,0.0177 -0.00886,0.0342 -0.00443,0.0158 -0.00949,0.0291 l -0.1759196,0.57142 H -5.599379 l -0.284762,-0.922 h 0.1797165 q 0.027843,0 0.046195,0.0127 0.018984,0.0127 0.024679,0.0335 l 0.1265609,0.48093 q 0.0057,0.0228 0.011391,0.05 0.0057,0.0266 0.011391,0.0557 0.01139,-0.0595 0.027843,-0.10568 l 0.1493419,-0.48093 q 0.0057,-0.0177 0.024047,-0.0316 0.018984,-0.0146 0.045562,-0.0146 h 0.06328 q 0.027843,0 0.044929,0.0133 0.017086,0.0127 0.025945,0.0329 l 0.1480763,0.48093 q 0.016453,0.0443 0.027843,0.10062 0.00506,-0.0285 0.010125,-0.0532 0.0057,-0.0253 0.011391,-0.0475 l 0.1265609,-0.48093 q 0.00506,-0.0183 0.024047,-0.0323 0.018984,-0.0139 0.045562,-0.0139 h 0.168326 z"
                 style="font-style:normal;font-variant:normal;font-weight:900;font-stretch:normal;font-family:Lato;-inkscape-font-specification:'Lato Heavy';fill:#243645;fill-opacity:1"
                 id="path4470"
                 inkscape:connector-curvature="0" />
              <path
                 d="m -4.561424,131.64624 q 0,-0.0228 0.00823,-0.0424 0.00886,-0.0196 0.023414,-0.0342 0.015187,-0.0146 0.035437,-0.0228 0.02025,-0.009 0.044296,-0.009 0.023414,0 0.043664,0.009 0.02025,0.008 0.035437,0.0228 0.015187,0.0146 0.023414,0.0342 0.00886,0.0196 0.00886,0.0424 0,0.0228 -0.00886,0.043 -0.00823,0.0196 -0.023414,0.0342 -0.015187,0.0146 -0.035437,0.0228 -0.02025,0.008 -0.043664,0.008 -0.024047,0 -0.044296,-0.008 -0.02025,-0.008 -0.035437,-0.0228 -0.014555,-0.0146 -0.023414,-0.0342 -0.00823,-0.0203 -0.00823,-0.043 z"
                 style="font-style:normal;font-variant:normal;font-weight:900;font-stretch:normal;font-family:Lato;-inkscape-font-specification:'Lato Heavy';fill:#243645;fill-opacity:1"
                 id="path4472"
                 inkscape:connector-curvature="0" />
              <path
                 d="m -3.6548921,131.57473 v 0.17086 h -0.5556023 v -0.922 h 0.2138879 v 0.75114 z"
                 style="font-style:normal;font-variant:normal;font-weight:900;font-stretch:normal;font-family:Lato;-inkscape-font-specification:'Lato Heavy';fill:#243645;fill-opacity:1"
                 id="path4474"
                 inkscape:connector-curvature="0" />
              <path
                 d="m -3.1805857,131.57663 q 0.043031,0 0.076569,-0.0139 0.034171,-0.0146 0.057585,-0.0411 0.023414,-0.0266 0.035437,-0.0645 0.012656,-0.0386 0.012656,-0.0873 v -0.54611 h 0.2138879 v 0.54611 q 0,0.0848 -0.027843,0.15567 -0.027211,0.0709 -0.078468,0.12214 -0.051257,0.0512 -0.1246625,0.0797 -0.073405,0.0285 -0.1651619,0.0285 -0.092389,0 -0.1657948,-0.0285 -0.073405,-0.0285 -0.1246625,-0.0797 -0.051257,-0.0513 -0.078468,-0.12214 -0.027211,-0.0709 -0.027211,-0.15567 v -0.54611 h 0.2138879 v 0.54548 q 0,0.0487 0.012023,0.0873 0.012656,0.038 0.03607,0.0652 0.023414,0.0266 0.056952,0.0411 0.034171,0.0139 0.077202,0.0139 z"
                 style="font-style:normal;font-variant:normal;font-weight:900;font-stretch:normal;font-family:Lato;-inkscape-font-specification:'Lato Heavy';fill:#243645;fill-opacity:1"
                 id="path4476"
                 inkscape:connector-curvature="0" />
              <path
                 d="m -1.5820622,130.82359 v 0.922 H -1.770638 v -0.53029 q 0,-0.0184 6.328e-4,-0.0399 0.00127,-0.0215 0.0038,-0.0437 l -0.2448954,0.47397 q -0.01139,0.0222 -0.031007,0.0335 -0.018984,0.0114 -0.043664,0.0114 h -0.029109 q -0.024679,0 -0.044296,-0.0114 -0.018984,-0.0114 -0.030375,-0.0335 l -0.2448953,-0.47524 q 0.0019,0.0228 0.00316,0.0449 0.00127,0.0215 0.00127,0.0399 v 0.53029 h -0.1885757 v -0.922 h 0.1632635 q 0.013922,0 0.024047,6.4e-4 0.010758,6.3e-4 0.018984,0.004 0.00823,0.003 0.014555,0.0101 0.00696,0.006 0.013289,0.0183 l 0.2373017,0.46764 q 0.012656,0.024 0.024047,0.05 0.012023,0.0259 0.022781,0.0532 0.010758,-0.0278 0.022148,-0.0544 0.012023,-0.0266 0.025312,-0.0506 l 0.2366689,-0.46574 q 0.00633,-0.012 0.012656,-0.0183 0.00696,-0.007 0.015187,-0.0101 0.00823,-0.003 0.018351,-0.004 0.010758,-6.4e-4 0.024679,-6.4e-4 h 0.1632636 z"
                 style="font-style:normal;font-variant:normal;font-weight:900;font-stretch:normal;font-family:Lato;-inkscape-font-specification:'Lato Heavy';fill:#243645;fill-opacity:1"
                 id="path4478"
                 inkscape:connector-curvature="0" />
              <path
                 d="m -1.1872712,130.98812 v 0.21516 h 0.28982448 v 0.1582 H -1.1872712 v 0.21958 h 0.3784171 v 0.16453 h -0.5935706 v -0.922 h 0.5935706 v 0.16453 z"
                 style="font-style:normal;font-variant:normal;font-weight:900;font-stretch:normal;font-family:Lato;-inkscape-font-specification:'Lato Heavy';fill:#243645;fill-opacity:1"
                 id="path4480"
                 inkscape:connector-curvature="0" />
              <path
                 d="m -0.46300702,130.98812 v 0.21516 h 0.28982444 v 0.1582 h -0.28982444 v 0.21958 h 0.37841707 v 0.16453 h -0.59357058 v -0.922 h 0.59357058 v 0.16453 z"
                 style="font-style:normal;font-variant:normal;font-weight:900;font-stretch:normal;font-family:Lato;-inkscape-font-specification:'Lato Heavy';fill:#243645;fill-opacity:1"
                 id="path4482"
                 inkscape:connector-curvature="0" />
              <path
                 d="m 0.3460534,131.25707 q 0.0436635,0 0.0740381,-0.0108 0.0310074,-0.0114 0.0506244,-0.031 0.0196169,-0.0196 0.0284762,-0.0456 0.008859,-0.0266 0.008859,-0.057 0,-0.0607 -0.0398667,-0.0949 -0.0392339,-0.0342 -0.12213126,-0.0342 h -0.0860614 v 0.27338 h 0.0860614 z m 0.4543536,0.48852 H 0.60676884 q -0.0537884,0 -0.0772021,-0.0405 l -0.15313868,-0.26768 q -0.0107577,-0.0171 -0.0240466,-0.0247 -0.0132889,-0.008 -0.0379683,-0.008 h -0.0544212 v 0.34108 H 0.04610405 v -0.922 h 0.29994931 q 0.0999831,0 0.1702244,0.0209 0.0708741,0.0203 0.11517041,0.057 0.0449291,0.0367 0.0651789,0.0867 0.0202497,0.05 0.0202497,0.10885 0,0.0449 -0.0120233,0.0848 -0.0120233,0.0399 -0.035437,0.074 -0.0234138,0.0335 -0.058218,0.0601 -0.0341714,0.0266 -0.0791006,0.0437 0.0208826,0.0108 0.0392339,0.0272 0.0183513,0.0158 0.0329058,0.038 l 0.19616938,0.32083 z"
                 style="font-style:normal;font-variant:normal;font-weight:900;font-stretch:normal;font-family:Lato;-inkscape-font-specification:'Lato Heavy';fill:#243645;fill-opacity:1"
                 id="path4484"
                 inkscape:connector-curvature="0" />
              <path
                 d="m 0.82977318,131.64624 q 0,-0.0228 0.008226,-0.0424 0.008859,-0.0196 0.0234138,-0.0342 0.0151873,-0.0146 0.035437,-0.0228 0.0202498,-0.009 0.0442963,-0.009 0.0234138,0 0.0436635,0.009 0.0202497,0.008 0.035437,0.0228 0.015187,0.0146 0.023414,0.0342 0.00886,0.0196 0.00886,0.0424 0,0.0228 -0.00886,0.043 -0.00823,0.0196 -0.023414,0.0342 -0.015187,0.0146 -0.035437,0.0228 -0.0202497,0.008 -0.0436635,0.008 -0.0240466,0 -0.0442963,-0.008 -0.0202497,-0.008 -0.035437,-0.0228 -0.0145545,-0.0146 -0.0234138,-0.0342 -0.008226,-0.0203 -0.008226,-0.043 z"
                 style="font-style:normal;font-variant:normal;font-weight:900;font-stretch:normal;font-family:Lato;-inkscape-font-specification:'Lato Heavy';fill:#243645;fill-opacity:1"
                 id="path4486"
                 inkscape:connector-curvature="0" />
              <path
                 d="M 1.3958563,131.74559 H 1.1807028 v -0.922 h 0.2151535 z"
                 style="font-style:normal;font-variant:normal;font-weight:900;font-stretch:normal;font-family:Lato;-inkscape-font-specification:'Lato Heavy';fill:#243645;fill-opacity:1"
                 id="path4488"
                 inkscape:connector-curvature="0" />
              <path
                 d="m 2.4786443,131.28428 q 0,0.1 -0.034804,0.18604 -0.034172,0.0861 -0.096819,0.14997 -0.062648,0.0633 -0.1512403,0.0994 -0.08796,0.0361 -0.1955366,0.0361 -0.1075767,0 -0.1961693,-0.0361 -0.088593,-0.0361 -0.1518731,-0.0994 -0.062648,-0.0639 -0.097452,-0.14997 -0.034171,-0.0861 -0.034171,-0.18604 0,-0.1 0.034171,-0.18605 0.034804,-0.0861 0.097452,-0.14934 0.06328,-0.0633 0.1518731,-0.0994 0.088593,-0.0361 0.1961693,-0.0361 0.1075768,0 0.1955366,0.0367 0.088593,0.0361 0.1512403,0.0994 0.062648,0.0633 0.096819,0.14934 0.034804,0.0861 0.034804,0.18542 z m -0.2189503,0 q 0,-0.0684 -0.017719,-0.12277 -0.017718,-0.055 -0.051257,-0.093 -0.032906,-0.038 -0.080999,-0.0582 -0.048093,-0.0203 -0.1094752,-0.0203 -0.062015,0 -0.1107407,0.0203 -0.048093,0.0203 -0.081632,0.0582 -0.032906,0.038 -0.050624,0.093 -0.017718,0.0544 -0.017718,0.12277 0,0.069 0.017718,0.12403 0.017719,0.0544 0.050624,0.0924 0.033539,0.038 0.081632,0.0582 0.048726,0.0196 0.1107407,0.0196 0.061382,0 0.1094752,-0.0196 0.048093,-0.0203 0.080999,-0.0582 0.033539,-0.038 0.051257,-0.0924 0.017719,-0.0551 0.017719,-0.12403 z"
                 style="font-style:normal;font-variant:normal;font-weight:900;font-stretch:normal;font-family:Lato;-inkscape-font-specification:'Lato Heavy';fill:#243645;fill-opacity:1"
                 id="path4490"
                 inkscape:connector-curvature="0" />
            </g>
          </g>
          <g
             id="g1263"
             transform="translate(-0.00499407)">
            <g
               id="text1102"
               style="font-style:normal;font-variant:normal;font-weight:bold;font-stretch:normal;font-size:4.63424587px;line-height:1.5;font-family:Lato;-inkscape-font-specification:'Lato Bold';letter-spacing:0px;word-spacing:0px;fill:#243645;fill-opacity:1;stroke:none;stroke-width:0.20416948"
               transform="scale(0.9999988,1.0000012)"
               aria-label="AJ ODTIAĽ">
              <path
                 id="path1179"
                 style="font-style:normal;font-variant:normal;font-weight:800;font-stretch:normal;font-size:5.40662003px;font-family:Lato;-inkscape-font-specification:'Lato Ultra-Bold';letter-spacing:0.2288159px;fill:#243645;fill-opacity:1;stroke-width:0.20416948"
                 d="m 49.421889,45.742059 -0.42442,-1.20027 q -0.03785,-0.09462 -0.0811,-0.221671 -0.04055,-0.127056 -0.0784,-0.275738 -0.03785,0.151385 -0.0811,0.281144 -0.04055,0.127056 -0.0784,0.221672 l -0.421717,1.194863 z m 1.362468,1.489524 h -0.629871 q -0.105429,0 -0.173012,-0.04866 -0.06488,-0.05136 -0.09732,-0.129759 L 49.61923,46.304347 h -1.562514 l -0.264924,0.748817 q -0.02703,0.06758 -0.09462,0.124352 -0.06758,0.05407 -0.170308,0.05407 h -0.635278 l 1.532777,-3.922503 h 0.829916 z"
                 inkscape:connector-curvature="0" />
              <path
                 id="path1181"
                 style="font-style:normal;font-variant:normal;font-weight:800;font-stretch:normal;font-size:5.40662003px;font-family:Lato;-inkscape-font-specification:'Lato Ultra-Bold';letter-spacing:0.2288159px;fill:#243645;fill-opacity:1;stroke-width:0.20416948"
                 d="m 52.922639,45.825861 q 0,0.329804 -0.0811,0.597432 -0.0811,0.264924 -0.246001,0.456859 -0.162199,0.189232 -0.4082,0.291958 -0.246001,0.102726 -0.573102,0.102726 -0.148682,0 -0.29466,-0.01892 -0.143276,-0.01622 -0.302771,-0.05407 0.01081,-0.118945 0.02163,-0.237891 0.01081,-0.118946 0.02163,-0.237891 0.0081,-0.06488 0.05136,-0.102726 0.04325,-0.04055 0.124352,-0.04055 0.04596,0 0.116242,0.01622 0.07299,0.01622 0.178419,0.01622 0.145978,0 0.254111,-0.04055 0.108132,-0.04055 0.181122,-0.132462 0.07299,-0.09191 0.108132,-0.237891 0.03785,-0.148682 0.03785,-0.35954 V 43.30908 h 0.810993 z"
                 inkscape:connector-curvature="0" />
              <path
                 id="path1183"
                 style="font-style:normal;font-variant:normal;font-weight:800;font-stretch:normal;font-size:5.40662003px;font-family:Lato;-inkscape-font-specification:'Lato Ultra-Bold';letter-spacing:0.2288159px;fill:#243645;fill-opacity:1;stroke-width:0.20416948"
                 d="m 59.240625,45.26898 q 0,0.429826 -0.145979,0.797476 -0.143275,0.36765 -0.408199,0.635278 -0.262221,0.267628 -0.632575,0.421716 -0.370353,0.151386 -0.821806,0.151386 -0.451453,0 -0.821806,-0.151386 -0.370354,-0.154088 -0.635278,-0.421716 -0.264925,-0.267628 -0.410903,-0.635278 -0.143276,-0.36765 -0.143276,-0.797476 0,-0.429827 0.143276,-0.794774 0.145978,-0.36765 0.410903,-0.635277 0.264924,-0.267628 0.635278,-0.419013 0.370353,-0.154089 0.821806,-0.154089 0.451453,0 0.821806,0.154089 0.370354,0.151385 0.632575,0.421716 0.264924,0.267628 0.408199,0.635278 0.145979,0.364947 0.145979,0.79207 z m -0.829916,0 q 0,-0.308178 -0.0811,-0.551476 -0.0811,-0.246001 -0.235188,-0.416309 -0.151386,-0.173012 -0.370354,-0.262221 -0.216265,-0.09191 -0.492002,-0.09191 -0.275738,0 -0.494706,0.09191 -0.218968,0.08921 -0.373057,0.262221 -0.151385,0.170308 -0.232484,0.416309 -0.0811,0.243298 -0.0811,0.551476 0,0.31088 0.0811,0.556881 0.0811,0.243298 0.232484,0.413607 0.154089,0.170308 0.373057,0.262221 0.218968,0.08921 0.494706,0.08921 0.275737,0 0.492002,-0.08921 0.218968,-0.09191 0.370354,-0.262221 0.154088,-0.170309 0.235188,-0.413607 0.0811,-0.246001 0.0811,-0.556881 z"
                 inkscape:connector-curvature="0" />
              <path
                 id="path1185"
                 style="font-style:normal;font-variant:normal;font-weight:800;font-stretch:normal;font-size:5.40662003px;font-family:Lato;-inkscape-font-specification:'Lato Ultra-Bold';letter-spacing:0.2288159px;fill:#243645;fill-opacity:1;stroke-width:0.20416948"
                 d="m 63.578725,45.26898 q 0,0.429826 -0.145978,0.792069 -0.143276,0.359541 -0.4082,0.619058 -0.262221,0.259518 -0.632575,0.405497 -0.370353,0.145979 -0.821806,0.145979 H 60.061719 V 43.30908 h 1.508447 q 0.451453,0 0.821806,0.145979 0.370354,0.145978 0.632575,0.408199 0.264924,0.259518 0.4082,0.619058 0.145978,0.359541 0.145978,0.786664 z m -0.832619,0 q 0,-0.308178 -0.0811,-0.554179 -0.0811,-0.246001 -0.232485,-0.41631 -0.151385,-0.170308 -0.370354,-0.262221 -0.216264,-0.09191 -0.492002,-0.09191 h -0.692047 v 2.651947 h 0.692047 q 0.275738,0 0.492002,-0.08921 0.218969,-0.09191 0.370354,-0.262222 0.151385,-0.173011 0.232485,-0.419013 0.0811,-0.246001 0.0811,-0.556881 z"
                 inkscape:connector-curvature="0" />
              <path
                 id="path1187"
                 style="font-style:normal;font-variant:normal;font-weight:800;font-stretch:normal;font-size:5.40662003px;font-family:Lato;-inkscape-font-specification:'Lato Ultra-Bold';letter-spacing:0.2288159px;fill:#243645;fill-opacity:1;stroke-width:0.20416948"
                 d="m 67.069,43.963281 h -1.146203 v 3.268302 H 65.109101 V 43.963281 H 63.962897 V 43.30908 H 67.069 Z"
                 inkscape:connector-curvature="0" />
              <path
                 id="path1189"
                 style="font-style:normal;font-variant:normal;font-weight:800;font-stretch:normal;font-size:5.40662003px;font-family:Lato;-inkscape-font-specification:'Lato Ultra-Bold';letter-spacing:0.2288159px;fill:#243645;fill-opacity:1;stroke-width:0.20416948"
                 d="m 68.600895,47.231583 h -0.8164 V 43.30908 h 0.8164 z"
                 inkscape:connector-curvature="0" />
              <path
                 id="path1191"
                 style="font-style:normal;font-variant:normal;font-weight:800;font-stretch:normal;font-size:5.40662003px;font-family:Lato;-inkscape-font-specification:'Lato Ultra-Bold';letter-spacing:0.2288159px;fill:#243645;fill-opacity:1;stroke-width:0.20416948"
                 d="m 71.720818,45.742059 -0.424419,-1.20027 q -0.03785,-0.09462 -0.0811,-0.221671 -0.04055,-0.127056 -0.0784,-0.275738 -0.03785,0.151385 -0.0811,0.281144 -0.04055,0.127056 -0.0784,0.221672 l -0.421716,1.194863 z m 1.362468,1.489524 h -0.629871 q -0.105429,0 -0.173012,-0.04866 -0.06488,-0.05136 -0.09732,-0.129759 L 71.91816,46.304347 h -1.562513 l -0.264925,0.748817 q -0.02703,0.06758 -0.09462,0.124352 -0.06758,0.05407 -0.170308,0.05407 H 69.19052 l 1.532777,-3.922503 h 0.829916 z"
                 inkscape:connector-curvature="0" />
              <path
                 id="path1193"
                 style="font-style:normal;font-variant:normal;font-weight:800;font-stretch:normal;font-size:5.40662003px;font-family:Lato;-inkscape-font-specification:'Lato Ultra-Bold';letter-spacing:0.2288159px;fill:#243645;fill-opacity:1;stroke-width:0.20416948"
                 d="m 75.997418,46.571975 v 0.659608 h -2.32755 V 43.30908 h 0.810993 v 3.262895 z m -0.475783,-3.376434 q 0.0811,0 0.100022,0.03785 0.01892,0.03514 0.01892,0.06758 0,0.02433 -0.01081,0.06488 -0.0081,0.04055 -0.03785,0.121649 -0.02974,0.0784 -0.0838,0.208155 -0.05136,0.127056 -0.140572,0.324397 -0.04055,0.0811 -0.102725,0.105429 -0.05947,0.02433 -0.154089,0.02433 h -0.264924 l 0.173011,-0.954268 z"
                 inkscape:connector-curvature="0" />
            </g>
            <g
               id="text1118"
               style="font-style:normal;font-variant:normal;font-weight:bold;font-stretch:normal;font-size:4.63424587px;line-height:1.5;font-family:Lato;-inkscape-font-specification:'Lato Bold';letter-spacing:0px;word-spacing:0px;fill:#243645;fill-opacity:1;stroke:none;stroke-width:0.20416948"
               transform="scale(0.9999988,1.0000012)"
               aria-label="VIETE RIADIŤ">
              <path
                 id="path1196"
                 style="font-style:normal;font-variant:normal;font-weight:500;font-stretch:normal;font-size:4.63424587px;font-family:Lato;-inkscape-font-specification:'Lato Medium';letter-spacing:0px;fill:#243645;fill-opacity:1;stroke-width:0.20416948"
                 d="m 50.276983,48.924881 -1.3532,3.327389 h -0.44257 l -1.3532,-3.327389 h 0.393911 q 0.06488,0 0.10427,0.03244 0.04171,0.03244 0.06256,0.08342 l 0.899043,2.261512 q 0.03244,0.08342 0.06256,0.183053 0.03244,0.09964 0.05793,0.208541 0.02317,-0.108905 0.05098,-0.208541 0.02781,-0.09964 0.06025,-0.183053 l 0.896726,-2.261512 q 0.01622,-0.04634 0.05793,-0.0811 0.04403,-0.03476 0.106588,-0.03476 z"
                 inkscape:connector-curvature="0" />
              <path
                 id="path1198"
                 style="font-style:normal;font-variant:normal;font-weight:500;font-stretch:normal;font-size:4.63424587px;font-family:Lato;-inkscape-font-specification:'Lato Medium';letter-spacing:0px;fill:#243645;fill-opacity:1;stroke-width:0.20416948"
                 d="M 51.188264,52.25227 H 50.6924 v -3.327389 h 0.495864 z"
                 inkscape:connector-curvature="0" />
              <path
                 id="path1200"
                 style="font-style:normal;font-variant:normal;font-weight:500;font-stretch:normal;font-size:4.63424587px;font-family:Lato;-inkscape-font-specification:'Lato Medium';letter-spacing:0px;fill:#243645;fill-opacity:1;stroke-width:0.20416948"
                 d="m 54.069389,51.851407 -0.0023,0.400863 H 52.00485 v -3.327389 h 2.062239 v 0.400862 h -1.566375 v 1.054291 h 1.260515 v 0.38696 h -1.260515 v 1.084413 z"
                 inkscape:connector-curvature="0" />
              <path
                 id="path1202"
                 style="font-style:normal;font-variant:normal;font-weight:500;font-stretch:normal;font-size:4.63424587px;font-family:Lato;-inkscape-font-specification:'Lato Medium';letter-spacing:0px;fill:#243645;fill-opacity:1;stroke-width:0.20416948"
                 d="M 56.943418,49.337329 H 55.88681 v 2.914941 h -0.49123 v -2.914941 h -1.061242 v -0.412448 h 2.60908 z"
                 inkscape:connector-curvature="0" />
              <path
                 id="path1204"
                 style="font-style:normal;font-variant:normal;font-weight:500;font-stretch:normal;font-size:4.63424587px;font-family:Lato;-inkscape-font-specification:'Lato Medium';letter-spacing:0px;fill:#243645;fill-opacity:1;stroke-width:0.20416948"
                 d="m 59.491095,51.851407 -0.0023,0.400863 h -2.062239 v -3.327389 h 2.062239 v 0.400862 H 57.92242 v 1.054291 h 1.260515 v 0.38696 H 57.92242 v 1.084413 z"
                 inkscape:connector-curvature="0" />
              <path
                 id="path1206"
                 style="font-style:normal;font-variant:normal;font-weight:500;font-stretch:normal;font-size:4.63424587px;font-family:Lato;-inkscape-font-specification:'Lato Medium';letter-spacing:0px;fill:#243645;fill-opacity:1;stroke-width:0.20416948"
                 d="m 62.207342,50.52833 q 0.190004,0 0.333666,-0.04634 0.145978,-0.04634 0.243298,-0.129759 0.09732,-0.08573 0.145978,-0.20159 0.04866,-0.118173 0.04866,-0.259518 0,-0.287323 -0.190004,-0.433302 -0.187687,-0.145978 -0.565378,-0.145978 H 61.75782 v 1.216489 z m 1.552472,1.72394 h -0.440253 q -0.132076,0 -0.192321,-0.104271 l -0.822579,-1.153927 q -0.03939,-0.05793 -0.08573,-0.0811 -0.04634,-0.02549 -0.139028,-0.02549 h -0.32208 v 1.364786 h -0.493547 v -3.327389 h 0.959289 q 0.32208,0 0.553792,0.0672 0.23403,0.06488 0.384643,0.187687 0.15293,0.12049 0.224761,0.291957 0.07415,0.171467 0.07415,0.384643 0,0.173784 -0.05329,0.326714 -0.05329,0.15293 -0.157565,0.275738 -0.101953,0.12049 -0.250249,0.208541 -0.148296,0.08805 -0.335983,0.134393 0.09269,0.05561 0.159882,0.155247 z"
                 inkscape:connector-curvature="0" />
              <path
                 id="path1208"
                 style="font-style:normal;font-variant:normal;font-weight:500;font-stretch:normal;font-size:4.63424587px;font-family:Lato;-inkscape-font-specification:'Lato Medium';letter-spacing:0px;fill:#243645;fill-opacity:1;stroke-width:0.20416948"
                 d="m 64.683695,52.25227 h -0.495864 v -3.327389 h 0.495864 z"
                 inkscape:connector-curvature="0" />
              <path
                 id="path1210"
                 style="font-style:normal;font-variant:normal;font-weight:500;font-stretch:normal;font-size:4.63424587px;font-family:Lato;-inkscape-font-specification:'Lato Medium';letter-spacing:0px;fill:#243645;fill-opacity:1;stroke-width:0.20416948"
                 d="m 67.268229,51.012609 -0.493547,-1.290638 q -0.05329,-0.132076 -0.106588,-0.333665 -0.02549,0.09964 -0.05329,0.18537 -0.02549,0.08573 -0.05098,0.15293 l -0.49123,1.286003 z m 0.975509,1.239661 H 67.86373 q -0.06488,0 -0.106588,-0.03244 -0.04171,-0.03244 -0.06024,-0.08342 l -0.294275,-0.771602 h -1.466738 l -0.294275,0.771602 q -0.01622,0.04402 -0.06025,0.0811 -0.04403,0.03476 -0.106588,0.03476 h -0.380008 l 1.325394,-3.327389 h 0.498182 z"
                 inkscape:connector-curvature="0" />
              <path
                 id="path1212"
                 style="font-style:normal;font-variant:normal;font-weight:500;font-stretch:normal;font-size:4.63424587px;font-family:Lato;-inkscape-font-specification:'Lato Medium';letter-spacing:0px;fill:#243645;fill-opacity:1;stroke-width:0.20416948"
                 d="m 71.562509,50.588575 q 0,0.373057 -0.12049,0.678917 -0.118173,0.305861 -0.335983,0.525987 -0.21781,0.21781 -0.521353,0.3383 -0.303543,0.120491 -0.674282,0.120491 h -1.251247 v -3.327389 h 1.251247 q 0.370739,0 0.674282,0.120491 0.303543,0.12049 0.521353,0.340617 0.21781,0.217809 0.335983,0.525987 0.12049,0.30586 0.12049,0.676599 z m -0.505133,0 q 0,-0.296591 -0.0811,-0.530621 -0.0811,-0.236346 -0.231712,-0.398545 Q 70.596268,49.494893 70.383093,49.40916 70.172234,49.32343 69.9104,49.32343 h -0.755382 v 2.530299 H 69.9104 q 0.261834,0 0.472693,-0.08573 0.213175,-0.08573 0.361471,-0.247932 0.150613,-0.164516 0.231712,-0.398545 0.0811,-0.23403 0.0811,-0.532939 z"
                 inkscape:connector-curvature="0" />
              <path
                 id="path1214"
                 style="font-style:normal;font-variant:normal;font-weight:500;font-stretch:normal;font-size:4.63424587px;font-family:Lato;-inkscape-font-specification:'Lato Medium';letter-spacing:0px;fill:#243645;fill-opacity:1;stroke-width:0.20416948"
                 d="m 72.675959,52.25227 h -0.495864 v -3.327389 h 0.495864 z"
                 inkscape:connector-curvature="0" />
              <path
                 id="path1216"
                 style="font-style:normal;font-variant:normal;font-weight:500;font-stretch:normal;font-size:4.63424587px;font-family:Lato;-inkscape-font-specification:'Lato Medium';letter-spacing:0px;fill:#243645;fill-opacity:1;stroke-width:0.20416948"
                 d="m 75.760992,49.337329 h -1.056608 v 2.914941 h -0.491231 v -2.914941 h -1.061242 v -0.412448 h 2.609081 z m -0.532939,-1.299906 -0.553792,0.632575 h -0.421716 l -0.553793,-0.632575 h 0.329032 q 0.03012,0 0.06951,0.007 0.04171,0.007 0.07415,0.05098 l 0.264152,0.329032 q 0.007,0.01159 0.0139,0.02317 0.007,0.0093 0.0139,0.01854 0.007,-0.0093 0.0139,-0.01854 0.007,-0.01159 0.0139,-0.02317 l 0.264152,-0.326715 q 0.03244,-0.04634 0.07183,-0.05329 0.04171,-0.007 0.07183,-0.007 z"
                 inkscape:connector-curvature="0" />
            </g>
            <g
               id="text1126"
               style="font-style:normal;font-variant:normal;font-weight:bold;font-stretch:normal;font-size:4.63424587px;line-height:1.5;font-family:Lato;-inkscape-font-specification:'Lato Bold';letter-spacing:0px;word-spacing:0px;fill:#243645;fill-opacity:1;stroke:none;stroke-width:0.20416948"
               transform="scale(0.9999988,1.0000012)"
               aria-label="SVOJ TÍM">
              <path
                 id="path1219"
                 style="font-size:6.17899418px;letter-spacing:0.22012667px;fill:#243645;fill-opacity:1;stroke-width:0.20416948"
                 d="m 49.928835,55.109533 q -0.03707,0.06488 -0.08033,0.09577 -0.04016,0.02781 -0.101953,0.02781 -0.06488,0 -0.142117,-0.04634 -0.07415,-0.04943 -0.179191,-0.108132 -0.105043,-0.0587 -0.24716,-0.105043 -0.139027,-0.04943 -0.330576,-0.04943 -0.173012,0 -0.302771,0.04325 -0.129759,0.04016 -0.219354,0.114312 -0.08651,0.07415 -0.129759,0.17919 -0.04325,0.101954 -0.04325,0.225534 0,0.157564 0.08651,0.262607 0.08959,0.105043 0.234802,0.179191 0.145206,0.07415 0.330576,0.132848 0.18537,0.0587 0.380008,0.12667 0.194638,0.06488 0.380008,0.154474 0.18537,0.08651 0.330576,0.222444 0.145207,0.132849 0.231713,0.327487 0.0896,0.194638 0.0896,0.472693 0,0.302771 -0.105043,0.568467 -0.101953,0.262608 -0.30277,0.460335 -0.197728,0.194639 -0.485052,0.30895 -0.287323,0.111222 -0.658062,0.111222 -0.213176,0 -0.420172,-0.04325 -0.206996,-0.04016 -0.398545,-0.117401 -0.188459,-0.07724 -0.355292,-0.18537 -0.166833,-0.108132 -0.296592,-0.24098 L 47.4387,57.82829 q 0.0309,-0.04325 0.08033,-0.07106 0.04943,-0.0309 0.105043,-0.0309 0.07724,0 0.166833,0.06488 0.0896,0.06179 0.213175,0.139027 0.12358,0.07724 0.287323,0.142117 0.166833,0.06179 0.398546,0.06179 0.355292,0 0.54993,-0.166833 0.194638,-0.169922 0.194638,-0.485051 0,-0.176102 -0.08959,-0.287323 -0.08651,-0.111222 -0.231712,-0.18537 -0.145207,-0.07724 -0.330577,-0.129759 -0.185369,-0.05252 -0.376918,-0.114312 -0.191549,-0.06179 -0.376919,-0.148295 -0.18537,-0.08651 -0.330576,-0.225534 -0.145206,-0.139027 -0.234802,-0.346023 -0.08651,-0.210086 -0.08651,-0.515946 0,-0.244071 0.09577,-0.475783 0.09886,-0.231712 0.284233,-0.410903 0.18537,-0.179191 0.457246,-0.287323 0.271876,-0.108133 0.624078,-0.108133 0.395456,0 0.729122,0.12358 0.333665,0.12358 0.568467,0.346024 z"
                 inkscape:connector-curvature="0" />
              <path
                 id="path1221"
                 style="font-size:6.17899418px;letter-spacing:0.22012667px;fill:#243645;fill-opacity:1;stroke-width:0.20416948"
                 d="m 54.904663,54.296995 -1.804266,4.467413 h -0.750748 l -1.804266,-4.467413 h 0.667331 q 0.108132,0 0.176101,0.05252 0.06797,0.05252 0.101954,0.135938 l 1.053518,2.724936 q 0.05252,0.132848 0.09886,0.293502 0.04943,0.157565 0.09268,0.330576 0.03707,-0.173011 0.08033,-0.330576 0.04325,-0.160654 0.09577,-0.293502 l 1.04734,-2.724936 q 0.02472,-0.07106 0.09577,-0.129759 0.07415,-0.0587 0.179191,-0.0587 z"
                 inkscape:connector-curvature="0" />
              <path
                 id="path1223"
                 style="font-size:6.17899418px;letter-spacing:0.22012667px;fill:#243645;fill-opacity:1;stroke-width:0.20416948"
                 d="m 59.708831,56.530702 q 0,0.49123 -0.163743,0.911401 -0.160654,0.417082 -0.457246,0.722943 -0.296592,0.30586 -0.713674,0.478872 -0.417082,0.169922 -0.926849,0.169922 -0.506677,0 -0.92376,-0.169922 -0.417082,-0.173012 -0.716763,-0.478872 -0.296592,-0.305861 -0.460335,-0.722943 -0.163743,-0.420171 -0.163743,-0.911401 0,-0.49123 0.163743,-0.908312 0.163743,-0.420172 0.460335,-0.726032 0.299681,-0.30586 0.716763,-0.475783 0.417083,-0.173012 0.92376,-0.173012 0.339845,0 0.639526,0.08033 0.299681,0.07724 0.54993,0.222444 0.25025,0.142117 0.447978,0.349113 0.200817,0.203907 0.339844,0.457246 0.139028,0.253339 0.210086,0.54993 0.07415,0.296592 0.07415,0.624079 z m -0.849612,0 q 0,-0.36765 -0.09886,-0.658063 -0.09886,-0.293502 -0.281144,-0.497409 -0.18228,-0.203907 -0.444887,-0.312039 -0.259518,-0.108133 -0.587005,-0.108133 -0.327487,0 -0.590094,0.108133 -0.259518,0.108132 -0.444887,0.312039 -0.182281,0.203907 -0.281145,0.497409 -0.09886,0.290413 -0.09886,0.658063 0,0.36765 0.09886,0.661152 0.09886,0.290413 0.281145,0.49432 0.185369,0.200817 0.444887,0.308949 0.262607,0.108133 0.590094,0.108133 0.327487,0 0.587005,-0.108133 0.262607,-0.108132 0.444887,-0.308949 0.18228,-0.203907 0.281144,-0.49432 0.09886,-0.293502 0.09886,-0.661152 z"
                 inkscape:connector-curvature="0" />
              <path
                 id="path1225"
                 style="font-size:6.17899418px;letter-spacing:0.22012667px;fill:#243645;fill-opacity:1;stroke-width:0.20416948"
                 d="m 62.174057,57.176407 q 0,0.376918 -0.09268,0.679689 -0.09269,0.302771 -0.278055,0.515946 -0.18228,0.213175 -0.457246,0.327487 -0.274965,0.114311 -0.639525,0.114311 -0.166833,0 -0.327487,-0.02163 -0.160654,-0.01854 -0.336755,-0.06179 0.0093,-0.12358 0.02163,-0.24716 0.01236,-0.12358 0.02163,-0.24716 0.0093,-0.06797 0.05252,-0.108132 0.04634,-0.04325 0.129759,-0.04325 0.05252,0 0.135938,0.02163 0.08651,0.02163 0.216265,0.02163 0.176101,0 0.312039,-0.04943 0.135938,-0.05252 0.225533,-0.163744 0.09269,-0.111221 0.139027,-0.287323 0.04634,-0.179191 0.04634,-0.432529 v -2.897949 h 0.831075 z"
                 inkscape:connector-curvature="0" />
              <path
                 id="path1227"
                 style="font-size:6.17899418px;letter-spacing:0.22012667px;fill:#243645;fill-opacity:1;stroke-width:0.20416948"
                 d="m 67.990808,54.979774 h -1.347021 v 3.784634 h -0.831075 v -3.784634 h -1.34702 v -0.682779 h 3.525116 z"
                 inkscape:connector-curvature="0" />
              <path
                 id="path1229"
                 style="font-size:6.17899418px;letter-spacing:0.22012667px;fill:#243645;fill-opacity:1;stroke-width:0.20416948"
                 d="m 69.629688,58.764408 h -0.834164 v -4.467413 h 0.834164 z m 0.892865,-5.749554 -1.000997,0.883596 q -0.06179,0.05561 -0.117401,0.06797 -0.05561,0.01236 -0.142117,0.01236 h -0.55302 l 0.645705,-0.837254 q 0.03089,-0.04325 0.06179,-0.06797 0.0309,-0.02781 0.06797,-0.04016 0.03707,-0.01236 0.08033,-0.01545 0.04634,-0.0031 0.108132,-0.0031 z"
                 inkscape:connector-curvature="0" />
              <path
                 id="path1231"
                 style="font-size:6.17899418px;letter-spacing:0.22012667px;fill:#243645;fill-opacity:1;stroke-width:0.20416948"
                 d="m 75.694371,54.296995 v 4.467413 H 74.96216 v -2.88559 q 0,-0.173012 0.01854,-0.373829 l -1.35011,2.536477 q -0.09577,0.18228 -0.293502,0.18228 h -0.117401 q -0.197728,0 -0.293502,-0.18228 L 71.560624,55.49572 q 0.0093,0.101954 0.01545,0.200818 0.0062,0.09886 0.0062,0.18228 v 2.88559 h -0.73221 v -4.467413 h 0.627168 q 0.05561,0 0.09577,0.0031 0.04016,0.0031 0.07106,0.01545 0.03399,0.01236 0.0587,0.04016 0.02781,0.02781 0.05252,0.07415 l 1.337753,2.480866 q 0.05252,0.09886 0.09577,0.203907 0.04634,0.105043 0.0896,0.216264 0.04325,-0.114311 0.0896,-0.219354 0.04634,-0.108132 0.09886,-0.206996 l 1.319215,-2.474687 q 0.02472,-0.04634 0.05252,-0.07415 0.02781,-0.02781 0.0587,-0.04016 0.03398,-0.01236 0.07415,-0.01545 0.04016,-0.0031 0.09577,-0.0031 z"
                 inkscape:connector-curvature="0" />
            </g>
          </g>
        </g>
      </g>
      <g
         id="g4578"
         transform="translate(-68.661153,-20.818594)">
        <g
           style="stroke-width:0.53594089"
           transform="matrix(1.8531134,0,0,1.8525626,-97.449775,-175.62837)"
           id="g4580" />
        <g
           transform="matrix(2.2146779,0,0,2.2140196,33.863641,-178.15728)"
           id="g4590"
           style="font-style:normal;font-variant:normal;font-weight:bold;font-stretch:normal;font-size:4.93888903px;line-height:6.61458302px;font-family:Lato;-inkscape-font-specification:'Lato Bold';letter-spacing:0px;word-spacing:0px;fill:#243645;fill-opacity:1;stroke:none;stroke-width:0.11865083px;stroke-linecap:butt;stroke-linejoin:miter;stroke-opacity:1"
           aria-label="LUMEER.IO">
          <g
             transform="matrix(0.99985012,0,0,1.0001499,2.0141003,-4.9547676)"
             style="font-style:normal;font-weight:normal;font-size:1.26560891px;line-height:125%;font-family:sans-serif;letter-spacing:0px;word-spacing:0px;fill:none;fill-opacity:1;stroke:#000000;stroke-width:0.15820111;stroke-linecap:butt;stroke-linejoin:miter;stroke-miterlimit:4;stroke-dasharray:none;stroke-opacity:1"
             id="g4592" />
        </g>
      </g>
      <g
         id="g4628"
         transform="translate(-83.874703,-17.615733)"
         style="fill:none;stroke:#000000;stroke-opacity:1">
        <g
           style="fill:none;stroke:#000000;stroke-width:0.18906803;stroke-miterlimit:4;stroke-dasharray:none;stroke-opacity:1"
           transform="matrix(1.8531134,0,0,1.8525626,-92.045129,-175.62837)"
           id="g4630" />
      </g>
    </g>
  </g>
</svg>
