<?xml version="1.0" encoding="UTF-8" standalone="no"?>
<!-- Created with Inkscape (http://www.inkscape.org/) -->

<svg
   xmlns:dc="http://purl.org/dc/elements/1.1/"
   xmlns:cc="http://creativecommons.org/ns#"
   xmlns:rdf="http://www.w3.org/1999/02/22-rdf-syntax-ns#"
   xmlns:svg="http://www.w3.org/2000/svg"
   xmlns="http://www.w3.org/2000/svg"
   xmlns:sodipodi="http://sodipodi.sourceforge.net/DTD/sodipodi-0.dtd"
   xmlns:inkscape="http://www.inkscape.org/namespaces/inkscape"
   width="54.336414mm"
   height="57.214912mm"
   viewBox="0 0 54.336413 57.214911"
   version="1.1"
   id="svg854"
   inkscape:version="0.92.2 2405546, 2018-03-11"
   sodipodi:docname="lumeer-sticker-cut.svg">
  <defs
     id="defs848" />
  <sodipodi:namedview
     id="base"
     pagecolor="#ffffff"
     bordercolor="#666666"
     borderopacity="1.0"
     inkscape:pageopacity="0.0"
     inkscape:pageshadow="2"
     inkscape:zoom="1.979899"
     inkscape:cx="128.28983"
     inkscape:cy="99.654421"
     inkscape:document-units="mm"
     inkscape:current-layer="layer1"
     showgrid="false"
     inkscape:snap-global="false"
     fit-margin-top="-2.7755576e-17"
     fit-margin-left="0"
     fit-margin-right="0"
     fit-margin-bottom="0"
     inkscape:window-width="1920"
     inkscape:window-height="1030"
     inkscape:window-x="1920"
     inkscape:window-y="0"
     inkscape:window-maximized="1" />
  <metadata
     id="metadata851">
    <rdf:RDF>
      <cc:Work
         rdf:about="">
        <dc:format>image/svg+xml</dc:format>
        <dc:type
           rdf:resource="http://purl.org/dc/dcmitype/StillImage" />
        <dc:title></dc:title>
      </cc:Work>
    </rdf:RDF>
  </metadata>
  <g
     inkscape:label="Vrstva 1"
     inkscape:groupmode="layer"
     id="layer1"
     transform="translate(-55.083984,-91.79405)">
    <g
       id="g2789"
       transform="matrix(1.871599,0,0,1.8714463,-48.055474,-129.80898)"
       style="stroke-width:0.53432429">
      <path
         sodipodi:nodetypes="cccccccsscccccccsccc"
         inkscape:connector-curvature="0"
         id="path1429"
         d="m 68.038087,118.44098 c -1.852742,0.10899 -3.540051,0.44156 -4.861328,1.21094 -1.198657,0.69798 -1.994765,1.86233 -2.267578,3.34961 -1.604552,0.43293 -3.114539,1.15637 -4.173828,2.56445 -1.134024,1.50743 -1.72795,3.69347 -1.578125,6.82617 0.0234,0.48912 0.582174,0.7551 0.976563,0.46485 0.01065,0.67539 0.08488,1.31398 0.263672,1.88281 -0.02489,0.30265 -0.05078,0.63035 -0.05078,0.95703 0,7.31663 5.945093,13.26172 13.261719,13.26172 7.303918,0 13.260567,-5.9241 13.28125,-13.22461 0.14607,-0.28736 0.239307,-0.61527 0.332031,-0.94531 0.419594,0.213 0.912906,-0.10613 0.890626,-0.57617 -0.2024,-4.18291 -1.195898,-7.38863 -2.931641,-9.68164 -1.222127,-1.6145 -2.827826,-2.72848 -4.701172,-3.42578 0.114791,0.0168 0.195809,0.0128 0.322265,0.0352 0.703359,0.11838 1.008541,-0.85623 0.363282,-1.16015 -2.068818,-0.95275 -3.89555,-1.40625 -5.494141,-1.40625 -1.113608,0 -2.089503,0.27179 -3.005859,0.64648 0.114778,-0.40628 -0.205517,-0.80441 -0.626954,-0.7793 z"
         style="fill:none;stroke:#ff0000;stroke-width:0.05343243;stroke-miterlimit:4;stroke-dasharray:none;stroke-opacity:1" />
      <g
         id="g1459"
         style="stroke-width:0.53432429">
        <path
           class="st1"
           d="m 69.63487,147.12592 c -6.297083,0 -11.43,-5.13291 -11.43,-11.43 0,-1.24354 0.211667,-2.43416 0.582084,-3.57187 0.635,-0.82021 1.640416,-1.56104 3.307291,-2.16959 2.354792,1.45521 4.683125,2.14313 6.958542,2.14313 1.481666,0 2.910416,-0.29104 4.339166,-0.84667 0.899584,-0.66146 1.825625,-0.9525 2.725209,-0.9525 1.984375,0 3.783541,1.40229 4.736041,3.30729 0.132292,0.66146 0.185209,1.37584 0.185209,2.09021 0.02646,6.29709 -5.106459,11.43 -11.403542,11.43 m -1.561042,-28.07229 c -3.598333,0.21167 -6.402916,1.32292 -6.693958,4.41854 -3.307292,0.79375 -5.900208,2.80459 -5.609167,8.89 0.291042,-0.29104 0.502709,-0.68791 1.005417,-0.68791 -0.132292,1.1377 -0.05292,2.2225 0.238125,3.0427 -0.02646,0.3175 -0.05292,0.66146 -0.05292,0.97896 0,6.985 5.662083,12.64709 12.647084,12.64709 6.985,0 12.673541,-5.66209 12.673541,-12.64709 0,-0.0265 0,-0.0265 0,-0.0529 0.47625,-0.84666 0.740833,-1.98437 0.423333,-3.09562 0.396875,0.39687 0.687917,1.00541 0.79375,1.69333 -0.396875,-8.20208 -3.889374,-12.30312 -9.604374,-13.2027 0.343958,-0.42334 0.978958,-0.635 1.799166,-0.635 0.370417,0 0.767292,0.0529 1.217084,0.13229 -2.010834,-0.92604 -3.757084,-1.34938 -5.23875,-1.34938 -1.534584,0 -2.831042,0.42334 -3.96875,1.13771 -0.423334,-0.44979 -0.211667,-0.9525 0.370416,-1.27"
           id="path4"
           inkscape:connector-curvature="0"
           style="fill:#243645;stroke-width:0.14137329" />
        <path
           class="st1"
           d="m 66.750912,134.87571 c -0.661459,0 -1.217083,0.55563 -1.217083,1.21709 0,0.66146 0.555624,1.21708 1.217083,1.21708 0.661458,0 1.217083,-0.55562 1.217083,-1.21708 0,-0.10584 -0.02646,-0.21167 -0.02646,-0.29104 H 67.06841 l 0.15875,-0.84667 c -0.15875,-0.0265 -0.3175,-0.0794 -0.47625,-0.0794"
           id="path6"
           inkscape:connector-curvature="0"
           style="fill:#243645;stroke-width:0.14137329" />
        <path
           class="st1"
           d="m 72.49237,134.87571 c -0.661458,0 -1.217083,0.55563 -1.217083,1.21709 0,0.66146 0.555625,1.21708 1.217083,1.21708 0.661458,0 1.217083,-0.55562 1.217083,-1.21708 0,-0.10584 0,-0.18521 -0.02646,-0.26459 h -0.820208 l 0.15875,-0.84666 c -0.158748,-0.0529 -0.343957,-0.10584 -0.529165,-0.10584"
           id="path8"
           inkscape:connector-curvature="0"
           style="fill:#243645;stroke-width:0.14137329" />
        <path
           class="st1"
           d="m 71.645703,139.87634 c -0.291041,-0.13229 -0.582083,-0.18521 -0.820208,-0.18521 -0.502708,0 -0.899583,0.23813 -1.190625,0.58208 -0.291042,-0.34395 -0.687917,-0.58208 -1.190625,-0.58208 -0.264583,0 -0.529167,0.0529 -0.820208,0.18521 -1.349375,0.58208 -1.719792,1.85208 -3.360208,2.16958 0,0 0.873125,0.87313 2.539999,0.87313 0.767292,0 1.719792,-0.18521 2.8575,-0.76729 1.11125,0.55562 2.06375,0.76729 2.8575,0.76729 1.666875,0 2.54,-0.87313 2.54,-0.87313 -1.693333,-0.3175 -2.06375,-1.56104 -3.413125,-2.16958 z"
           id="path10"
           inkscape:connector-curvature="0"
           style="fill:#243645;stroke-width:0.14137329" />
      </g>
    </g>
  </g>
</svg>
