<?xml version="1.0" encoding="UTF-8" standalone="no"?>
<!-- Created with Inkscape (http://www.inkscape.org/) -->

<svg
   xmlns:dc="http://purl.org/dc/elements/1.1/"
   xmlns:cc="http://creativecommons.org/ns#"
   xmlns:rdf="http://www.w3.org/1999/02/22-rdf-syntax-ns#"
   xmlns:svg="http://www.w3.org/2000/svg"
   xmlns="http://www.w3.org/2000/svg"
   xmlns:xlink="http://www.w3.org/1999/xlink"
   xmlns:sodipodi="http://sodipodi.sourceforge.net/DTD/sodipodi-0.dtd"
   xmlns:inkscape="http://www.inkscape.org/namespaces/inkscape"
   width="58.629887mm"
   height="60.891521mm"
   viewBox="0 0 207.74369 215.75734"
   id="svg6432"
   version="1.1"
   inkscape:version="0.91 r13725"
   sodipodi:docname="lumeer-sticker.svg">
  <defs
     id="defs6434" />
  <sodipodi:namedview
     id="base"
     pagecolor="#ffffff"
     bordercolor="#666666"
     borderopacity="1.0"
     inkscape:pageopacity="0.0"
     inkscape:pageshadow="2"
     inkscape:zoom="1.4"
     inkscape:cx="115.27159"
     inkscape:cy="32.199431"
     inkscape:document-units="px"
     inkscape:current-layer="layer1"
     showgrid="false"
     showguides="false"
     fit-margin-top="0"
     fit-margin-left="0"
     fit-margin-right="0"
     fit-margin-bottom="0"
     inkscape:window-width="1405"
     inkscape:window-height="855"
     inkscape:window-x="45"
     inkscape:window-y="23"
     inkscape:window-maximized="0" />
  <metadata
     id="metadata6437">
    <rdf:RDF>
      <cc:Work
         rdf:about="">
        <dc:format>image/svg+xml</dc:format>
        <dc:type
           rdf:resource="http://purl.org/dc/dcmitype/StillImage" />
        <dc:title></dc:title>
      </cc:Work>
    </rdf:RDF>
  </metadata>
  <g
     inkscape:label="Vrstva 1"
     inkscape:groupmode="layer"
     id="layer1"
     transform="translate(-162.62,-67.776116)">
    <g
       id="g4582"
       transform="matrix(0.55603357,0,0,0.55603357,-253.86322,-530.95844)"
       inkscape:export-xdpi="599.987"
       inkscape:export-ydpi="599.987">
      <circle
         inkscape:export-ydpi="150"
         inkscape:export-xdpi="150"
         inkscape:export-filename="/Users/mvecera/lumeer-intos.png"
         style="fill:#ffffff;fill-opacity:1;stroke:#000000;stroke-width:10;stroke-linecap:round;stroke-linejoin:round;stroke-miterlimit:4;stroke-dasharray:none;stroke-opacity:1"
         id="circle4584"
         cx="952.04724"
         cy="1294.3262"
         r="153.03812" />
      <g
         style="fill:#000000;fill-opacity:1;stroke:#000000;stroke-opacity:1"
         inkscape:export-ydpi="150"
         inkscape:export-xdpi="150"
         inkscape:export-filename="/Users/mvecera/lumeer-intos.png"
         id="g4586"
         transform="translate(667.90439,835.42857)">
        <ellipse
           ry="10.714286"
           rx="8.5714283"
           cy="452.36221"
           cx="257.14285"
           id="ellipse4588"
           style="fill:#000000;fill-opacity:1;stroke:#000000;stroke-width:10;stroke-linecap:round;stroke-linejoin:round;stroke-miterlimit:4;stroke-dasharray:none;stroke-opacity:1" />
        <ellipse
           style="fill:#000000;fill-opacity:1;stroke:#000000;stroke-width:10;stroke-linecap:round;stroke-linejoin:round;stroke-miterlimit:4;stroke-dasharray:none;stroke-opacity:1"
           id="ellipse4590"
           cx="311.14285"
           cy="452.36221"
           rx="8.5714283"
           ry="10.714286" />
      </g>
      <g
         inkscape:export-ydpi="150"
         inkscape:export-xdpi="150"
         inkscape:export-filename="/Users/mvecera/lumeer-intos.png"
         id="g4608"
         transform="translate(840.94456,1039)"
         style="fill:#ffffff;fill-opacity:1;stroke:#ffffff;stroke-opacity:1" />
      <g
         style="fill:#000000;fill-opacity:1;stroke:#000000;stroke-opacity:1"
         inkscape:export-ydpi="150"
         inkscape:export-xdpi="150"
         inkscape:export-filename="/Users/mvecera/lumeer-intos.png"
         transform="translate(291.40748,949.42857)"
         id="g4640">
        <path
           sodipodi:nodetypes="ccsc"
           inkscape:connector-curvature="0"
           id="path4642"
           d="m 670.0884,411.65834 100.15284,0 c 0,0 -72.71177,-47.42772 -100.07477,-26.41431 -6.98322,5.36276 -0.0781,26.41431 -0.0781,26.41431 z"
           style="fill:#000000;fill-opacity:1;fill-rule:evenodd;stroke:#000000;stroke-width:5.41782808;stroke-linecap:round;stroke-linejoin:round;stroke-miterlimit:4;stroke-dasharray:none;stroke-opacity:1" />
        <path
           style="fill:#000000;fill-opacity:1;fill-rule:evenodd;stroke:#000000;stroke-width:5.41782808;stroke-linecap:round;stroke-linejoin:round;stroke-miterlimit:4;stroke-dasharray:none;stroke-opacity:1"
           d="m 651.19112,411.65834 -100.15283,0 c 0,0 72.71177,-47.42772 100.07476,-26.41431 6.98322,5.36276 0.0781,26.41431 0.0781,26.41431 z"
           id="path4644"
           inkscape:connector-curvature="0"
           sodipodi:nodetypes="ccsc" />
      </g>
      <g
         style="fill:#000000;fill-opacity:1;stroke:#000000;stroke-opacity:1"
         inkscape:export-ydpi="150"
         inkscape:export-xdpi="150"
         inkscape:export-filename="/Users/mvecera/lumeer-intos.png"
         id="g4646"
         transform="translate(0,420)">
        <path
           sodipodi:nodetypes="cscsc"
           inkscape:connector-curvature="0"
           id="path4648"
           d="m 939.44187,721.03217 c 0,0 -71.72083,16.16244 -105.05587,54.54824 -33.33503,38.38579 -68.69037,34.34518 -68.69037,34.34518 0,0 62.85416,14.60976 105.42352,3.8673 45.4061,-11.45831 76.40394,-33.16172 68.32272,-92.76072 z"
           style="fill:#000000;fill-opacity:1;fill-rule:evenodd;stroke:#000000;stroke-width:1px;stroke-linecap:butt;stroke-linejoin:miter;stroke-opacity:1" />
        <path
           inkscape:connector-curvature="0"
           id="path4650"
           d="m 914.18806,737.19461 c 0,0 28.28427,-6.06092 39.39595,-29.29442 11.11167,-23.23351 9.09137,-34.34519 9.09137,-34.34519 0,0 32.32488,43.43656 5.05076,65.65991 -27.27412,22.22336 -53.53808,-2.0203 -53.53808,-2.0203 z"
           style="fill:#000000;fill-opacity:1;fill-rule:evenodd;stroke:#000000;stroke-width:1px;stroke-linecap:butt;stroke-linejoin:miter;stroke-opacity:1" />
        <path
           sodipodi:nodetypes="cscsc"
           inkscape:connector-curvature="0"
           id="path4652"
           d="m 958.63477,731.13369 c 0,0 10.10152,-11.11167 39.39595,-15.15228 29.29438,-4.04061 73.74118,14.14213 73.74118,14.14213 0,0 -37.3756,12.12184 -67.6802,26.26397 -30.30465,14.14214 -45.45693,-25.25382 -45.45693,-25.25382 z"
           style="fill:#000000;fill-opacity:1;fill-rule:evenodd;stroke:#000000;stroke-width:1px;stroke-linecap:butt;stroke-linejoin:miter;stroke-opacity:1" />
        <path
           sodipodi:nodetypes="cscscc"
           inkscape:connector-curvature="0"
           id="path4654"
           d="m 943.48248,729.11339 c 0,0 38.3858,11.11168 91.92392,16.16244 53.538,5.05076 69.7005,4.04061 69.7005,4.04061 0,0 -26.264,38.87601 -84.8528,47.96738 -58.58887,9.09137 -105.05589,-33.82524 -105.05589,-33.82524 z"
           style="fill:#000000;fill-opacity:1;fill-rule:evenodd;stroke:#000000;stroke-width:1px;stroke-linecap:butt;stroke-linejoin:miter;stroke-opacity:1" />
      </g>
    </g>
    <g
       inkscape:export-ydpi="599.987"
       inkscape:export-xdpi="599.987"
       transform="matrix(0.55603357,0,0,0.55603357,-33.605787,-533.1475)"
       id="g7038">
      <g
         style="fill:#ffffff;fill-opacity:1;stroke:#ffffff;stroke-opacity:1"
         transform="translate(840.94456,1039)"
         id="g7048"
         inkscape:export-filename="/Users/mvecera/lumeer-intos.png"
         inkscape:export-xdpi="150"
         inkscape:export-ydpi="150" />
      <g
         transform="translate(0,420)"
         id="g7056"
         inkscape:export-filename="/Users/mvecera/lumeer-intos.png"
         inkscape:export-xdpi="150"
         inkscape:export-ydpi="150"
         style="fill:#000000;fill-opacity:1;stroke:#000000;stroke-opacity:1" />
      <path
         sodipodi:type="inkscape:offset"
         inkscape:radius="16.362591"
         inkscape:original="M 1349.8184 1170.6973 C 1349.8184 1170.6973 1351.8402 1181.8095 1340.7285 1205.043 C 1338.111 1210.5159 1334.5354 1215.0223 1330.6055 1218.7324 A 153.03812 153.03812 0 0 0 1326.6895 1219.0156 C 1326.6535 1218.733 1326.6244 1218.4587 1326.5859 1218.1738 C 1326.5859 1218.1738 1324.1883 1218.7203 1320.1641 1219.8086 A 153.03812 153.03812 0 0 0 1231.6895 1262.6289 C 1228.0325 1265.8067 1224.6156 1269.1688 1221.5293 1272.7227 C 1188.1942 1311.1085 1152.8398 1307.0684 1152.8398 1307.0684 C 1152.8398 1307.0684 1172.6337 1311.669 1197.5273 1313.8086 A 153.03812 153.03812 0 0 0 1186.1523 1371.4688 A 153.03812 153.03812 0 0 0 1339.1914 1524.5059 A 153.03812 153.03812 0 0 0 1492.2285 1371.4688 A 153.03812 153.03812 0 0 0 1458.7637 1275.9883 C 1481.5945 1262.1965 1492.25 1246.459 1492.25 1246.459 C 1492.25 1246.459 1476.0868 1247.4687 1422.5488 1242.418 C 1421.9693 1242.363 1421.411 1242.3014 1420.8438 1242.2422 A 153.03812 153.03812 0 0 0 1419.6055 1241.4824 C 1440.8062 1233.1559 1458.916 1227.2656 1458.916 1227.2656 C 1458.916 1227.2656 1414.4682 1209.0824 1385.1738 1213.123 C 1377.2459 1214.2165 1370.7674 1215.8327 1365.4707 1217.6016 C 1368.4938 1195.7992 1349.8184 1170.6973 1349.8184 1170.6973 z "
         xlink:href="#path7082"
         style="fill:none;fill-opacity:1;stroke:#ff0000;stroke-width:1.5;stroke-linecap:round;stroke-linejoin:round;stroke-miterlimit:4;stroke-dasharray:none;stroke-opacity:1"
         id="path7084"
         d="m 1350.3242,1154.3477 a 16.364227,16.364227 0 0 0 -16.6035,19.2793 c 0,0 0.1643,-0.9285 -0.4492,3.0175 -0.6136,3.9461 -2.3536,10.9856 -7.3047,21.3379 -0.71,1.4844 -1.5871,2.8345 -2.5234,4.1406 a 16.364227,16.364227 0 0 0 -0.4942,0.098 c 0,0 -2.7832,0.6701 -6.2871,1.5977 -36.0964,4.8286 -70.5019,21.5985 -96.4531,47.1523 -3.882,3.4252 -7.6015,7.0718 -11.0332,11.0234 -14.6035,16.8161 -28.7237,23.5728 -39.0684,26.586 -10.3447,3.0131 -15.4101,2.2324 -15.4101,2.2324 a 16.364227,16.364227 0 0 0 -5.5625,32.1934 c 0,0 10.9397,2.4949 26.6367,4.7363 -3.8267,14.2456 -5.9594,28.9501 -5.9824,43.7012 a 16.364227,16.364227 0 0 0 0,0.025 c 3e-4,44.3489 18.2575,88.4258 49.6171,119.7851 31.3597,31.3593 75.4362,49.6155 119.7852,49.6152 44.3486,-3e-4 88.424,-18.2579 119.7832,-49.6171 31.3592,-31.3593 49.6169,-75.4346 49.6172,-119.7832 a 16.364227,16.364227 0 0 0 0,-0 c -0.01,-32.2406 -9.64,-64.3329 -27.002,-91.4824 16.0046,-12.5704 24.209,-24.3496 24.209,-24.3496 a 16.364227,16.364227 0 0 0 -14.5683,-25.5039 c 0,0 -4.5396,0.2188 -16.166,-0.2617 a 16.364227,16.364227 0 0 0 -9.9532,-17.7461 c 0,0 -11.9916,-4.9108 -27.7636,-9.2246 -15.7721,-4.3138 -35.3623,-8.6097 -54.4102,-5.9824 -0.9298,0.1282 -1.6748,0.3312 -2.5742,0.4726 -1.6882,-6.9459 -4.2932,-13.1665 -6.8145,-18.4551 -5.0036,-10.4957 -10.6035,-18.0019 -10.6035,-18.0019 a 16.364227,16.364227 0 0 0 -12.6211,-6.582 z"
         transform="translate(-782.85714,-72.857143)" />
    </g>
  </g>
</svg>
