<?xml version="1.0" encoding="UTF-8" standalone="no"?>
<!-- Created with Inkscape (http://www.inkscape.org/) -->

<svg
   xmlns:dc="http://purl.org/dc/elements/1.1/"
   xmlns:cc="http://creativecommons.org/ns#"
   xmlns:rdf="http://www.w3.org/1999/02/22-rdf-syntax-ns#"
   xmlns:svg="http://www.w3.org/2000/svg"
   xmlns="http://www.w3.org/2000/svg"
   xmlns:sodipodi="http://sodipodi.sourceforge.net/DTD/sodipodi-0.dtd"
   xmlns:inkscape="http://www.inkscape.org/namespaces/inkscape"
   width="80.1008mm"
   height="38.850399mm"
   viewBox="0 0 80.100798 38.850399"
   version="1.1"
   id="svg2201"
   inkscape:version="0.92.2 5c3e80d, 2017-08-06"
   sodipodi:docname="lumeer-sticker4-text-cut.svg"
   inkscape:export-filename="/Users/mvecera/work/Lumeer/lumeer.github.io/img/lumeer-sticker3.png"
   inkscape:export-xdpi="858"
   inkscape:export-ydpi="858">
  <defs
     id="defs2195" />
  <sodipodi:namedview
     id="base"
     pagecolor="#ffffff"
     bordercolor="#666666"
     borderopacity="1.0"
     inkscape:pageopacity="0.0"
     inkscape:pageshadow="2"
     inkscape:zoom="5.6"
     inkscape:cx="211.74352"
     inkscape:cy="75.189311"
     inkscape:document-units="mm"
     inkscape:current-layer="g4802"
     showgrid="false"
     fit-margin-top="0"
     fit-margin-left="0"
     fit-margin-right="0"
     fit-margin-bottom="0"
     inkscape:window-width="1635"
     inkscape:window-height="1009"
     inkscape:window-x="48"
     inkscape:window-y="0"
     inkscape:window-maximized="0"
     inkscape:snap-grids="false">
    <inkscape:grid
       type="xygrid"
       id="grid4694"
       originx="1.045295"
       originy="-28.673659" />
  </sodipodi:namedview>
  <metadata
     id="metadata2198">
    <rdf:RDF>
      <cc:Work
         rdf:about="">
        <dc:format>image/svg+xml</dc:format>
        <dc:type
           rdf:resource="http://purl.org/dc/dcmitype/StillImage" />
        <dc:title></dc:title>
      </cc:Work>
    </rdf:RDF>
  </metadata>
  <g
     inkscape:label="Vrstva 1"
     inkscape:groupmode="layer"
     id="layer1"
     transform="translate(0.91052172,-42.408595)">
    <g
       id="g2826"
       transform="matrix(1.0070388,0,0,1.0070363,-4.5689443,-0.59157622)"
       style="stroke-width:0.99301165">
      <g
         id="g4556">
        <g
           id="g1459"
           transform="matrix(1.2176447,0,0,1.2172828,-62.786575,-100.75942)"
           style="stroke-width:0.53594089">
          <path
             style="fill:#243645;stroke-width:0.14180103"
             inkscape:connector-curvature="0"
             id="path4"
             d="m 69.63487,147.12592 c -6.297083,0 -11.43,-5.13291 -11.43,-11.43 0,-1.24354 0.211667,-2.43416 0.582084,-3.57187 0.635,-0.82021 1.640416,-1.56104 3.307291,-2.16959 2.354792,1.45521 4.683125,2.14313 6.958542,2.14313 1.481666,0 2.910416,-0.29104 4.339166,-0.84667 0.899584,-0.66146 1.825625,-0.9525 2.725209,-0.9525 1.984375,0 3.783541,1.40229 4.736041,3.30729 0.132292,0.66146 0.185209,1.37584 0.185209,2.09021 0.02646,6.29709 -5.106459,11.43 -11.403542,11.43 m -1.561042,-28.07229 c -3.598333,0.21167 -6.402916,1.32292 -6.693958,4.41854 -3.307292,0.79375 -5.900208,2.80459 -5.609167,8.89 0.291042,-0.29104 0.502709,-0.68791 1.005417,-0.68791 -0.132292,1.1377 -0.05292,2.2225 0.238125,3.0427 -0.02646,0.3175 -0.05292,0.66146 -0.05292,0.97896 0,6.985 5.662083,12.64709 12.647084,12.64709 6.985,0 12.673541,-5.66209 12.673541,-12.64709 0,-0.0265 0,-0.0265 0,-0.0529 0.47625,-0.84666 0.740833,-1.98437 0.423333,-3.09562 0.396875,0.39687 0.687917,1.00541 0.79375,1.69333 -0.396875,-8.20208 -3.889374,-12.30312 -9.604374,-13.2027 0.343958,-0.42334 0.978958,-0.635 1.799166,-0.635 0.370417,0 0.767292,0.0529 1.217084,0.13229 -2.010834,-0.92604 -3.757084,-1.34938 -5.23875,-1.34938 -1.534584,0 -2.831042,0.42334 -3.96875,1.13771 -0.423334,-0.44979 -0.211667,-0.9525 0.370416,-1.27"
             class="st1" />
          <path
             style="fill:#243645;stroke-width:0.14180103"
             inkscape:connector-curvature="0"
             id="path6"
             d="m 66.750912,134.87571 c -0.661459,0 -1.217083,0.55563 -1.217083,1.21709 0,0.66146 0.555624,1.21708 1.217083,1.21708 0.661458,0 1.217083,-0.55562 1.217083,-1.21708 0,-0.10584 -0.02646,-0.21167 -0.02646,-0.29104 l -0.873125,0 0.15875,-0.84667 c -0.15875,-0.0265 -0.3175,-0.0794 -0.47625,-0.0794"
             class="st1" />
          <path
             style="fill:#243645;stroke-width:0.14180103"
             inkscape:connector-curvature="0"
             id="path8"
             d="m 72.49237,134.87571 c -0.661458,0 -1.217083,0.55563 -1.217083,1.21709 0,0.66146 0.555625,1.21708 1.217083,1.21708 0.661458,0 1.217083,-0.55562 1.217083,-1.21708 0,-0.10584 0,-0.18521 -0.02646,-0.26459 l -0.820208,0 0.15875,-0.84666 c -0.158748,-0.0529 -0.343957,-0.10584 -0.529165,-0.10584"
             class="st1" />
          <path
             style="fill:#243645;stroke-width:0.14180103"
             inkscape:connector-curvature="0"
             id="path10"
             d="m 71.645703,139.87634 c -0.291041,-0.13229 -0.582083,-0.18521 -0.820208,-0.18521 -0.502708,0 -0.899583,0.23813 -1.190625,0.58208 -0.291042,-0.34395 -0.687917,-0.58208 -1.190625,-0.58208 -0.264583,0 -0.529167,0.0529 -0.820208,0.18521 -1.349375,0.58208 -1.719792,1.85208 -3.360208,2.16958 0,0 0.873125,0.87313 2.539999,0.87313 0.767292,0 1.719792,-0.18521 2.8575,-0.76729 1.11125,0.55562 2.06375,0.76729 2.8575,0.76729 1.666875,0 2.54,-0.87313 2.54,-0.87313 -1.693333,-0.3175 -2.06375,-1.56104 -3.413125,-2.16958 z"
             class="st1" />
        </g>
        <g
           style="fill:none;stroke:#ff0000;stroke-width:0.53594089;stroke-opacity:1"
           transform="matrix(1.2176447,0,0,1.2172828,-24.904997,-126.01387)"
           id="g4753">
          <path
             style="fill:none;stroke:#ff0000;stroke-width:0.9375;stroke-opacity:1"
             d="M 88.169922,2.4570312 C 75.63204,3.1943537 63.971123,5.4222084 54.513672,10.927734 46.25302,15.736393 40.33311,23.648275 38.048828,33.625 27.875158,36.679858 17.962855,41.52708 10.900391,50.912109 2.791869,61.687435 -1.2199443,77.030685 -0.20507812,98.244141 c 0.13297471,2.783039 1.95730492,5.423199 4.51953122,6.519529 0.7841872,0.33581 1.6558858,0.25193 2.5058594,0.29688 0.2200596,2.90361 0.4193661,5.80978 1.1757813,8.50781 -0.1599532,1.9502 -0.3359376,4.11129 -0.3359376,6.36523 0,50.21613 40.8684748,91.07422 91.0996098,91.07422 40.083224,-3.06635 59.026184,-18.4754 78.023514,-41.11443 0,0 10.04558,-7.88516 16.30109,0.13551 6.56599,9.88485 7.76083,15.62541 18.65586,15.62541 l 199.24024,0 c 10.89504,0 19.66601,-8.77102 19.66601,-19.66602 l 0,-118.523436 c 0,-10.895004 -8.77097,-19.666016 -19.66601,-19.666016 l -199.24024,0 c -10.89503,0 -13.79262,7.765488 -20.17109,18.150787 -8.22591,6.480494 -13.57695,-1.892974 -13.57695,-1.892974 C 169.6993,36.42123 162.28586,28.85584 152.51172,24.03125 c 0.57937,-0.699048 1.40687,-1.205091 1.67969,-2.078125 1.07808,-3.450093 -0.77052,-7.555457 -4.06836,-9.037109 -13.98491,-6.4334262 -26.52136,-9.5800785 -37.72461,-9.5800785 -6.5067,0 -12.22478,1.4784264 -17.603518,3.3828125 C 94.60475,6.3287372 94.885034,5.828205 94.626953,5.4785156 93.155807,3.4850216 90.643602,2.309818 88.169922,2.4570312 Z"
             transform="matrix(0.15123176,0,0,0.1512771,23.562204,138.29963)"
             id="path4767"
             inkscape:connector-curvature="0"
             sodipodi:nodetypes="cccsccccscccsssssscccccsccc" />
        </g>
        <g
           id="g4802"
           transform="matrix(1.2778516,0,0,1.2778516,-17.389119,-5.9438808)">
          <g
             transform="matrix(2.6364613,0,0,2.6356777,64.169153,-271.09882)"
             id="text2074"
             style="font-style:normal;font-variant:normal;font-weight:bold;font-stretch:normal;font-size:4.93888903px;line-height:6.61458302px;font-family:Lato;-inkscape-font-specification:'Lato Bold';letter-spacing:0px;word-spacing:0px;fill:#243645;fill-opacity:1;stroke:none;stroke-width:0.11865083px;stroke-linecap:butt;stroke-linejoin:miter;stroke-opacity:1"
             aria-label="LUMEER.IO">
            <g
               transform="matrix(0.99985012,0,0,1.0001499,2.0141003,-4.9547676)"
               style="font-style:normal;font-weight:normal;font-size:1.26560891px;line-height:125%;font-family:sans-serif;letter-spacing:0px;word-spacing:0px;fill:#243645;fill-opacity:1;stroke:none;stroke-width:1px;stroke-linecap:butt;stroke-linejoin:miter;stroke-opacity:1"
               id="text4461">
              <path
                 d="m -7.2356953,130.82359 -0.284762,0.922 h -0.1936381 l -0.1733884,-0.57142 q -0.00506,-0.0133 -0.00949,-0.0291 -0.00443,-0.0164 -0.00886,-0.0342 -0.00443,0.0177 -0.00886,0.0342 -0.00443,0.0158 -0.00949,0.0291 l -0.1759196,0.57142 h -0.1936382 l -0.284762,-0.922 h 0.1797165 q 0.027843,0 0.046195,0.0127 0.018984,0.0127 0.024679,0.0335 l 0.1265609,0.48093 q 0.0057,0.0228 0.01139,0.05 0.0057,0.0266 0.01139,0.0557 0.01139,-0.0595 0.027843,-0.10568 l 0.1493419,-0.48093 q 0.0057,-0.0177 0.024046,-0.0316 0.018984,-0.0146 0.045562,-0.0146 h 0.063281 q 0.027843,0 0.044929,0.0133 0.017086,0.0127 0.025945,0.0329 l 0.1480762,0.48093 q 0.016453,0.0443 0.027843,0.10062 0.00506,-0.0285 0.010125,-0.0532 0.0057,-0.0253 0.011391,-0.0475 l 0.1265609,-0.48093 q 0.00506,-0.0183 0.024046,-0.0323 0.018984,-0.0139 0.045562,-0.0139 h 0.1683259 z"
                 style="font-style:normal;font-variant:normal;font-weight:900;font-stretch:normal;font-family:Lato;-inkscape-font-specification:'Lato Heavy';fill:#243645;fill-opacity:1"
                 id="path4466"
                 inkscape:connector-curvature="0" />
              <path
                 d="m -5.8885139,130.82359 -0.284762,0.922 h -0.1936382 l -0.1733884,-0.57142 q -0.00506,-0.0133 -0.00949,-0.0291 -0.00443,-0.0164 -0.00886,-0.0342 -0.00443,0.0177 -0.00886,0.0342 -0.00443,0.0158 -0.00949,0.0291 l -0.1759196,0.57142 h -0.1936382 l -0.284762,-0.922 h 0.1797165 q 0.027843,0 0.046195,0.0127 0.018984,0.0127 0.024679,0.0335 l 0.1265609,0.48093 q 0.0057,0.0228 0.011391,0.05 0.0057,0.0266 0.01139,0.0557 0.011391,-0.0595 0.027843,-0.10568 l 0.1493419,-0.48093 q 0.0057,-0.0177 0.024047,-0.0316 0.018984,-0.0146 0.045562,-0.0146 h 0.06328 q 0.027843,0 0.044929,0.0133 0.017086,0.0127 0.025945,0.0329 l 0.1480763,0.48093 q 0.016453,0.0443 0.027843,0.10062 0.00506,-0.0285 0.010125,-0.0532 0.0057,-0.0253 0.01139,-0.0475 l 0.1265609,-0.48093 q 0.00506,-0.0183 0.024047,-0.0323 0.018984,-0.0139 0.045562,-0.0139 h 0.168326 z"
                 style="font-style:normal;font-variant:normal;font-weight:900;font-stretch:normal;font-family:Lato;-inkscape-font-specification:'Lato Heavy';fill:#243645;fill-opacity:1"
                 id="path4468"
                 inkscape:connector-curvature="0" />
              <path
                 d="m -4.5413326,130.82359 -0.284762,0.922 h -0.1936382 l -0.1733884,-0.57142 q -0.00506,-0.0133 -0.00949,-0.0291 -0.00443,-0.0164 -0.00886,-0.0342 -0.00443,0.0177 -0.00886,0.0342 -0.00443,0.0158 -0.00949,0.0291 l -0.1759196,0.57142 H -5.599379 l -0.284762,-0.922 h 0.1797165 q 0.027843,0 0.046195,0.0127 0.018984,0.0127 0.024679,0.0335 l 0.1265609,0.48093 q 0.0057,0.0228 0.011391,0.05 0.0057,0.0266 0.011391,0.0557 0.01139,-0.0595 0.027843,-0.10568 l 0.1493419,-0.48093 q 0.0057,-0.0177 0.024047,-0.0316 0.018984,-0.0146 0.045562,-0.0146 h 0.06328 q 0.027843,0 0.044929,0.0133 0.017086,0.0127 0.025945,0.0329 l 0.1480763,0.48093 q 0.016453,0.0443 0.027843,0.10062 0.00506,-0.0285 0.010125,-0.0532 0.0057,-0.0253 0.011391,-0.0475 l 0.1265609,-0.48093 q 0.00506,-0.0183 0.024047,-0.0323 0.018984,-0.0139 0.045562,-0.0139 h 0.168326 z"
                 style="font-style:normal;font-variant:normal;font-weight:900;font-stretch:normal;font-family:Lato;-inkscape-font-specification:'Lato Heavy';fill:#243645;fill-opacity:1"
                 id="path4470"
                 inkscape:connector-curvature="0" />
              <path
                 d="m -4.561424,131.64624 q 0,-0.0228 0.00823,-0.0424 0.00886,-0.0196 0.023414,-0.0342 0.015187,-0.0146 0.035437,-0.0228 0.02025,-0.009 0.044296,-0.009 0.023414,0 0.043664,0.009 0.02025,0.008 0.035437,0.0228 0.015187,0.0146 0.023414,0.0342 0.00886,0.0196 0.00886,0.0424 0,0.0228 -0.00886,0.043 -0.00823,0.0196 -0.023414,0.0342 -0.015187,0.0146 -0.035437,0.0228 -0.02025,0.008 -0.043664,0.008 -0.024047,0 -0.044296,-0.008 -0.02025,-0.008 -0.035437,-0.0228 -0.014555,-0.0146 -0.023414,-0.0342 -0.00823,-0.0203 -0.00823,-0.043 z"
                 style="font-style:normal;font-variant:normal;font-weight:900;font-stretch:normal;font-family:Lato;-inkscape-font-specification:'Lato Heavy';fill:#243645;fill-opacity:1"
                 id="path4472"
                 inkscape:connector-curvature="0" />
              <path
                 d="m -3.6548921,131.57473 v 0.17086 h -0.5556023 v -0.922 h 0.2138879 v 0.75114 z"
                 style="font-style:normal;font-variant:normal;font-weight:900;font-stretch:normal;font-family:Lato;-inkscape-font-specification:'Lato Heavy';fill:#243645;fill-opacity:1"
                 id="path4474"
                 inkscape:connector-curvature="0" />
              <path
                 d="m -3.1805857,131.57663 q 0.043031,0 0.076569,-0.0139 0.034171,-0.0146 0.057585,-0.0411 0.023414,-0.0266 0.035437,-0.0645 0.012656,-0.0386 0.012656,-0.0873 v -0.54611 h 0.2138879 v 0.54611 q 0,0.0848 -0.027843,0.15567 -0.027211,0.0709 -0.078468,0.12214 -0.051257,0.0512 -0.1246625,0.0797 -0.073405,0.0285 -0.1651619,0.0285 -0.092389,0 -0.1657948,-0.0285 -0.073405,-0.0285 -0.1246625,-0.0797 -0.051257,-0.0513 -0.078468,-0.12214 -0.027211,-0.0709 -0.027211,-0.15567 v -0.54611 h 0.2138879 v 0.54548 q 0,0.0487 0.012023,0.0873 0.012656,0.038 0.03607,0.0652 0.023414,0.0266 0.056952,0.0411 0.034171,0.0139 0.077202,0.0139 z"
                 style="font-style:normal;font-variant:normal;font-weight:900;font-stretch:normal;font-family:Lato;-inkscape-font-specification:'Lato Heavy';fill:#243645;fill-opacity:1"
                 id="path4476"
                 inkscape:connector-curvature="0" />
              <path
                 d="m -1.5820622,130.82359 v 0.922 H -1.770638 v -0.53029 q 0,-0.0184 6.328e-4,-0.0399 0.00127,-0.0215 0.0038,-0.0437 l -0.2448954,0.47397 q -0.01139,0.0222 -0.031007,0.0335 -0.018984,0.0114 -0.043664,0.0114 h -0.029109 q -0.024679,0 -0.044296,-0.0114 -0.018984,-0.0114 -0.030375,-0.0335 l -0.2448953,-0.47524 q 0.0019,0.0228 0.00316,0.0449 0.00127,0.0215 0.00127,0.0399 v 0.53029 h -0.1885757 v -0.922 h 0.1632635 q 0.013922,0 0.024047,6.4e-4 0.010758,6.3e-4 0.018984,0.004 0.00823,0.003 0.014555,0.0101 0.00696,0.006 0.013289,0.0183 l 0.2373017,0.46764 q 0.012656,0.024 0.024047,0.05 0.012023,0.0259 0.022781,0.0532 0.010758,-0.0278 0.022148,-0.0544 0.012023,-0.0266 0.025312,-0.0506 l 0.2366689,-0.46574 q 0.00633,-0.012 0.012656,-0.0183 0.00696,-0.007 0.015187,-0.0101 0.00823,-0.003 0.018351,-0.004 0.010758,-6.4e-4 0.024679,-6.4e-4 h 0.1632636 z"
                 style="font-style:normal;font-variant:normal;font-weight:900;font-stretch:normal;font-family:Lato;-inkscape-font-specification:'Lato Heavy';fill:#243645;fill-opacity:1"
                 id="path4478"
                 inkscape:connector-curvature="0" />
              <path
                 d="m -1.1872712,130.98812 v 0.21516 h 0.28982448 v 0.1582 H -1.1872712 v 0.21958 h 0.3784171 v 0.16453 h -0.5935706 v -0.922 h 0.5935706 v 0.16453 z"
                 style="font-style:normal;font-variant:normal;font-weight:900;font-stretch:normal;font-family:Lato;-inkscape-font-specification:'Lato Heavy';fill:#243645;fill-opacity:1"
                 id="path4480"
                 inkscape:connector-curvature="0" />
              <path
                 d="m -0.46300702,130.98812 v 0.21516 h 0.28982444 v 0.1582 h -0.28982444 v 0.21958 h 0.37841707 v 0.16453 h -0.59357058 v -0.922 h 0.59357058 v 0.16453 z"
                 style="font-style:normal;font-variant:normal;font-weight:900;font-stretch:normal;font-family:Lato;-inkscape-font-specification:'Lato Heavy';fill:#243645;fill-opacity:1"
                 id="path4482"
                 inkscape:connector-curvature="0" />
              <path
                 d="m 0.3460534,131.25707 q 0.0436635,0 0.0740381,-0.0108 0.0310074,-0.0114 0.0506244,-0.031 0.0196169,-0.0196 0.0284762,-0.0456 0.008859,-0.0266 0.008859,-0.057 0,-0.0607 -0.0398667,-0.0949 -0.0392339,-0.0342 -0.12213126,-0.0342 h -0.0860614 v 0.27338 h 0.0860614 z m 0.4543536,0.48852 H 0.60676884 q -0.0537884,0 -0.0772021,-0.0405 l -0.15313868,-0.26768 q -0.0107577,-0.0171 -0.0240466,-0.0247 -0.0132889,-0.008 -0.0379683,-0.008 h -0.0544212 v 0.34108 H 0.04610405 v -0.922 h 0.29994931 q 0.0999831,0 0.1702244,0.0209 0.0708741,0.0203 0.11517041,0.057 0.0449291,0.0367 0.0651789,0.0867 0.0202497,0.05 0.0202497,0.10885 0,0.0449 -0.0120233,0.0848 -0.0120233,0.0399 -0.035437,0.074 -0.0234138,0.0335 -0.058218,0.0601 -0.0341714,0.0266 -0.0791006,0.0437 0.0208826,0.0108 0.0392339,0.0272 0.0183513,0.0158 0.0329058,0.038 l 0.19616938,0.32083 z"
                 style="font-style:normal;font-variant:normal;font-weight:900;font-stretch:normal;font-family:Lato;-inkscape-font-specification:'Lato Heavy';fill:#243645;fill-opacity:1"
                 id="path4484"
                 inkscape:connector-curvature="0" />
              <path
                 d="m 0.82977318,131.64624 q 0,-0.0228 0.008226,-0.0424 0.008859,-0.0196 0.0234138,-0.0342 0.0151873,-0.0146 0.035437,-0.0228 0.0202498,-0.009 0.0442963,-0.009 0.0234138,0 0.0436635,0.009 0.0202497,0.008 0.035437,0.0228 0.015187,0.0146 0.023414,0.0342 0.00886,0.0196 0.00886,0.0424 0,0.0228 -0.00886,0.043 -0.00823,0.0196 -0.023414,0.0342 -0.015187,0.0146 -0.035437,0.0228 -0.0202497,0.008 -0.0436635,0.008 -0.0240466,0 -0.0442963,-0.008 -0.0202497,-0.008 -0.035437,-0.0228 -0.0145545,-0.0146 -0.0234138,-0.0342 -0.008226,-0.0203 -0.008226,-0.043 z"
                 style="font-style:normal;font-variant:normal;font-weight:900;font-stretch:normal;font-family:Lato;-inkscape-font-specification:'Lato Heavy';fill:#243645;fill-opacity:1"
                 id="path4486"
                 inkscape:connector-curvature="0" />
              <path
                 d="M 1.3958563,131.74559 H 1.1807028 v -0.922 h 0.2151535 z"
                 style="font-style:normal;font-variant:normal;font-weight:900;font-stretch:normal;font-family:Lato;-inkscape-font-specification:'Lato Heavy';fill:#243645;fill-opacity:1"
                 id="path4488"
                 inkscape:connector-curvature="0" />
              <path
                 d="m 2.4786443,131.28428 q 0,0.1 -0.034804,0.18604 -0.034172,0.0861 -0.096819,0.14997 -0.062648,0.0633 -0.1512403,0.0994 -0.08796,0.0361 -0.1955366,0.0361 -0.1075767,0 -0.1961693,-0.0361 -0.088593,-0.0361 -0.1518731,-0.0994 -0.062648,-0.0639 -0.097452,-0.14997 -0.034171,-0.0861 -0.034171,-0.18604 0,-0.1 0.034171,-0.18605 0.034804,-0.0861 0.097452,-0.14934 0.06328,-0.0633 0.1518731,-0.0994 0.088593,-0.0361 0.1961693,-0.0361 0.1075768,0 0.1955366,0.0367 0.088593,0.0361 0.1512403,0.0994 0.062648,0.0633 0.096819,0.14934 0.034804,0.0861 0.034804,0.18542 z m -0.2189503,0 q 0,-0.0684 -0.017719,-0.12277 -0.017718,-0.055 -0.051257,-0.093 -0.032906,-0.038 -0.080999,-0.0582 -0.048093,-0.0203 -0.1094752,-0.0203 -0.062015,0 -0.1107407,0.0203 -0.048093,0.0203 -0.081632,0.0582 -0.032906,0.038 -0.050624,0.093 -0.017718,0.0544 -0.017718,0.12277 0,0.069 0.017718,0.12403 0.017719,0.0544 0.050624,0.0924 0.033539,0.038 0.081632,0.0582 0.048726,0.0196 0.1107407,0.0196 0.061382,0 0.1094752,-0.0196 0.048093,-0.0203 0.080999,-0.0582 0.033539,-0.038 0.051257,-0.0924 0.017719,-0.0551 0.017719,-0.12403 z"
                 style="font-style:normal;font-variant:normal;font-weight:900;font-stretch:normal;font-family:Lato;-inkscape-font-specification:'Lato Heavy';fill:#243645;fill-opacity:1"
                 id="path4490"
                 inkscape:connector-curvature="0" />
            </g>
          </g>
          <text
             xml:space="preserve"
             style="font-style:normal;font-variant:normal;font-weight:bold;font-stretch:normal;font-size:4.63424587px;line-height:1.5;font-family:Lato;-inkscape-font-specification:'Lato Bold';letter-spacing:0px;word-spacing:0px;fill:#243645;fill-opacity:1;stroke:none;stroke-width:0.20416948"
             x="46.94025"
             y="47.231583"
             id="text1102"
             transform="scale(0.9999988,1.0000012)"><tspan
               sodipodi:role="line"
               x="46.94025"
               y="47.231583"
               style="font-style:normal;font-variant:normal;font-weight:800;font-stretch:normal;font-size:5.40662003px;font-family:Lato;-inkscape-font-specification:'Lato Ultra-Bold';letter-spacing:0.2288159px;fill:#243645;fill-opacity:1;stroke-width:0.20416948"
               id="tspan1110">AJ ODTIAĽ</tspan></text>
          <text
             transform="scale(0.9999988,1.0000012)"
             id="text1118"
             y="52.25227"
             x="47.123379"
             style="font-style:normal;font-variant:normal;font-weight:bold;font-stretch:normal;font-size:4.63424587px;line-height:1.5;font-family:Lato;-inkscape-font-specification:'Lato Bold';letter-spacing:0px;word-spacing:0px;fill:#243645;fill-opacity:1;stroke:none;stroke-width:0.20416948"
             xml:space="preserve"><tspan
               id="tspan1116"
               style="font-style:normal;font-variant:normal;font-weight:500;font-stretch:normal;font-size:4.63424587px;font-family:Lato;-inkscape-font-specification:'Lato Medium';letter-spacing:0px;fill:#243645;fill-opacity:1;stroke-width:0.20416948"
               y="52.25227"
               x="47.123379"
               sodipodi:role="line">VIETE RIADIŤ</tspan></text>
          <text
             xml:space="preserve"
             style="font-style:normal;font-variant:normal;font-weight:bold;font-stretch:normal;font-size:4.63424587px;line-height:1.5;font-family:Lato;-inkscape-font-specification:'Lato Bold';letter-spacing:0px;word-spacing:0px;fill:#243645;fill-opacity:1;stroke:none;stroke-width:0.20416948"
             x="47.052513"
             y="58.764408"
             id="text1126"
             transform="scale(0.9999988,1.0000012)"><tspan
               sodipodi:role="line"
               x="47.052513"
               y="58.764408"
               style="font-size:6.17899418px;letter-spacing:0.22012667px;fill:#243645;fill-opacity:1;stroke-width:0.20416948"
               id="tspan1124">SVOJ TÍM</tspan></text>
        </g>
      </g>
      <g
         id="g4578"
         transform="translate(-68.661153,-20.818594)">
        <g
           style="stroke-width:0.53594089"
           transform="matrix(1.8531134,0,0,1.8525626,-97.449775,-175.62837)"
           id="g4580" />
        <g
           transform="matrix(2.2146779,0,0,2.2140196,33.863641,-178.15728)"
           id="g4590"
           style="font-style:normal;font-variant:normal;font-weight:bold;font-stretch:normal;font-size:4.93888903px;line-height:6.61458302px;font-family:Lato;-inkscape-font-specification:'Lato Bold';letter-spacing:0px;word-spacing:0px;fill:#243645;fill-opacity:1;stroke:none;stroke-width:0.11865083px;stroke-linecap:butt;stroke-linejoin:miter;stroke-opacity:1"
           aria-label="LUMEER.IO">
          <g
             transform="matrix(0.99985012,0,0,1.0001499,2.0141003,-4.9547676)"
             style="font-style:normal;font-weight:normal;font-size:1.26560891px;line-height:125%;font-family:sans-serif;letter-spacing:0px;word-spacing:0px;fill:none;fill-opacity:1;stroke:#000000;stroke-width:0.15820111;stroke-linecap:butt;stroke-linejoin:miter;stroke-miterlimit:4;stroke-dasharray:none;stroke-opacity:1"
             id="g4592" />
        </g>
      </g>
      <g
         id="g4628"
         transform="translate(-83.874703,-17.615733)"
         style="fill:none;stroke:#000000;stroke-opacity:1">
        <g
           style="fill:none;stroke:#000000;stroke-width:0.18906803;stroke-miterlimit:4;stroke-dasharray:none;stroke-opacity:1"
           transform="matrix(1.8531134,0,0,1.8525626,-92.045129,-175.62837)"
           id="g4630" />
      </g>
    </g>
  </g>
</svg>
