<?xml version="1.0" encoding="UTF-8" standalone="no"?>
<!-- Created with Inkscape (http://www.inkscape.org/) -->

<svg
   xmlns:dc="http://purl.org/dc/elements/1.1/"
   xmlns:cc="http://creativecommons.org/ns#"
   xmlns:rdf="http://www.w3.org/1999/02/22-rdf-syntax-ns#"
   xmlns:svg="http://www.w3.org/2000/svg"
   xmlns="http://www.w3.org/2000/svg"
   xmlns:sodipodi="http://sodipodi.sourceforge.net/DTD/sodipodi-0.dtd"
   xmlns:inkscape="http://www.inkscape.org/namespaces/inkscape"
   width="80.1008mm"
   height="38.850399mm"
   viewBox="0 0 80.100798 38.850399"
   version="1.1"
   id="svg2201"
   inkscape:version="0.91 r13725"
   sodipodi:docname="lumeer-sticker3-text-cut.svg"
   inkscape:export-filename="/Users/mvecera/work/Lumeer/lumeer.github.io/img/lumeer-sticker3.png"
   inkscape:export-xdpi="858"
   inkscape:export-ydpi="858">
  <defs
     id="defs2195" />
  <sodipodi:namedview
     id="base"
     pagecolor="#ffffff"
     bordercolor="#666666"
     borderopacity="1.0"
     inkscape:pageopacity="0.0"
     inkscape:pageshadow="2"
     inkscape:zoom="0.98994949"
     inkscape:cx="262.79342"
     inkscape:cy="-15.729079"
     inkscape:document-units="mm"
     inkscape:current-layer="g4802"
     showgrid="false"
     fit-margin-top="0"
     fit-margin-left="0"
     fit-margin-right="0"
     fit-margin-bottom="0"
     inkscape:window-width="1401"
     inkscape:window-height="855"
     inkscape:window-x="39"
     inkscape:window-y="23"
     inkscape:window-maximized="0"
     inkscape:snap-grids="false">
    <inkscape:grid
       type="xygrid"
       id="grid4694"
       originx="1.045295"
       originy="-28.673659" />
  </sodipodi:namedview>
  <metadata
     id="metadata2198">
    <rdf:RDF>
      <cc:Work
         rdf:about="">
        <dc:format>image/svg+xml</dc:format>
        <dc:type
           rdf:resource="http://purl.org/dc/dcmitype/StillImage" />
        <dc:title></dc:title>
      </cc:Work>
    </rdf:RDF>
  </metadata>
  <g
     inkscape:label="Vrstva 1"
     inkscape:groupmode="layer"
     id="layer1"
     transform="translate(0.91052172,-42.408595)">
    <g
       id="g2826"
       transform="matrix(1.0070388,0,0,1.0070363,-4.5689443,-0.59157622)"
       style="stroke-width:0.99301165">
      <g
         id="g4556">
        <g
           id="g1459"
           transform="matrix(1.2176447,0,0,1.2172828,-62.786575,-100.75942)"
           style="stroke-width:0.53594089">
          <path
             style="fill:#243645;stroke-width:0.14180103"
             inkscape:connector-curvature="0"
             id="path4"
             d="m 69.63487,147.12592 c -6.297083,0 -11.43,-5.13291 -11.43,-11.43 0,-1.24354 0.211667,-2.43416 0.582084,-3.57187 0.635,-0.82021 1.640416,-1.56104 3.307291,-2.16959 2.354792,1.45521 4.683125,2.14313 6.958542,2.14313 1.481666,0 2.910416,-0.29104 4.339166,-0.84667 0.899584,-0.66146 1.825625,-0.9525 2.725209,-0.9525 1.984375,0 3.783541,1.40229 4.736041,3.30729 0.132292,0.66146 0.185209,1.37584 0.185209,2.09021 0.02646,6.29709 -5.106459,11.43 -11.403542,11.43 m -1.561042,-28.07229 c -3.598333,0.21167 -6.402916,1.32292 -6.693958,4.41854 -3.307292,0.79375 -5.900208,2.80459 -5.609167,8.89 0.291042,-0.29104 0.502709,-0.68791 1.005417,-0.68791 -0.132292,1.1377 -0.05292,2.2225 0.238125,3.0427 -0.02646,0.3175 -0.05292,0.66146 -0.05292,0.97896 0,6.985 5.662083,12.64709 12.647084,12.64709 6.985,0 12.673541,-5.66209 12.673541,-12.64709 0,-0.0265 0,-0.0265 0,-0.0529 0.47625,-0.84666 0.740833,-1.98437 0.423333,-3.09562 0.396875,0.39687 0.687917,1.00541 0.79375,1.69333 -0.396875,-8.20208 -3.889374,-12.30312 -9.604374,-13.2027 0.343958,-0.42334 0.978958,-0.635 1.799166,-0.635 0.370417,0 0.767292,0.0529 1.217084,0.13229 -2.010834,-0.92604 -3.757084,-1.34938 -5.23875,-1.34938 -1.534584,0 -2.831042,0.42334 -3.96875,1.13771 -0.423334,-0.44979 -0.211667,-0.9525 0.370416,-1.27"
             class="st1" />
          <path
             style="fill:#243645;stroke-width:0.14180103"
             inkscape:connector-curvature="0"
             id="path6"
             d="m 66.750912,134.87571 c -0.661459,0 -1.217083,0.55563 -1.217083,1.21709 0,0.66146 0.555624,1.21708 1.217083,1.21708 0.661458,0 1.217083,-0.55562 1.217083,-1.21708 0,-0.10584 -0.02646,-0.21167 -0.02646,-0.29104 l -0.873125,0 0.15875,-0.84667 c -0.15875,-0.0265 -0.3175,-0.0794 -0.47625,-0.0794"
             class="st1" />
          <path
             style="fill:#243645;stroke-width:0.14180103"
             inkscape:connector-curvature="0"
             id="path8"
             d="m 72.49237,134.87571 c -0.661458,0 -1.217083,0.55563 -1.217083,1.21709 0,0.66146 0.555625,1.21708 1.217083,1.21708 0.661458,0 1.217083,-0.55562 1.217083,-1.21708 0,-0.10584 0,-0.18521 -0.02646,-0.26459 l -0.820208,0 0.15875,-0.84666 c -0.158748,-0.0529 -0.343957,-0.10584 -0.529165,-0.10584"
             class="st1" />
          <path
             style="fill:#243645;stroke-width:0.14180103"
             inkscape:connector-curvature="0"
             id="path10"
             d="m 71.645703,139.87634 c -0.291041,-0.13229 -0.582083,-0.18521 -0.820208,-0.18521 -0.502708,0 -0.899583,0.23813 -1.190625,0.58208 -0.291042,-0.34395 -0.687917,-0.58208 -1.190625,-0.58208 -0.264583,0 -0.529167,0.0529 -0.820208,0.18521 -1.349375,0.58208 -1.719792,1.85208 -3.360208,2.16958 0,0 0.873125,0.87313 2.539999,0.87313 0.767292,0 1.719792,-0.18521 2.8575,-0.76729 1.11125,0.55562 2.06375,0.76729 2.8575,0.76729 1.666875,0 2.54,-0.87313 2.54,-0.87313 -1.693333,-0.3175 -2.06375,-1.56104 -3.413125,-2.16958 z"
             class="st1" />
        </g>
        <g
           style="fill:none;stroke:#ff0000;stroke-width:0.53594089;stroke-opacity:1"
           transform="matrix(1.2176447,0,0,1.2172828,-24.904997,-126.01387)"
           id="g4753">
          <path
             style="fill:none;stroke:#ff0000;stroke-width:0.9375;stroke-opacity:1"
             d="M 88.169922,2.4570312 C 75.63204,3.1943537 63.971123,5.4222084 54.513672,10.927734 46.25302,15.736393 40.33311,23.648275 38.048828,33.625 27.875158,36.679858 17.962855,41.52708 10.900391,50.912109 2.791869,61.687435 -1.2199443,77.030685 -0.20507812,98.244141 c 0.13297471,2.783039 1.95730492,5.423199 4.51953122,6.519529 0.7841872,0.33581 1.6558858,0.25193 2.5058594,0.29688 0.2200596,2.90361 0.4193661,5.80978 1.1757813,8.50781 -0.1599532,1.9502 -0.3359376,4.11129 -0.3359376,6.36523 0,50.21613 40.8684748,91.07422 91.0996098,91.07422 40.083224,-3.06635 59.026184,-18.4754 78.023514,-41.11443 0,0 10.04558,-7.88516 16.30109,0.13551 6.56599,9.88485 7.76083,15.62541 18.65586,15.62541 l 199.24024,0 c 10.89504,0 19.66601,-8.77102 19.66601,-19.66602 l 0,-118.523436 c 0,-10.895004 -8.77097,-19.666016 -19.66601,-19.666016 l -199.24024,0 c -10.89503,0 -13.79262,7.765488 -20.17109,18.150787 -8.22591,6.480494 -13.57695,-1.892974 -13.57695,-1.892974 C 169.6993,36.42123 162.28586,28.85584 152.51172,24.03125 c 0.57937,-0.699048 1.40687,-1.205091 1.67969,-2.078125 1.07808,-3.450093 -0.77052,-7.555457 -4.06836,-9.037109 -13.98491,-6.4334262 -26.52136,-9.5800785 -37.72461,-9.5800785 -6.5067,0 -12.22478,1.4784264 -17.603518,3.3828125 C 94.60475,6.3287372 94.885034,5.828205 94.626953,5.4785156 93.155807,3.4850216 90.643602,2.309818 88.169922,2.4570312 Z"
             transform="matrix(0.15123176,0,0,0.1512771,23.562204,138.29963)"
             id="path4767"
             inkscape:connector-curvature="0"
             sodipodi:nodetypes="cccsccccscccsssssscccccsccc" />
        </g>
        <g
           id="g4802"
           transform="matrix(1.2778516,0,0,1.2778516,-17.389119,-5.9438808)">
          <g
             transform="matrix(2.6364613,0,0,2.6356777,64.169153,-271.51003)"
             id="text2074"
             style="font-style:normal;font-variant:normal;font-weight:bold;font-stretch:normal;font-size:4.93888903px;line-height:6.61458302px;font-family:Lato;-inkscape-font-specification:'Lato Bold';letter-spacing:0px;word-spacing:0px;fill:#243645;fill-opacity:1;stroke:none;stroke-width:0.11865083px;stroke-linecap:butt;stroke-linejoin:miter;stroke-opacity:1"
             aria-label="LUMEER.IO">
            <g
               transform="matrix(0.99985012,0,0,1.0001499,2.0141003,-4.9547676)"
               style="font-style:normal;font-weight:normal;font-size:1.26560891px;line-height:125%;font-family:sans-serif;letter-spacing:0px;word-spacing:0px;fill:#243645;fill-opacity:1;stroke:none;stroke-width:1px;stroke-linecap:butt;stroke-linejoin:miter;stroke-opacity:1"
               id="text4461">
              <path
                 d="m -7.2356953,130.82359 -0.284762,0.922 -0.1936381,0 -0.1733884,-0.57142 q -0.00506,-0.0133 -0.00949,-0.0291 -0.00443,-0.0164 -0.00886,-0.0342 -0.00443,0.0177 -0.00886,0.0342 -0.00443,0.0158 -0.00949,0.0291 l -0.1759196,0.57142 -0.1936382,0 -0.284762,-0.922 0.1797165,0 q 0.027843,0 0.046195,0.0127 0.018984,0.0127 0.024679,0.0335 l 0.1265609,0.48093 q 0.0057,0.0228 0.01139,0.05 0.0057,0.0266 0.01139,0.0557 0.01139,-0.0595 0.027843,-0.10568 l 0.1493419,-0.48093 q 0.0057,-0.0177 0.024046,-0.0316 0.018984,-0.0146 0.045562,-0.0146 l 0.063281,0 q 0.027843,0 0.044929,0.0133 0.017086,0.0127 0.025945,0.0329 l 0.1480762,0.48093 q 0.016453,0.0443 0.027843,0.10062 0.00506,-0.0285 0.010125,-0.0532 0.0057,-0.0253 0.011391,-0.0475 l 0.1265609,-0.48093 q 0.00506,-0.0183 0.024046,-0.0323 0.018984,-0.0139 0.045562,-0.0139 l 0.1683259,0 z"
                 style="font-style:normal;font-variant:normal;font-weight:900;font-stretch:normal;font-family:Lato;-inkscape-font-specification:'Lato Heavy';fill:#243645;fill-opacity:1"
                 id="path4466"
                 inkscape:connector-curvature="0" />
              <path
                 d="m -5.8885139,130.82359 -0.284762,0.922 -0.1936382,0 -0.1733884,-0.57142 q -0.00506,-0.0133 -0.00949,-0.0291 -0.00443,-0.0164 -0.00886,-0.0342 -0.00443,0.0177 -0.00886,0.0342 -0.00443,0.0158 -0.00949,0.0291 l -0.1759196,0.57142 -0.1936382,0 -0.284762,-0.922 0.1797165,0 q 0.027843,0 0.046195,0.0127 0.018984,0.0127 0.024679,0.0335 l 0.1265609,0.48093 q 0.0057,0.0228 0.011391,0.05 0.0057,0.0266 0.01139,0.0557 0.011391,-0.0595 0.027843,-0.10568 l 0.1493419,-0.48093 q 0.0057,-0.0177 0.024047,-0.0316 0.018984,-0.0146 0.045562,-0.0146 l 0.06328,0 q 0.027843,0 0.044929,0.0133 0.017086,0.0127 0.025945,0.0329 l 0.1480763,0.48093 q 0.016453,0.0443 0.027843,0.10062 0.00506,-0.0285 0.010125,-0.0532 0.0057,-0.0253 0.01139,-0.0475 l 0.1265609,-0.48093 q 0.00506,-0.0183 0.024047,-0.0323 0.018984,-0.0139 0.045562,-0.0139 l 0.168326,0 z"
                 style="font-style:normal;font-variant:normal;font-weight:900;font-stretch:normal;font-family:Lato;-inkscape-font-specification:'Lato Heavy';fill:#243645;fill-opacity:1"
                 id="path4468"
                 inkscape:connector-curvature="0" />
              <path
                 d="m -4.5413326,130.82359 -0.284762,0.922 -0.1936382,0 -0.1733884,-0.57142 q -0.00506,-0.0133 -0.00949,-0.0291 -0.00443,-0.0164 -0.00886,-0.0342 -0.00443,0.0177 -0.00886,0.0342 -0.00443,0.0158 -0.00949,0.0291 l -0.1759196,0.57142 -0.1936382,0 -0.284762,-0.922 0.1797165,0 q 0.027843,0 0.046195,0.0127 0.018984,0.0127 0.024679,0.0335 l 0.1265609,0.48093 q 0.0057,0.0228 0.011391,0.05 0.0057,0.0266 0.011391,0.0557 0.01139,-0.0595 0.027843,-0.10568 l 0.1493419,-0.48093 q 0.0057,-0.0177 0.024047,-0.0316 0.018984,-0.0146 0.045562,-0.0146 l 0.06328,0 q 0.027843,0 0.044929,0.0133 0.017086,0.0127 0.025945,0.0329 l 0.1480763,0.48093 q 0.016453,0.0443 0.027843,0.10062 0.00506,-0.0285 0.010125,-0.0532 0.0057,-0.0253 0.011391,-0.0475 l 0.1265609,-0.48093 q 0.00506,-0.0183 0.024047,-0.0323 0.018984,-0.0139 0.045562,-0.0139 l 0.168326,0 z"
                 style="font-style:normal;font-variant:normal;font-weight:900;font-stretch:normal;font-family:Lato;-inkscape-font-specification:'Lato Heavy';fill:#243645;fill-opacity:1"
                 id="path4470"
                 inkscape:connector-curvature="0" />
              <path
                 d="m -4.561424,131.64624 q 0,-0.0228 0.00823,-0.0424 0.00886,-0.0196 0.023414,-0.0342 0.015187,-0.0146 0.035437,-0.0228 0.02025,-0.009 0.044296,-0.009 0.023414,0 0.043664,0.009 0.02025,0.008 0.035437,0.0228 0.015187,0.0146 0.023414,0.0342 0.00886,0.0196 0.00886,0.0424 0,0.0228 -0.00886,0.043 -0.00823,0.0196 -0.023414,0.0342 -0.015187,0.0146 -0.035437,0.0228 -0.02025,0.008 -0.043664,0.008 -0.024047,0 -0.044296,-0.008 -0.02025,-0.008 -0.035437,-0.0228 -0.014555,-0.0146 -0.023414,-0.0342 -0.00823,-0.0203 -0.00823,-0.043 z"
                 style="font-style:normal;font-variant:normal;font-weight:900;font-stretch:normal;font-family:Lato;-inkscape-font-specification:'Lato Heavy';fill:#243645;fill-opacity:1"
                 id="path4472"
                 inkscape:connector-curvature="0" />
              <path
                 d="m -3.6548921,131.57473 0,0.17086 -0.5556023,0 0,-0.922 0.2138879,0 0,0.75114 0.3417144,0 z"
                 style="font-style:normal;font-variant:normal;font-weight:900;font-stretch:normal;font-family:Lato;-inkscape-font-specification:'Lato Heavy';fill:#243645;fill-opacity:1"
                 id="path4474"
                 inkscape:connector-curvature="0" />
              <path
                 d="m -3.1805857,131.57663 q 0.043031,0 0.076569,-0.0139 0.034171,-0.0146 0.057585,-0.0411 0.023414,-0.0266 0.035437,-0.0645 0.012656,-0.0386 0.012656,-0.0873 l 0,-0.54611 0.2138879,0 0,0.54611 q 0,0.0848 -0.027843,0.15567 -0.027211,0.0709 -0.078468,0.12214 -0.051257,0.0512 -0.1246625,0.0797 -0.073405,0.0285 -0.1651619,0.0285 -0.092389,0 -0.1657948,-0.0285 -0.073405,-0.0285 -0.1246625,-0.0797 -0.051257,-0.0513 -0.078468,-0.12214 -0.027211,-0.0709 -0.027211,-0.15567 l 0,-0.54611 0.2138879,0 0,0.54548 q 0,0.0487 0.012023,0.0873 0.012656,0.038 0.03607,0.0652 0.023414,0.0266 0.056952,0.0411 0.034171,0.0139 0.077202,0.0139 z"
                 style="font-style:normal;font-variant:normal;font-weight:900;font-stretch:normal;font-family:Lato;-inkscape-font-specification:'Lato Heavy';fill:#243645;fill-opacity:1"
                 id="path4476"
                 inkscape:connector-curvature="0" />
              <path
                 d="m -1.5820622,130.82359 0,0.922 -0.1885758,0 0,-0.53029 q 0,-0.0184 6.328e-4,-0.0399 0.00127,-0.0215 0.0038,-0.0437 l -0.2448954,0.47397 q -0.01139,0.0222 -0.031007,0.0335 -0.018984,0.0114 -0.043664,0.0114 l -0.029109,0 q -0.024679,0 -0.044296,-0.0114 -0.018984,-0.0114 -0.030375,-0.0335 l -0.2448953,-0.47524 q 0.0019,0.0228 0.00316,0.0449 0.00127,0.0215 0.00127,0.0399 l 0,0.53029 -0.1885757,0 0,-0.922 0.1632635,0 q 0.013922,0 0.024047,6.4e-4 0.010758,6.3e-4 0.018984,0.004 0.00823,0.003 0.014555,0.0101 0.00696,0.006 0.013289,0.0183 l 0.2373017,0.46764 q 0.012656,0.024 0.024047,0.05 0.012023,0.0259 0.022781,0.0532 0.010758,-0.0278 0.022148,-0.0544 0.012023,-0.0266 0.025312,-0.0506 l 0.2366689,-0.46574 q 0.00633,-0.012 0.012656,-0.0183 0.00696,-0.007 0.015187,-0.0101 0.00823,-0.003 0.018351,-0.004 0.010758,-6.4e-4 0.024679,-6.4e-4 l 0.1632636,0 z"
                 style="font-style:normal;font-variant:normal;font-weight:900;font-stretch:normal;font-family:Lato;-inkscape-font-specification:'Lato Heavy';fill:#243645;fill-opacity:1"
                 id="path4478"
                 inkscape:connector-curvature="0" />
              <path
                 d="m -1.1872712,130.98812 0,0.21516 0.28982448,0 0,0.1582 -0.28982448,0 0,0.21958 0.3784171,0 0,0.16453 -0.5935706,0 0,-0.922 0.5935706,0 0,0.16453 -0.3784171,0 z"
                 style="font-style:normal;font-variant:normal;font-weight:900;font-stretch:normal;font-family:Lato;-inkscape-font-specification:'Lato Heavy';fill:#243645;fill-opacity:1"
                 id="path4480"
                 inkscape:connector-curvature="0" />
              <path
                 d="m -0.46300702,130.98812 0,0.21516 0.28982444,0 0,0.1582 -0.28982444,0 0,0.21958 0.37841707,0 0,0.16453 -0.59357058,0 0,-0.922 0.59357058,0 0,0.16453 -0.37841707,0 z"
                 style="font-style:normal;font-variant:normal;font-weight:900;font-stretch:normal;font-family:Lato;-inkscape-font-specification:'Lato Heavy';fill:#243645;fill-opacity:1"
                 id="path4482"
                 inkscape:connector-curvature="0" />
              <path
                 d="m 0.3460534,131.25707 q 0.0436635,0 0.0740381,-0.0108 0.0310074,-0.0114 0.0506244,-0.031 0.0196169,-0.0196 0.0284762,-0.0456 0.008859,-0.0266 0.008859,-0.057 0,-0.0607 -0.0398667,-0.0949 -0.0392339,-0.0342 -0.12213126,-0.0342 l -0.0860614,0 0,0.27338 0.0860614,0 z m 0.4543536,0.48852 -0.19363816,0 q -0.0537884,0 -0.0772021,-0.0405 l -0.15313868,-0.26768 q -0.0107577,-0.0171 -0.0240466,-0.0247 -0.0132889,-0.008 -0.0379683,-0.008 l -0.0544212,0 0,0.34108 -0.21388791,0 0,-0.922 0.29994931,0 q 0.0999831,0 0.1702244,0.0209 0.0708741,0.0203 0.11517041,0.057 0.0449291,0.0367 0.0651789,0.0867 0.0202497,0.05 0.0202497,0.10885 0,0.0449 -0.0120233,0.0848 -0.0120233,0.0399 -0.035437,0.074 -0.0234138,0.0335 -0.058218,0.0601 -0.0341714,0.0266 -0.0791006,0.0437 0.0208826,0.0108 0.0392339,0.0272 0.0183513,0.0158 0.0329058,0.038 l 0.19616938,0.32083 z"
                 style="font-style:normal;font-variant:normal;font-weight:900;font-stretch:normal;font-family:Lato;-inkscape-font-specification:'Lato Heavy';fill:#243645;fill-opacity:1"
                 id="path4484"
                 inkscape:connector-curvature="0" />
              <path
                 d="m 0.82977318,131.64624 q 0,-0.0228 0.008226,-0.0424 0.008859,-0.0196 0.0234138,-0.0342 0.0151873,-0.0146 0.035437,-0.0228 0.0202498,-0.009 0.0442963,-0.009 0.0234138,0 0.0436635,0.009 0.0202497,0.008 0.035437,0.0228 0.015187,0.0146 0.023414,0.0342 0.00886,0.0196 0.00886,0.0424 0,0.0228 -0.00886,0.043 -0.00823,0.0196 -0.023414,0.0342 -0.015187,0.0146 -0.035437,0.0228 -0.0202497,0.008 -0.0436635,0.008 -0.0240466,0 -0.0442963,-0.008 -0.0202497,-0.008 -0.035437,-0.0228 -0.0145545,-0.0146 -0.0234138,-0.0342 -0.008226,-0.0203 -0.008226,-0.043 z"
                 style="font-style:normal;font-variant:normal;font-weight:900;font-stretch:normal;font-family:Lato;-inkscape-font-specification:'Lato Heavy';fill:#243645;fill-opacity:1"
                 id="path4486"
                 inkscape:connector-curvature="0" />
              <path
                 d="m 1.3958563,131.74559 -0.2151535,0 0,-0.922 0.2151535,0 0,0.922 z"
                 style="font-style:normal;font-variant:normal;font-weight:900;font-stretch:normal;font-family:Lato;-inkscape-font-specification:'Lato Heavy';fill:#243645;fill-opacity:1"
                 id="path4488"
                 inkscape:connector-curvature="0" />
              <path
                 d="m 2.4786443,131.28428 q 0,0.1 -0.034804,0.18604 -0.034172,0.0861 -0.096819,0.14997 -0.062648,0.0633 -0.1512403,0.0994 -0.08796,0.0361 -0.1955366,0.0361 -0.1075767,0 -0.1961693,-0.0361 -0.088593,-0.0361 -0.1518731,-0.0994 -0.062648,-0.0639 -0.097452,-0.14997 -0.034171,-0.0861 -0.034171,-0.18604 0,-0.1 0.034171,-0.18605 0.034804,-0.0861 0.097452,-0.14934 0.06328,-0.0633 0.1518731,-0.0994 0.088593,-0.0361 0.1961693,-0.0361 0.1075768,0 0.1955366,0.0367 0.088593,0.0361 0.1512403,0.0994 0.062648,0.0633 0.096819,0.14934 0.034804,0.0861 0.034804,0.18542 z m -0.2189503,0 q 0,-0.0684 -0.017719,-0.12277 -0.017718,-0.055 -0.051257,-0.093 -0.032906,-0.038 -0.080999,-0.0582 -0.048093,-0.0203 -0.1094752,-0.0203 -0.062015,0 -0.1107407,0.0203 -0.048093,0.0203 -0.081632,0.0582 -0.032906,0.038 -0.050624,0.093 -0.017718,0.0544 -0.017718,0.12277 0,0.069 0.017718,0.12403 0.017719,0.0544 0.050624,0.0924 0.033539,0.038 0.081632,0.0582 0.048726,0.0196 0.1107407,0.0196 0.061382,0 0.1094752,-0.0196 0.048093,-0.0203 0.080999,-0.0582 0.033539,-0.038 0.051257,-0.0924 0.017719,-0.0551 0.017719,-0.12403 z"
                 style="font-style:normal;font-variant:normal;font-weight:900;font-stretch:normal;font-family:Lato;-inkscape-font-specification:'Lato Heavy';fill:#243645;fill-opacity:1"
                 id="path4490"
                 inkscape:connector-curvature="0" />
            </g>
          </g>
          <g
             id="text4769"
             style="font-style:normal;font-weight:normal;font-size:2.80249953px;line-height:125%;font-family:sans-serif;letter-spacing:0px;word-spacing:0px;fill:#243645;fill-opacity:1;stroke:none;stroke-width:1px;stroke-linecap:butt;stroke-linejoin:miter;stroke-opacity:1"
             transform="matrix(0.65707975,0,0,0.65708133,5.5476045,12.765604)">
            <path
               inkscape:connector-curvature="0"
               id="path4778"
               style="font-style:normal;font-variant:normal;font-weight:900;font-stretch:normal;font-size:11.20999813px;font-family:Lato;-inkscape-font-specification:'Lato Heavy';text-align:center;text-anchor:middle;fill:#243645;fill-opacity:1"
               d="m 67.822209,53.980325 0,1.51335 -4.92119,0 0,-8.166483 1.89449,0 0,6.653133 3.0267,0 z" />
            <path
               inkscape:connector-curvature="0"
               id="path4780"
               style="font-style:normal;font-variant:normal;font-weight:900;font-stretch:normal;font-size:11.20999813px;font-family:Lato;-inkscape-font-specification:'Lato Heavy';text-align:center;text-anchor:middle;fill:#243645;fill-opacity:1"
               d="m 72.023331,53.99714 q 0.38114,0 0.678205,-0.123309 0.302669,-0.128915 0.510054,-0.364325 0.207385,-0.23541 0.31388,-0.57171 0.1121,-0.341905 0.1121,-0.77349 l 0,-4.837114 1.89449,0 0,4.837114 q 0,0.75107 -0.24662,1.37883 -0.241015,0.627759 -0.69502,1.081764 -0.454005,0.454005 -1.104185,0.70623 -0.65018,0.252225 -1.462904,0.252225 -0.81833,0 -1.46851,-0.252225 -0.65018,-0.252225 -1.104185,-0.70623 -0.454005,-0.454005 -0.69502,-1.081764 -0.241015,-0.62776 -0.241015,-1.37883 l 0,-4.837114 1.89449,0 0,4.831509 q 0,0.431585 0.106495,0.77349 0.1121,0.3363 0.319485,0.577315 0.207385,0.23541 0.50445,0.364325 0.30267,0.123309 0.68381,0.123309 z" />
            <path
               inkscape:connector-curvature="0"
               id="path4782"
               style="font-style:normal;font-variant:normal;font-weight:900;font-stretch:normal;font-size:11.20999813px;font-family:Lato;-inkscape-font-specification:'Lato Heavy';text-align:center;text-anchor:middle;fill:#243645;fill-opacity:1"
               d="m 86.182084,47.327192 0,8.166483 -1.67029,0 0,-4.696989 q 0,-0.162545 0.0056,-0.353115 0.01121,-0.19057 0.03363,-0.386745 l -2.169135,4.198144 q -0.10089,0.196175 -0.274645,0.297065 -0.16815,0.10089 -0.386745,0.10089 l -0.25783,0 q -0.218595,0 -0.39235,-0.10089 -0.16815,-0.10089 -0.26904,-0.297065 L 78.63215,50.045616 q 0.01682,0.20178 0.02802,0.397955 0.01121,0.19057 0.01121,0.353115 l 0,4.696989 -1.67029,0 0,-8.166483 1.44609,0 q 0.12331,0 0.21299,0.0056 0.09529,0.0056 0.16815,0.03363 0.07286,0.02802 0.128915,0.08968 0.06166,0.05605 0.117705,0.162545 l 2.101874,4.142094 q 0.1121,0.21299 0.21299,0.442795 0.106495,0.229805 0.20178,0.47082 0.09529,-0.24662 0.196175,-0.48203 0.106495,-0.23541 0.2242,-0.4484 l 2.09627,-4.125279 q 0.05605,-0.106495 0.1121,-0.162545 0.06166,-0.06166 0.13452,-0.08968 0.07286,-0.02802 0.162545,-0.03363 0.09529,-0.0056 0.218595,-0.0056 l 1.44609,0 z" />
            <path
               inkscape:connector-curvature="0"
               id="path4784"
               style="font-style:normal;font-variant:normal;font-weight:900;font-stretch:normal;font-size:11.20999813px;font-family:Lato;-inkscape-font-specification:'Lato Heavy';text-align:center;text-anchor:middle;fill:#243645;fill-opacity:1"
               d="m 89.678902,48.784491 0,1.9057 2.567089,0 0,1.40125 -2.567089,0 0,1.944934 3.351789,0 0,1.4573 -5.257489,0 0,-8.166483 5.257489,0 0,1.457299 -3.351789,0 z" />
            <path
               inkscape:connector-curvature="0"
               id="path4786"
               style="font-style:normal;font-variant:normal;font-weight:900;font-stretch:normal;font-size:11.20999813px;font-family:Lato;-inkscape-font-specification:'Lato Heavy';text-align:center;text-anchor:middle;fill:#243645;fill-opacity:1"
               d="m 96.093998,48.784491 0,1.9057 2.56709,0 0,1.40125 -2.56709,0 0,1.944934 3.35179,0 0,1.4573 -5.257489,0 0,-8.166483 5.257489,0 0,1.457299 -3.35179,0 z" />
            <path
               inkscape:connector-curvature="0"
               id="path4788"
               style="font-style:normal;font-variant:normal;font-weight:900;font-stretch:normal;font-size:11.20999813px;font-family:Lato;-inkscape-font-specification:'Lato Heavy';text-align:center;text-anchor:middle;fill:#243645;fill-opacity:1"
               d="m 103.26017,51.166616 q 0.38674,0 0.65578,-0.09528 0.27465,-0.10089 0.4484,-0.274645 0.17376,-0.173755 0.25223,-0.40356 0.0785,-0.23541 0.0785,-0.50445 0,-0.53808 -0.35312,-0.84075 -0.34751,-0.30267 -1.08176,-0.30267 l -0.76228,0 0,2.42136 0.76228,0 z m 4.02439,4.327059 -1.71513,0 q -0.47643,0 -0.68381,-0.35872 l -1.35641,-2.370914 q -0.0953,-0.151335 -0.21299,-0.218595 -0.11771,-0.07287 -0.3363,-0.07287 l -0.48203,0 0,3.021094 -1.89449,0 0,-8.166483 2.65677,0 q 0.88559,0 1.50774,0.184965 0.62776,0.17936 1.02011,0.504449 0.39796,0.32509 0.57732,0.767885 0.17936,0.442795 0.17936,0.96406 0,0.397955 -0.1065,0.75107 -0.10649,0.353115 -0.31388,0.655785 -0.20738,0.297065 -0.51566,0.532475 -0.30267,0.23541 -0.70062,0.386745 0.18496,0.09528 0.34751,0.241015 0.16254,0.140125 0.29146,0.3363 l 1.73755,2.841734 z" />
            <path
               inkscape:connector-curvature="0"
               id="path4790"
               style="font-style:normal;font-variant:normal;font-weight:900;font-stretch:normal;font-size:9.80874825px;font-family:Lato;-inkscape-font-specification:'Lato Heavy';text-align:center;text-anchor:middle;fill:#243645;fill-opacity:1"
               d="m 65.247817,64.426467 q 0.647378,0 0.931831,-0.308975 0.284454,-0.308976 0.284454,-0.86317 0,-0.245219 -0.07357,-0.446298 -0.07357,-0.20108 -0.225602,-0.343306 -0.147131,-0.147132 -0.377636,-0.225602 -0.225602,-0.07847 -0.539482,-0.07847 l -0.863169,0 0,2.265821 0.863169,0 z m 0,-3.506627 q 0.755274,0 1.294755,0.181462 0.544386,0.176557 0.892596,0.490437 0.353115,0.31388 0.519864,0.740561 0.166749,0.42668 0.166749,0.922022 0,0.534577 -0.171653,0.980875 -0.171654,0.446298 -0.524768,0.765082 -0.353115,0.318784 -0.897501,0.500246 -0.539481,0.176558 -1.280042,0.176558 l -0.863169,0 0,2.38843 -1.657679,0 0,-7.145673 2.520848,0 z" />
            <path
               inkscape:connector-curvature="0"
               id="path4792"
               style="font-style:normal;font-variant:normal;font-weight:900;font-stretch:normal;font-size:9.80874825px;font-family:Lato;-inkscape-font-specification:'Lato Heavy';text-align:center;text-anchor:middle;fill:#243645;fill-opacity:1"
               d="m 75.985638,64.490224 q 0,0.774891 -0.269741,1.441886 -0.264836,0.666995 -0.750369,1.162337 -0.485533,0.490437 -1.172145,0.769987 -0.681708,0.279549 -1.515452,0.279549 -0.833744,0 -1.520356,-0.279549 -0.686612,-0.27955 -1.17705,-0.769987 -0.485533,-0.495342 -0.755273,-1.162337 -0.264837,-0.666995 -0.264837,-1.441886 0,-0.774891 0.264837,-1.441886 0.26974,-0.666995 0.755273,-1.157432 0.490438,-0.490438 1.17705,-0.769987 0.686612,-0.279549 1.520356,-0.279549 0.833744,0 1.515452,0.284453 0.686612,0.27955 1.172145,0.769987 0.485533,0.490438 0.750369,1.157433 0.269741,0.666994 0.269741,1.436981 z m -1.696914,0 q 0,-0.529672 -0.137322,-0.951448 -0.137323,-0.426681 -0.397254,-0.720943 -0.255028,-0.294263 -0.62776,-0.451203 -0.372733,-0.15694 -0.848457,-0.15694 -0.480629,0 -0.858265,0.15694 -0.372733,0.15694 -0.632665,0.451203 -0.255027,0.294262 -0.39235,0.720943 -0.137322,0.421776 -0.137322,0.951448 0,0.534577 0.137322,0.961257 0.137323,0.421777 0.39235,0.716039 0.259932,0.294263 0.632665,0.451202 0.377636,0.152036 0.858265,0.152036 0.475724,0 0.848457,-0.152036 0.372732,-0.156939 0.62776,-0.451202 0.259931,-0.294262 0.397254,-0.716039 0.137322,-0.42668 0.137322,-0.961257 z" />
            <path
               inkscape:connector-curvature="0"
               id="path4794"
               style="font-style:normal;font-variant:normal;font-weight:900;font-stretch:normal;font-size:9.80874825px;font-family:Lato;-inkscape-font-specification:'Lato Heavy';text-align:center;text-anchor:middle;fill:#243645;fill-opacity:1"
               d="m 84.994513,60.91984 0,7.145673 -1.461503,0 0,-4.109866 q 0,-0.142227 0.0049,-0.308975 0.0098,-0.166749 0.02943,-0.338402 l -1.897993,3.673376 q -0.08828,0.171653 -0.240315,0.259932 -0.147131,0.08828 -0.338401,0.08828 l -0.225602,0 q -0.19127,0 -0.343306,-0.08828 -0.147131,-0.08828 -0.23541,-0.259932 L 78.38832,63.298461 q 0.01471,0.176558 0.02452,0.348211 0.0098,0.166748 0.0098,0.308975 l 0,4.109866 -1.461503,0 0,-7.145673 1.265328,0 q 0.107896,0 0.186366,0.0049 0.08338,0.0049 0.147132,0.02943 0.06376,0.02452 0.1128,0.07847 0.05395,0.04904 0.102992,0.142227 l 1.83914,3.624333 q 0.09809,0.186366 0.186367,0.387445 0.09318,0.20108 0.176557,0.411968 0.08337,-0.215793 0.171653,-0.421777 0.09318,-0.205983 0.196175,-0.392349 l 1.834236,-3.60962 q 0.04904,-0.09318 0.09809,-0.142227 0.05395,-0.05395 0.117705,-0.07847 0.06376,-0.02452 0.142227,-0.02943 0.08338,-0.0049 0.191271,-0.0049 l 1.265328,0 z" />
            <path
               inkscape:connector-curvature="0"
               id="path4796"
               style="font-style:normal;font-variant:normal;font-weight:900;font-stretch:normal;font-size:9.80874825px;font-family:Lato;-inkscape-font-specification:'Lato Heavy';text-align:center;text-anchor:middle;fill:#243645;fill-opacity:1"
               d="m 90.163112,65.333776 -0.662091,-1.956845 q -0.07356,-0.186366 -0.15694,-0.436489 -0.08337,-0.255028 -0.166748,-0.54929 -0.07357,0.299167 -0.15694,0.554194 -0.08338,0.255028 -0.15694,0.441394 l -0.657186,1.947036 1.956845,0 z m 2.633649,2.731737 -1.284946,0 q -0.215793,0 -0.348211,-0.09809 -0.132418,-0.102991 -0.201079,-0.259931 l -0.421776,-1.245711 -2.717024,0 -0.421776,1.245711 q -0.05395,0.137322 -0.196175,0.250123 -0.137322,0.107896 -0.343306,0.107896 l -1.294755,0 2.766067,-7.145673 1.696914,0 2.766067,7.145673 z m -1.368321,-9.156467 -1.584112,1.397747 q -0.05885,0.05395 -0.112801,0.08337 -0.05395,0.02943 -0.112801,0.04414 -0.05885,0.01471 -0.127513,0.01962 -0.06376,0.0049 -0.147132,0.0049 l -1.108388,0 0.926927,-1.324181 q 0.05885,-0.07847 0.1128,-0.12261 0.05885,-0.04904 0.12261,-0.06866 0.06866,-0.02452 0.152035,-0.02943 0.08828,-0.0049 0.20108,-0.0049 l 1.677295,0 z" />
            <path
               inkscape:connector-curvature="0"
               id="path4798"
               style="font-style:normal;font-variant:normal;font-weight:900;font-stretch:normal;font-size:9.80874825px;font-family:Lato;-inkscape-font-specification:'Lato Heavy';text-align:center;text-anchor:middle;fill:#243645;fill-opacity:1"
               d="m 99.598514,60.91984 0,7.145673 -1.667488,0 0,-3.021095 -2.903389,0 0,3.021095 -1.667487,0 0,-7.145673 1.667487,0 0,2.986764 2.903389,0 0,-2.986764 1.667488,0 z" />
            <path
               inkscape:connector-curvature="0"
               id="path4800"
               style="font-style:normal;font-variant:normal;font-weight:900;font-stretch:normal;font-size:9.80874825px;font-family:Lato;-inkscape-font-specification:'Lato Heavy';text-align:center;text-anchor:middle;fill:#243645;fill-opacity:1"
               d="m 104.76129,65.333776 -0.66209,-1.956845 q -0.0736,-0.186366 -0.15694,-0.436489 -0.0834,-0.255028 -0.16675,-0.54929 -0.0736,0.299167 -0.15694,0.554194 -0.0834,0.255028 -0.15694,0.441394 l -0.65719,1.947036 1.95685,0 z m 2.63365,2.731737 -1.28495,0 q -0.21579,0 -0.34821,-0.09809 -0.13242,-0.102991 -0.20108,-0.259931 l -0.42178,-1.245711 -2.71702,0 -0.42178,1.245711 q -0.0539,0.137322 -0.19617,0.250123 -0.13732,0.107896 -0.34331,0.107896 l -1.29475,0 2.76607,-7.145673 1.69691,0 2.76607,7.145673 z m -1.36832,-9.156467 -1.58412,1.397747 q -0.0588,0.05395 -0.1128,0.08337 -0.054,0.02943 -0.1128,0.04414 -0.0588,0.01471 -0.12751,0.01962 -0.0638,0.0049 -0.14713,0.0049 l -1.10839,0 0.92692,-1.324181 q 0.0589,-0.07847 0.11281,-0.12261 0.0589,-0.04904 0.1226,-0.06866 0.0687,-0.02452 0.15204,-0.02943 0.0883,-0.0049 0.20108,-0.0049 l 1.6773,0 z" />
          </g>
        </g>
      </g>
      <g
         id="g4578"
         transform="translate(-68.661153,-20.818594)">
        <g
           style="stroke-width:0.53594089"
           transform="matrix(1.8531134,0,0,1.8525626,-97.449775,-175.62837)"
           id="g4580" />
        <g
           transform="matrix(2.2146779,0,0,2.2140196,33.863641,-178.15728)"
           id="g4590"
           style="font-style:normal;font-variant:normal;font-weight:bold;font-stretch:normal;font-size:4.93888903px;line-height:6.61458302px;font-family:Lato;-inkscape-font-specification:'Lato Bold';letter-spacing:0px;word-spacing:0px;fill:#243645;fill-opacity:1;stroke:none;stroke-width:0.11865083px;stroke-linecap:butt;stroke-linejoin:miter;stroke-opacity:1"
           aria-label="LUMEER.IO">
          <g
             transform="matrix(0.99985012,0,0,1.0001499,2.0141003,-4.9547676)"
             style="font-style:normal;font-weight:normal;font-size:1.26560891px;line-height:125%;font-family:sans-serif;letter-spacing:0px;word-spacing:0px;fill:none;fill-opacity:1;stroke:#000000;stroke-width:0.15820111;stroke-linecap:butt;stroke-linejoin:miter;stroke-miterlimit:4;stroke-dasharray:none;stroke-opacity:1"
             id="g4592" />
        </g>
      </g>
      <g
         id="g4628"
         transform="translate(-83.874703,-17.615733)"
         style="fill:none;stroke:#000000;stroke-opacity:1">
        <g
           style="fill:none;stroke:#000000;stroke-width:0.18906803;stroke-miterlimit:4;stroke-dasharray:none;stroke-opacity:1"
           transform="matrix(1.8531134,0,0,1.8525626,-92.045129,-175.62837)"
           id="g4630" />
      </g>
    </g>
  </g>
</svg>
