<svg xmlns="http://www.w3.org/2000/svg" viewBox="0 0 76.76 65.36"><defs><style>.cls-1{fill:none;stroke-linecap:round;stroke-linejoin:round;}.cls-1,.cls-2{stroke:#fff;stroke-width:4px;}.cls-2{fill:#6abd9f;stroke-miterlimit:10;}</style></defs><title>price-briefcase</title><g id="Layer_2" data-name="Layer 2"><g id="Layer_1-2" data-name="Layer 1"><rect class="cls-1" x="2" y="11.78" width="72.76" height="51.58" rx="4.09"/><path class="cls-1" d="M6.09,11.78H70.67a4.09,4.09,0,0,1,4.09,4.09V24.7a9.24,9.24,0,0,1-9.24,9.24H11.24A9.24,9.24,0,0,1,2,24.7V15.87A4.09,4.09,0,0,1,6.09,11.78Z"/><rect class="cls-2" x="19.48" y="28.95" width="8.96" height="10.68" rx="2.32"/><rect class="cls-2" x="47.59" y="28.95" width="8.96" height="10.68" rx="2.32"/><path class="cls-1" d="M31.23,2h14.3a4.3,4.3,0,0,1,4.3,4.3v5.48a0,0,0,0,1,0,0H26.93a0,0,0,0,1,0,0V6.3A4.3,4.3,0,0,1,31.23,2Z"/></g></g></svg>