<?xml version="1.0" encoding="UTF-8" standalone="no"?>
<!-- Generator: Adobe Illustrator 22.1.0, SVG Export Plug-In . SVG Version: 6.00 Build 0)  -->

<svg
   xmlns:dc="http://purl.org/dc/elements/1.1/"
   xmlns:cc="http://creativecommons.org/ns#"
   xmlns:rdf="http://www.w3.org/1999/02/22-rdf-syntax-ns#"
   xmlns:svg="http://www.w3.org/2000/svg"
   xmlns="http://www.w3.org/2000/svg"
   xmlns:sodipodi="http://sodipodi.sourceforge.net/DTD/sodipodi-0.dtd"
   xmlns:inkscape="http://www.inkscape.org/namespaces/inkscape"
   version="1.1"
   id="Layer_1"
   x="0px"
   y="0px"
   viewBox="0 0 120.93184 120.93184"
   xml:space="preserve"
   sodipodi:docname="stamp.svg"
   width="120.93184"
   height="120.93184"
   inkscape:version="0.92.2 5c3e80d, 2017-08-06"
   inkscape:export-filename="/Users/mvecera/work/Lumeer/lumeer.github.io/img/stamp.png"
   inkscape:export-xdpi="1200.2794"
   inkscape:export-ydpi="1200.2794"><metadata
     id="metadata17"><rdf:RDF><cc:Work
         rdf:about=""><dc:format>image/svg+xml</dc:format><dc:type
           rdf:resource="http://purl.org/dc/dcmitype/StillImage" /><dc:title></dc:title></cc:Work></rdf:RDF></metadata><defs
     id="defs15" /><sodipodi:namedview
     pagecolor="#ffffff"
     bordercolor="#666666"
     borderopacity="1"
     objecttolerance="10"
     gridtolerance="10"
     guidetolerance="10"
     inkscape:pageopacity="0"
     inkscape:pageshadow="2"
     inkscape:window-width="1629"
     inkscape:window-height="1003"
     id="namedview13"
     showgrid="false"
     fit-margin-top="0"
     fit-margin-left="0"
     fit-margin-right="0"
     fit-margin-bottom="0"
     inkscape:zoom="2.4557752"
     inkscape:cx="112.07369"
     inkscape:cy="56.17566"
     inkscape:window-x="51"
     inkscape:window-y="0"
     inkscape:window-maximized="0"
     inkscape:current-layer="Layer_1"
     showguides="true"
     inkscape:guide-bbox="true"
     inkscape:snap-page="true" /><style
     type="text/css"
     id="style2">
	.st0{fill:none;stroke:#1CAE88;stroke-width:0.5;stroke-miterlimit:10;}
	.st1{fill:#243645;}
	.st2{fill:#FFFFFF;}
	.st3{clip-path:url(#SVGID_2_);}
	.st4{clip-path:url(#SVGID_4_);}
	.st5{fill:#1CAE88;}
	.st6{fill:none;stroke:#1CAE88;stroke-miterlimit:10;}
	.st7{fill:none;stroke:#1CAE88;stroke-width:3;stroke-miterlimit:10;}
	.st8{fill:none;stroke:#1CAE88;stroke-width:2;stroke-miterlimit:10;}
	.st9{fill:#010202;}
	.st10{fill:#3C3C3B;}
	.st11{fill:#DADADA;}
	.st12{fill:#EDEDED;}
	.st13{fill:#706F6F;}
	.st14{fill:#F6F6F6;}
	.st15{fill:#344251;}
	.st16{fill:#465160;}
	.st17{fill:#59616F;}
	.st18{fill:#6E737F;}
	.st19{fill:#4CB694;}
	.st20{fill:#6ABEA0;}
	.st21{fill:#83C7AC;}
	.st22{fill:#99CFB8;}
	.st23{fill:none;stroke:#BE1622;stroke-width:0.5;stroke-miterlimit:10;}
	.st24{fill:none;stroke:#BE1622;stroke-width:0.5;stroke-miterlimit:10;stroke-dasharray:6.0762,6.0762;}
	.st25{fill:none;stroke:#BE1622;stroke-width:0.5;stroke-miterlimit:10;stroke-dasharray:6.0102,6.0102;}
	.st26{fill:#9D9D9C;}
	.st27{clip-path:url(#SVGID_10_);}
	.st28{fill:none;stroke:#1CAE88;stroke-width:2;stroke-miterlimit:10;stroke-dasharray:5.812,5.812;}
	.st29{fill:none;stroke:#1CAE88;stroke-width:2;stroke-miterlimit:10;stroke-dasharray:6.0053,6.0053;}
	.st30{fill:none;stroke:#1CAE88;stroke-width:2;stroke-miterlimit:10;stroke-dasharray:6.0332,6.0332;}
	.st31{fill:none;stroke:#1CAE88;stroke-width:2;stroke-miterlimit:10;stroke-dasharray:5.9956,5.9956;}
	.st32{fill:none;stroke:#1CAE88;stroke-width:2;stroke-miterlimit:10;stroke-dasharray:5.9864,5.9864;}
	.st33{fill:none;stroke:#1CAE88;stroke-width:2;stroke-miterlimit:10;stroke-dasharray:5.9656,5.9656;}
	.st34{fill:#F2F2F2;}
	.st35{fill:none;stroke:#BE1622;stroke-width:0.5;stroke-miterlimit:10;stroke-dasharray:5.8716,5.8716;}
	.st36{fill:none;stroke:#BE1622;stroke-width:0.5;stroke-miterlimit:10;stroke-dasharray:5.8994,5.8994;}
	.st37{fill:#36A9E1;}
	.st38{clip-path:url(#SVGID_14_);}
	.st39{fill:none;stroke:#1CAE88;stroke-width:2;stroke-miterlimit:10;stroke-dasharray:5.9324,5.9324;}
	.st40{fill:none;stroke:#1CAE88;stroke-width:2;stroke-miterlimit:10;stroke-dasharray:6.3127,6.3127;}
	.st41{fill:none;stroke:#1CAE88;stroke-width:2;stroke-miterlimit:10;stroke-dasharray:6.0857,6.0857;}
	.st42{fill:none;stroke:#1CAE88;stroke-width:2;stroke-miterlimit:10;stroke-dasharray:6.4055,6.4055;}
	.st43{fill-rule:evenodd;clip-rule:evenodd;fill:#6E7481;}
	.st44{clip-path:url(#SVGID_18_);}
	.st45{clip-path:url(#SVGID_22_);}
</style><rect
     style="fill:#ffffff;fill-opacity:1;stroke:none;stroke-width:0;stroke-miterlimit:4;stroke-dasharray:none;stroke-opacity:1"
     id="rect4979"
     width="120.93184"
     height="120.93184"
     x="0"
     y="0" /><path
     class="st1"
     d="m 60.499772,101.20258 c -19.104089,0 -34.67633,-15.57224 -34.67633,-34.676326 0,-3.772656 0.642155,-7.384773 1.765925,-10.836352 1.926463,-2.488348 4.976696,-4.735888 10.03366,-6.582081 7.143966,4.41481 14.207663,6.501811 21.110821,6.501811 4.495079,0 8.82962,-0.882962 13.164161,-2.568617 2.729156,-2.006732 5.538581,-2.889694 8.267735,-2.889694 6.020196,0 11.478507,4.254272 14.368201,10.03366 0.401347,2.006732 0.561885,4.174003 0.561885,6.341273 C 95.1761,85.63034 79.60386,101.20258 60.499772,101.20258 M 55.763884,16.036878 c -10.916622,0.642154 -19.425165,4.013464 -20.308127,13.404969 -10.03366,2.408079 -17.90005,8.508544 -17.017088,26.970478 0.882962,-0.882962 1.525116,-2.087001 3.050232,-2.087001 -0.401346,3.451579 -0.160538,6.742619 0.722424,9.230967 -0.08027,0.963231 -0.160539,2.006732 -0.160539,2.969963 0,21.191088 17.177627,38.368716 38.368716,38.368716 21.191089,0 38.448984,-17.177628 38.448984,-38.368716 0,-0.08027 0,-0.08027 0,-0.160538 1.444854,-2.568617 2.247544,-6.020196 1.284314,-9.391506 1.20404,1.204039 2.087,3.050233 2.40808,5.137234 -1.20404,-24.883477 -11.799591,-37.325215 -29.137754,-40.05437 1.0435,-1.284309 2.969963,-1.926463 5.458311,-1.926463 1.123769,0 2.327808,0.160539 3.692386,0.401346 -6.100465,-2.809424 -11.398237,-4.093733 -15.893317,-4.093733 -4.655618,0 -8.588813,1.284309 -12.040392,3.451579 -1.284308,-1.364577 -0.642154,-2.889694 1.12377,-3.852925"
     id="path4"
     inkscape:connector-curvature="0"
     style="fill:#000000;stroke-width:0.80269277;fill-opacity:1" /><path
     class="st1"
     d="m 51.75042,64.037907 c -2.006732,0 -3.692387,1.685655 -3.692387,3.692386 0,2.006732 1.685655,3.692387 3.692387,3.692387 2.006732,0 3.692387,-1.685655 3.692387,-3.692387 0,-0.321077 -0.08027,-0.642154 -0.08027,-0.882962 h -2.648886 l 0.481615,-2.568617 c -0.481615,-0.08027 -0.963231,-0.240807 -1.444847,-0.240807"
     id="path6"
     inkscape:connector-curvature="0"
     style="fill:#243645;stroke-width:0.80269277" /><path
     class="st1"
     d="m 69.168854,64.037907 c -2.006732,0 -3.692387,1.685655 -3.692387,3.692386 0,2.006732 1.685655,3.692387 3.692387,3.692387 2.006732,0 3.692387,-1.685655 3.692387,-3.692387 0,-0.321077 0,-0.561884 -0.08027,-0.802692 h -2.488347 l 0.481615,-2.568617 c -0.481615,-0.160539 -1.0435,-0.321077 -1.605385,-0.321077"
     id="path8"
     inkscape:connector-curvature="0"
     style="fill:#243645;stroke-width:0.80269277" /><path
     class="st1"
     d="m 66.600237,79.2088 c -0.882962,-0.401346 -1.765924,-0.561885 -2.488348,-0.561885 -1.525116,0 -2.729155,0.722424 -3.612117,1.765922 -0.882962,-1.043498 -2.087002,-1.765922 -3.612118,-1.765922 -0.802693,0 -1.605385,0.160539 -2.488348,0.561885 -4.093733,1.765922 -5.217503,5.618847 -10.194198,6.582079 0,0 2.648886,2.648886 7.705851,2.648886 2.327809,0 5.217503,-0.561885 8.669082,-2.327809 3.37131,1.685655 6.261004,2.327809 8.669082,2.327809 5.056965,0 7.705851,-2.648886 7.705851,-2.648886 C 71.81774,84.827647 70.69397,81.054991 66.600237,79.2088 Z"
     id="path10"
     inkscape:connector-curvature="0"
     style="fill:#243645;stroke-width:0.80269277" /><g
     aria-label="Lumeer.io s.r.o."
     style="font-style:normal;font-variant:normal;font-weight:bold;font-stretch:normal;font-size:16.3231144px;line-height:1.25;font-family:sans-serif;-inkscape-font-specification:'sans-serif Bold';letter-spacing:0px;word-spacing:0px;fill:#000000;fill-opacity:1;stroke:none;stroke-width:0.40807784"
     id="text4885"
     transform="matrix(0.80269279,0,0,0.80269279,18.370969,14.431492)"><path
       d="M 9.1792716,11.714192 10.833934,13.169539 6.1013609,18.550257 -2.827688,10.696772 -1.005809,8.6253801 6.2685774,15.023517 Z"
       style="font-style:normal;font-variant:normal;font-weight:900;font-stretch:normal;font-family:Lato;-inkscape-font-specification:'Lato Heavy';stroke-width:0.40807784;fill:#000000;fill-opacity:1"
       id="path4894"
       inkscape:connector-curvature="0" /><path
       d="M 11.851565,1.1886098 17.30382,7.6619651 16.105282,8.6714474 Q 15.743224,8.9763951 15.357459,8.74643 L 14.929633,8.4665257 q -0.0348,0.3387608 -0.108369,0.6568252 -0.07883,0.3118219 -0.220416,0.6124781 -0.140602,0.289156 -0.361705,0.57142 -0.209603,0.283248 -0.521723,0.546134 -0.530603,0.446906 -1.095074,0.612886 -0.563487,0.15448 -1.123053,0.06023 -0.559567,-0.09425 -1.081698,-0.422773 -0.5221304,-0.328524 -0.9742943,-0.86537 L 5.9837209,6.1308667 7.9188609,4.5009735 11.378441,8.6084641 q 0.404844,0.4806638 0.844152,0.5588239 0.439308,0.07816 0.86379,-0.279365 Q 13.404745,8.6197793 13.568998,8.2573495 13.734235,7.8834196 13.80188,7.431627 L 9.9164247,2.818503 Z"
       style="font-style:normal;font-variant:normal;font-weight:900;font-stretch:normal;font-family:Lato;-inkscape-font-specification:'Lato Heavy';stroke-width:0.40807784;fill:#000000;fill-opacity:1"
       id="path4896"
       inkscape:connector-curvature="0" /><path
       d="M 18.617497,6.4862271 14.54268,-0.93181093 15.916126,-1.6862611 q 0.414895,-0.2279069 0.747986,0.073338 l 0.341655,0.3337881 q 0.07989,-0.2953059 0.19374,-0.5627039 0.109917,-0.2745514 0.275954,-0.5147469 0.169261,-0.2512783 0.39857,-0.4610474 0.232534,-0.2208519 0.554435,-0.3976762 0.672416,-0.3693662 1.301313,-0.2585465 0.632122,0.099737 1.179313,0.5534177 -0.0026,-0.4455266 0.128449,-0.8341298 0.138227,-0.3925327 0.363304,-0.7117187 0.23223,-0.3231155 0.536297,-0.5832617 0.31122,-0.2640756 0.654582,-0.4526881 0.636649,-0.3497191 1.236326,-0.4277089 0.595747,-0.085143 1.125202,0.098925 0.53268,0.1729851 0.995138,0.6080277 0.458529,0.4278893 0.823966,1.0931521 l 2.589493,4.71406658 -2.217542,1.21812272 -2.589494,-4.7140666 q -0.632637,-1.1516915 -1.619802,-0.6094305 -0.450662,0.247554 -0.586067,0.7130313 -0.132181,0.4543944 0.174314,1.0123568 l 2.589493,4.7140666 -2.217542,1.2181227 -2.589493,-4.71406661 q -0.34972,-0.63664939 -0.741547,-0.75664049 -0.391827,-0.1199911 -0.878256,0.14721 -0.300441,0.165036 -0.49761,0.45026819 -0.190015,0.28130275 -0.300334,0.63988152 L 20.83504,5.2681044 Z"
       style="font-style:normal;font-variant:normal;font-weight:900;font-stretch:normal;font-family:Lato;-inkscape-font-specification:'Lato Heavy';stroke-width:0.40807784;fill:#000000;fill-opacity:1"
       id="path4898"
       inkscape:connector-curvature="0" /><path
       d="m 34.408264,-6.4449906 q -0.0921,-0.2875904 -0.256947,-0.5347439 -0.157075,-0.2496427 -0.395282,-0.4047445 -0.232923,-0.1653638 -0.547284,-0.2103795 -0.314361,-0.045016 -0.702997,0.079442 -0.683999,0.2190458 -0.945687,0.7399122 -0.264178,0.5130936 -0.152072,1.2913282 z m -2.583311,2.3698602 q 0.440181,0.9731157 1.084495,1.2723999 0.641825,0.2915114 1.426869,0.040107 0.419727,-0.1344145 0.690504,-0.3325369 0.270776,-0.1981225 0.464131,-0.3971606 0.201128,-0.2015274 0.363087,-0.3648016 0.169732,-0.1657634 0.387368,-0.2354598 0.28759,-0.092099 0.502479,0.070471 l 0.975841,0.6387473 q -0.236187,0.5469789 -0.584339,0.9584168 -0.342868,0.4011759 -0.751675,0.7034905 -0.403523,0.2920527 -0.844689,0.493322 -0.430905,0.2065529 -0.842859,0.33847818 -0.847226,0.27131812 -1.680527,0.23823214 -0.828018,-0.0433479 -1.561894,-0.40821862 -0.726104,-0.36736 -1.31143,-1.0711779 -0.577554,-0.706307 -0.921058,-1.7789418 -0.258872,-0.8083624 -0.218319,-1.6183455 0.04833,-0.8124723 0.387085,-1.5208467 0.346531,-0.7108637 0.975111,-1.2635258 0.636352,-0.5551513 1.561306,-0.851361 0.800589,-0.2563831 1.540923,-0.2192346 0.748107,0.034659 1.374081,0.3569565 0.633747,0.319808 1.119554,0.9269483 0.491091,0.5968785 0.769877,1.4674227 0.08712,0.2720451 0.118564,0.4505123 0.03144,0.1784672 0.0016,0.2994258 -0.02982,0.1209586 -0.126195,0.1946703 -0.0886,0.071223 -0.251826,0.123495 z"
       style="font-style:normal;font-variant:normal;font-weight:900;font-stretch:normal;font-family:Lato;-inkscape-font-specification:'Lato Heavy';stroke-width:0.40807784;fill:#000000;fill-opacity:1"
       id="path4900"
       inkscape:connector-curvature="0" /><path
       d="m 43.771403,-8.4320569 q -0.04862,-0.2980378 -0.175163,-0.5668249 -0.118488,-0.2701012 -0.331179,-0.4586789 -0.205951,-0.1979469 -0.510217,-0.2888912 -0.304267,-0.090944 -0.707021,-0.025241 -0.708847,0.1156372 -1.044584,0.5921491 -0.33705,0.4684568 -0.341096,1.254714 z m -2.90495,1.962397 q 0.291654,1.0274491 0.884709,1.4185989 0.59174,0.3830946 1.405303,0.2503746 0.434974,-0.070959 0.732039,-0.2269235 0.297065,-0.1559643 0.517693,-0.3242673 0.228682,-0.1696171 0.412976,-0.3071845 0.19235,-0.1388816 0.417892,-0.1756752 0.298038,-0.04862 0.486564,0.1438997 l 0.870817,0.7758482 q -0.31437,0.5061041 -0.719463,0.8616191 -0.398351,0.3461459 -0.847319,0.5847769 -0.442227,0.2292619 -0.908279,0.363177 -0.456682,0.140656 -0.883601,0.2103011 -0.878003,0.1432325 -1.697282,-0.012546 -0.812539,-0.1651471 -1.484489,-0.6343903 -0.663894,-0.4705571 -1.13887,-1.2530946 -0.46692,-0.7838516 -0.64826,-1.8954522 -0.136662,-0.837728 0.02306,-1.6328423 0.167775,-0.7964282 0.607426,-1.4470115 0.447706,-0.6518972 1.151007,-1.1056762 0.711356,-0.455094 1.66991,-0.611467 0.829673,-0.135348 1.556404,0.01072 0.734787,0.144753 1.306304,0.555956 0.579572,0.409888 0.970396,1.0821109 0.397565,0.6628547 0.54474,1.5650233 0.04599,0.2819277 0.05074,0.4630815 0.0047,0.1811539 -0.04261,0.2963824 -0.04736,0.1152284 -0.153558,0.1739007 -0.09815,0.057358 -0.267303,0.084953 z"
       style="font-style:normal;font-variant:normal;font-weight:900;font-stretch:normal;font-family:Lato;-inkscape-font-specification:'Lato Heavy';stroke-width:0.40807784;fill:#000000;fill-opacity:1"
       id="path4902"
       inkscape:connector-curvature="0" /><path
       d="m 50.207376,-10.871124 q 0.363486,-0.700968 0.853115,-1.113022 0.497783,-0.412387 1.15832,-0.439332 0.570834,-0.02329 0.940622,0.231184 l -0.08725,1.865942 q -0.03346,0.181069 -0.128651,0.250299 -0.08704,0.0689 -0.250137,0.07555 -0.06524,0.00266 -0.171583,-0.0012 -0.106345,-0.0038 -0.220844,-0.0073 -0.114832,-0.01165 -0.237486,-0.01482 -0.114833,-0.01165 -0.21269,-0.0077 -0.554525,0.02262 -0.876895,0.3298313 -0.314215,0.3068782 -0.521259,0.8380982 l 0.209574,5.1375082 -2.52798,0.1031238 -0.344966,-8.4565015 1.500479,-0.06121 q 0.18756,-0.0077 0.311212,0.01998 0.131807,0.0273 0.216349,0.09736 0.09236,0.06158 0.137795,0.174083 0.05359,0.11217 0.09286,0.273935 z"
       style="font-style:normal;font-variant:normal;font-weight:900;font-stretch:normal;font-family:Lato;-inkscape-font-specification:'Lato Heavy';stroke-width:0.40807784;fill:#000000;fill-opacity:1"
       id="path4904"
       inkscape:connector-curvature="0" /><path
       d="m 53.418847,-5.0421446 q 0.01146,-0.2935924 0.127348,-0.5422696 0.124044,-0.2483589 0.318939,-0.4286099 0.20305,-0.1799327 0.46816,-0.2757651 0.265428,-0.1039878 0.575331,-0.091891 0.301748,0.011779 0.558262,0.1361407 0.256833,0.1162065 0.445239,0.3114198 0.188406,0.1952133 0.284557,0.4521675 0.104306,0.2572726 0.09285,0.5508651 -0.01146,0.2935924 -0.135823,0.5501067 -0.115888,0.2486772 -0.318938,0.4286098 -0.20305,0.1799327 -0.46816,0.2757651 -0.26511,0.095832 -0.566857,0.084054 -0.309904,-0.012097 -0.566736,-0.1283038 -0.256833,-0.1162065 -0.445239,-0.3114198 -0.180251,-0.1948949 -0.284557,-0.4521675 -0.09583,-0.2651096 -0.08437,-0.5587021 z"
       style="font-style:normal;font-variant:normal;font-weight:900;font-stretch:normal;font-family:Lato;-inkscape-font-specification:'Lato Heavy';stroke-width:0.40807784;fill:#000000;fill-opacity:1"
       id="path4906"
       inkscape:connector-curvature="0" /><path
       d="m 61.086673,-11.677945 -0.91893,8.4135005 -2.515126,-0.2747042 0.918931,-8.4135003 z m 0.51129,-2.275823 q -0.03279,0.300193 -0.183729,0.55464 -0.150056,0.246333 -0.383156,0.426126 -0.232213,0.17168 -0.529471,0.262365 -0.288259,0.08346 -0.604678,0.0489 -0.308305,-0.03367 -0.563639,-0.176503 -0.254447,-0.150942 -0.444125,-0.368701 -0.180679,-0.224987 -0.274022,-0.497905 -0.08434,-0.280145 -0.05156,-0.580337 0.03367,-0.308306 0.176503,-0.563639 0.150942,-0.254447 0.375928,-0.435126 0.2331,-0.179793 0.513245,-0.264137 0.280145,-0.08434 0.588451,-0.05067 0.316419,0.03456 0.579865,0.178275 0.27156,0.144601 0.460353,0.370473 0.188792,0.225873 0.281249,0.506904 0.09246,0.281032 0.05878,0.589337 z"
       style="font-style:normal;font-variant:normal;font-weight:900;font-stretch:normal;font-family:Lato;-inkscape-font-specification:'Lato Heavy';stroke-width:0.40807784;fill:#000000;fill-opacity:1"
       id="path4908"
       inkscape:connector-curvature="0" /><path
       d="m 67.683286,-10.61886 q 0.938527,0.216005 1.642298,0.6878531 0.703771,0.4718477 1.126262,1.1469558 0.430446,0.6769386 0.551458,1.5339081 0.130797,0.8508465 -0.09436,1.8291419 -0.226989,0.986249 -0.720235,1.7102195 -0.483463,0.7178474 -1.168355,1.1464621 -0.675108,0.4224917 -1.51617,0.5471655 -0.839232,0.1167203 -1.777759,-0.099285 -0.946481,-0.2178359 -1.658206,-0.6915142 -0.70194,-0.4798013 -1.140339,-1.1585705 -0.428614,-0.6848922 -0.557581,-1.5436923 -0.119182,-0.8649232 0.107807,-1.8511722 0.225158,-0.9782954 0.70679,-1.6881892 0.491416,-0.7160169 1.174478,-1.1366776 0.691015,-0.418831 1.530247,-0.535551 0.847185,-0.11489 1.793665,0.102946 z m -1.535835,6.6730881 q 0.851038,0.1958692 1.38601,-0.3091246 0.544757,-0.511117 0.826662,-1.7359746 0.281906,-1.2248577 0.01356,-1.9147375 -0.260389,-0.6880493 -1.111426,-0.8839186 -0.874899,-0.2013609 -1.417825,0.3018024 -0.542926,0.5031634 -0.824832,1.728021 -0.281905,1.2248576 -0.01539,1.9226911 0.268343,0.6898798 1.143241,0.8912408 z"
       style="font-style:normal;font-variant:normal;font-weight:900;font-stretch:normal;font-family:Lato;-inkscape-font-specification:'Lato Heavy';stroke-width:0.40807784;fill:#000000;fill-opacity:1"
       id="path4910"
       inkscape:connector-curvature="0" /><path
       d="m 82.324353,-3.2405608 q -0.153956,0.09968 -0.285068,0.1110176 -0.123703,0.014761 -0.279286,-0.057138 -0.162992,-0.075322 -0.29517,-0.2173234 -0.128754,-0.1494096 -0.283719,-0.319923 -0.147556,-0.1670895 -0.353821,-0.3433279 -0.202841,-0.1836472 -0.506598,-0.324021 -0.437114,-0.2020013 -0.752939,-0.1411611 -0.304992,0.056855 -0.441942,0.3532035 -0.09929,0.2148525 -0.01617,0.424093 0.09053,0.2126642 0.291071,0.4402024 0.203964,0.2201294 0.478029,0.4636639 0.274066,0.2435346 0.552678,0.5161427 0.278612,0.2726081 0.521863,0.582821 0.246676,0.3028042 0.389012,0.6562903 0.14576,0.34607752 0.139865,0.74794437 0.0015,0.40529061 -0.214182,0.87203915 Q 81.004347,1.0944332 80.574359,1.4801341 80.144372,1.865835 79.568568,2.0223141 79.000172,2.182217 78.303641,2.0940961 77.614522,2.0093984 76.829199,1.6464807 76.436538,1.4650219 76.078114,1.209476 75.71969,0.95393009 75.407458,0.65679449 75.102635,0.36308264 74.870216,0.04888481 74.64122,-0.27272172 74.5114,-0.57546936 l 0.923735,-0.59808254 q 0.157379,-0.1070891 0.328397,-0.1269573 0.181851,-0.023853 0.396703,0.075436 0.200035,0.092441 0.314533,0.25324452 0.121907,0.16422702 0.259192,0.35354271 0.137285,0.18931569 0.340687,0.39120398 0.210811,0.20531204 0.588656,0.37992337 0.266713,0.12325506 0.475897,0.1569879 0.212608,0.0263241 0.368247,-0.0186328 0.155639,-0.0449569 0.26228,-0.13952997 0.106641,-0.09457305 0.164845,-0.22052107 0.106136,-0.22966992 0.01903,-0.44974285 -0.08711,-0.22007292 -0.291072,-0.44020238 -0.20054,-0.22753811 -0.485438,-0.46708771 -0.274065,-0.2435345 -0.552677,-0.5161426 -0.278612,-0.2726082 -0.529272,-0.5862448 -0.239829,-0.3176216 -0.375317,-0.6859252 -0.132065,-0.3757123 -0.11646,-0.8180464 0.01561,-0.4423342 0.258691,-0.9683524 0.225968,-0.4889746 0.613187,-0.8404946 0.398051,-0.3555048 0.929964,-0.5142853 0.531913,-0.1587805 1.191401,-0.087778 0.662912,0.063594 1.426009,0.4162402 0.414887,0.19173 0.765902,0.4438522 0.358424,0.2555459 0.637597,0.5463952 0.279173,0.2908493 0.47511,0.6061695 0.199361,0.3079116 0.314925,0.6220529 z"
       style="font-style:normal;font-variant:normal;font-weight:900;font-stretch:normal;font-family:Lato;-inkscape-font-specification:'Lato Heavy';stroke-width:0.40807784;fill:#000000;fill-opacity:1"
       id="path4912"
       inkscape:connector-curvature="0" /><path
       d="m 81.545209,2.4190762 q 0.147927,-0.2538611 0.366981,-0.4190456 0.226105,-0.1610754 0.482803,-0.2287555 0.26375,-0.063571 0.542822,-0.023752 0.283182,0.032767 0.551146,0.1889122 0.260913,0.1520362 0.42904,0.3822506 0.172237,0.2231628 0.246968,0.4839699 0.07473,0.2608071 0.03902,0.5328278 -0.02866,0.2761298 -0.176585,0.5299909 -0.147927,0.2538611 -0.378142,0.4219883 -0.219054,0.1651845 -0.482803,0.2287555 -0.26375,0.063571 -0.542822,0.023752 -0.279073,-0.039819 -0.539986,-0.1918547 -0.267964,-0.1561453 -0.4402,-0.3793081 -0.172237,-0.2231627 -0.246968,-0.4839698 -0.06768,-0.256698 -0.03902,-0.5328278 0.03982,-0.2790724 0.187746,-0.5329337 z"
       style="font-style:normal;font-variant:normal;font-weight:900;font-stretch:normal;font-family:Lato;-inkscape-font-specification:'Lato Heavy';stroke-width:0.40807784;fill:#000000;fill-opacity:1"
       id="path4914"
       inkscape:connector-curvature="0" /><path
       d="m 90.56759,1.1599738 q 0.712885,-0.3395198 1.351973,-0.37254712 0.645791,-0.0283708 1.188718,0.34881072 0.469195,0.3259593 0.610452,0.7520402 l -1.195752,1.4351059 q -0.135959,0.1241786 -0.253645,0.1219223 -0.110983,0.0024 -0.245039,-0.090731 -0.05362,-0.037253 -0.136102,-0.1044906 -0.08248,-0.067238 -0.171662,-0.1391327 -0.08453,-0.078597 -0.180412,-0.1551487 -0.08453,-0.078597 -0.164959,-0.1344762 -0.45579,-0.3166461 -0.898241,-0.2662645 -0.435748,0.055038 -0.921446,0.3536332 l -2.933634,4.2227605 -2.077866,-1.443534 4.828854,-6.9507978 1.233314,0.85680728 q 0.154165,0.10710092 0.23608,0.20376051 0.08862,0.10131616 0.113738,0.20820692 0.03648,0.10484453 0.0048,0.22196646 -0.02497,0.12177849 -0.0913,0.27446062 z"
       style="font-style:normal;font-variant:normal;font-weight:900;font-stretch:normal;font-family:Lato;-inkscape-font-specification:'Lato Heavy';stroke-width:0.40807784;fill:#000000;fill-opacity:1"
       id="path4916"
       inkscape:connector-curvature="0" /><path
       d="m 89.609919,7.7448728 q 0.186118,-0.2273499 0.428485,-0.3559142 0.248682,-0.1233943 0.512842,-0.149737 0.270475,-0.021173 0.539773,0.062167 0.274468,0.077024 0.514449,0.2734822 0.233665,0.1912879 0.363374,0.4451399 0.13488,0.2475368 0.167538,0.5168667 0.03266,0.26933 -0.04551,0.5323128 -0.07185,0.2681527 -0.257972,0.4955027 -0.186118,0.2273499 -0.43997,0.3570595 -0.242367,0.1285646 -0.512842,0.1497366 -0.270476,0.02117 -0.539774,-0.06217 Q 90.071014,9.92598 89.837349,9.7346919 89.597368,9.538234 89.462489,9.2906973 89.327609,9.0431605 89.294951,8.7738305 q -0.02634,-0.26416 0.04551,-0.5323127 0.08334,-0.2692981 0.269458,-0.496648 z"
       style="font-style:normal;font-variant:normal;font-weight:900;font-stretch:normal;font-family:Lato;-inkscape-font-specification:'Lato Heavy';stroke-width:0.40807784;fill:#000000;fill-opacity:1"
       id="path4918"
       inkscape:connector-curvature="0" /><path
       d="m 100.99824,8.1737457 q 0.67204,0.6898225 1.00818,1.4676042 0.33614,0.7777821 0.32574,1.5741241 -0.005,0.802189 -0.36703,1.588165 -0.35079,0.786126 -1.06984,1.486642 -0.7249,0.70621 -1.531612,1.047743 -0.795169,0.341683 -1.603053,0.331134 -0.796342,-0.0104 -1.570928,-0.361037 -0.768739,-0.356334 -1.440778,-1.046156 -0.677734,-0.695669 -1.019568,-1.479296 -0.330293,-0.783477 -0.331285,-1.591512 0.01055,-0.807884 0.367185,-1.5997059 0.368176,-0.791671 1.093074,-1.4978816 0.719052,-0.7005154 1.508375,-1.0365033 0.800864,-0.3358372 1.602902,-0.3195925 0.807734,0.022091 1.576473,0.3784241 0.774435,0.3621793 1.452165,1.0578479 z m -4.904752,4.7783123 q 0.609392,0.625517 1.332601,0.490671 0.73475,-0.134695 1.635027,-1.011763 0.900277,-0.877068 1.048264,-1.602355 0.15369,-0.719441 -0.455706,-1.3449585 -0.626477,-0.643055 -1.355381,-0.5140551 -0.728904,0.1289999 -1.629181,1.0060679 -0.900277,0.8770677 -1.054112,1.6080507 -0.147989,0.725287 0.478488,1.368342 z"
       style="font-style:normal;font-variant:normal;font-weight:900;font-stretch:normal;font-family:Lato;-inkscape-font-specification:'Lato Heavy';stroke-width:0.40807784;fill:#000000;fill-opacity:1"
       id="path4920"
       inkscape:connector-curvature="0" /><path
       d="m 99.343281,17.275713 q 0.232322,-0.179873 0.497332,-0.250869 0.270007,-0.06454 0.533357,-0.03103 0.26834,0.03996 0.51212,0.181517 0.25023,0.136559 0.4401,0.381788 0.18487,0.238776 0.25441,0.515235 0.076,0.271463 0.0475,0.541263 -0.0285,0.2698 -0.16362,0.508585 -0.1301,0.245238 -0.36242,0.42511 -0.23233,0.179873 -0.50879,0.249412 -0.26501,0.071 -0.53335,0.03103 -0.268342,-0.03996 -0.512123,-0.181517 -0.243781,-0.141555 -0.42865,-0.380331 -0.189866,-0.245229 -0.265858,-0.516692 -0.07599,-0.271463 -0.04748,-0.541263 0.03351,-0.263347 0.163615,-0.508585 0.141554,-0.243781 0.373877,-0.423653 z"
       style="font-style:normal;font-variant:normal;font-weight:900;font-stretch:normal;font-family:Lato;-inkscape-font-specification:'Lato Heavy';stroke-width:0.40807784;fill:#000000;fill-opacity:1"
       id="path4922"
       inkscape:connector-curvature="0" /></g><g
     aria-label="IČ: 06618278"
     style="font-style:normal;font-variant:normal;font-weight:normal;font-stretch:normal;font-size:12.45323467px;line-height:1.25;font-family:Lato;-inkscape-font-specification:Lato;letter-spacing:0px;word-spacing:0px;fill:#000000;fill-opacity:1;stroke:none;stroke-width:0.31133085"
     id="text4889"
     transform="matrix(0.80269279,0,0,0.80269279,18.370969,17.642263)"><path
       d="m 19.166756,116.03053 -1.053752,-0.59058 4.362373,-7.78364 1.053752,0.59058 z"
       style="font-style:normal;font-variant:normal;font-weight:normal;font-stretch:normal;font-family:Lato;-inkscape-font-specification:Lato;fill:#000000;fill-opacity:1;stroke-width:0.31133085"
       id="path4935"
       inkscape:connector-curvature="0" /><path
       d="m 27.607183,118.05772 q 0.09071,0.0412 0.125269,0.1458 l 0.222831,0.66881 q -0.761528,0.35169 -1.622626,0.35042 -0.855428,10e-4 -1.864568,-0.45701 -0.873076,-0.39651 -1.450948,-1.02141 -0.575297,-0.63057 -0.832688,-1.40398 -0.254816,-0.77908 -0.185018,-1.6706 0.0698,-0.89153 0.486914,-1.80996 0.417114,-0.91843 1.053846,-1.55247 0.636731,-0.63405 1.408063,-0.94709 0.777001,-0.31047 1.644808,-0.2788 0.870381,0.026 1.754796,0.42767 0.867407,0.39394 1.404554,0.97299 0.537146,0.57904 0.825435,1.28442 l -0.591993,0.33979 q -0.05976,0.0412 -0.13448,0.0552 -0.06647,0.0108 -0.157182,-0.0303 -0.102048,-0.0464 -0.20053,-0.22101 -0.09591,-0.18033 -0.272223,-0.42454 -0.176317,-0.2442 -0.484564,-0.51413 -0.305672,-0.2756 -0.82725,-0.51248 -0.629295,-0.2858 -1.25129,-0.30158 -0.619419,-0.0214 -1.187223,0.21991 -0.562135,0.24393 -1.042252,0.74394 -0.480117,0.50001 -0.819989,1.24836 -0.34502,0.75969 -0.399938,1.45281 -0.04925,0.6957 0.136968,1.27949 0.19446,0.58071 0.606858,1.02787 0.418067,0.44974 1.013346,0.72009 0.362837,0.16479 0.669996,0.25642 0.315404,0.0885 0.600381,0.10854 0.290647,0.0226 0.562207,-0.0182 0.279804,-0.0439 0.577111,-0.14138 0.135001,-0.0413 0.231379,0.002 z m 3.598762,-8.76723 -2.047066,0.92359 -0.941108,-0.42742 -0.651534,-2.14918 0.737012,0.33472 q 0.06803,0.0309 0.151017,0.0891 0.08865,0.0608 0.112915,0.18806 l 0.302866,1.17019 0.02169,0.13295 0.114378,-0.0712 1.072205,-0.53885 q 0.120048,-0.0686 0.218481,-0.0444 0.104103,0.0268 0.172135,0.0577 z"
       style="font-style:normal;font-variant:normal;font-weight:normal;font-stretch:normal;font-family:Lato;-inkscape-font-specification:Lato;fill:#000000;fill-opacity:1;stroke-width:0.31133085"
       id="path4937"
       inkscape:connector-curvature="0" /><path
       d="m 28.690478,119.63614 q 0.05455,-0.15243 0.155562,-0.26838 0.106878,-0.11386 0.236344,-0.17996 0.135328,-0.064 0.291146,-0.0744 0.155818,-0.0104 0.308244,0.0442 0.152426,0.0545 0.266285,0.16143 0.113859,0.10688 0.177857,0.2422 0.064,0.13533 0.07437,0.29115 0.01037,0.15582 -0.04417,0.30824 -0.05664,0.15829 -0.163523,0.27215 -0.10478,0.108 -0.240108,0.172 -0.135328,0.064 -0.289048,0.0685 -0.155818,0.0104 -0.308244,-0.0442 -0.152426,-0.0545 -0.266285,-0.16142 -0.115957,-0.10102 -0.179956,-0.23635 -0.05814,-0.13323 -0.07061,-0.28318 -0.0045,-0.15372 0.05213,-0.31201 z m 1.573455,-4.39691 q 0.05455,-0.15242 0.155561,-0.26838 0.106879,-0.11386 0.236344,-0.17996 0.135328,-0.064 0.291146,-0.0744 0.155818,-0.0104 0.308244,0.0442 0.152426,0.0545 0.266286,0.16142 0.113859,0.10688 0.177857,0.24221 0.064,0.13532 0.07437,0.29114 0.01037,0.15582 -0.04417,0.30825 -0.05664,0.15828 -0.163522,0.27214 -0.10478,0.108 -0.240108,0.172 -0.135329,0.064 -0.291146,0.0744 -0.15372,0.005 -0.306147,-0.05 -0.152426,-0.0545 -0.268383,-0.15556 -0.113859,-0.10688 -0.177857,-0.2422 -0.05814,-0.13323 -0.07061,-0.28319 -0.0045,-0.15372 0.05213,-0.31201 z"
       style="font-style:normal;font-variant:normal;font-weight:normal;font-stretch:normal;font-family:Lato;-inkscape-font-specification:Lato;fill:#000000;fill-opacity:1;stroke-width:0.31133085"
       id="path4939"
       inkscape:connector-curvature="0" /><path
       d="m 41.350081,119.23823 q -0.257829,1.14186 -0.696108,1.9238 -0.430834,0.77724 -0.979422,1.22788 -0.548589,0.45063 -1.192007,0.58622 -0.637346,0.13696 -1.29938,-0.0125 -0.668108,-0.15086 -1.184768,-0.54839 -0.510586,-0.39615 -0.812317,-1.03879 -0.301731,-0.64263 -0.356794,-1.52959 -0.05369,-0.89303 0.204138,-2.03488 0.257828,-1.14186 0.690034,-1.92517 0.432205,-0.78332 0.980793,-1.23395 0.54996,-0.45671 1.181232,-0.59504 0.637345,-0.13696 1.305453,0.0139 0.662034,0.14949 1.178694,0.54701 0.522733,0.3989 0.823093,1.04761 0.301731,0.64264 0.355422,1.53566 0.05976,0.89441 -0.198063,2.03626 z m -1.123637,-0.25371 q 0.224915,-0.99609 0.207079,-1.70867 -0.01039,-0.71729 -0.202597,-1.19475 -0.186134,-0.4761 -0.516858,-0.7359 -0.329354,-0.26587 -0.730219,-0.35638 -0.400865,-0.0905 -0.812504,0.008 -0.410267,0.0925 -0.782915,0.44241 -0.372648,0.34992 -0.696312,0.99178 -0.316218,0.63715 -0.541133,1.63324 -0.224914,0.99609 -0.213152,1.7073 0.01784,0.71258 0.203969,1.18868 0.186133,0.4761 0.515486,0.74197 0.330725,0.25979 0.73159,0.3503 0.400865,0.0905 0.811133,-0.002 0.411639,-0.0986 0.784287,-0.44848 0.378721,-0.34856 0.69494,-0.98571 0.322292,-0.63578 0.547206,-1.63187 z"
       style="font-style:normal;font-variant:normal;font-weight:normal;font-stretch:normal;font-family:Lato;-inkscape-font-specification:Lato;fill:#000000;fill-opacity:1;stroke-width:0.31133085"
       id="path4941"
       inkscape:connector-curvature="0" /><path
       d="m 44.410533,123.27413 q 0.445253,0.0523 0.820642,-0.0478 0.381573,-0.0994 0.664912,-0.32312 0.289523,-0.22303 0.466264,-0.55335 0.182925,-0.3296 0.230882,-0.73775 0.05086,-0.43288 -0.04449,-0.79518 -0.09463,-0.36847 -0.31984,-0.63945 -0.218298,-0.27642 -0.549347,-0.44698 -0.331049,-0.17056 -0.745382,-0.21924 -0.445253,-0.0523 -0.822095,0.0601 -0.376115,0.10627 -0.660181,0.33621 -0.277155,0.22448 -0.453169,0.54862 -0.169104,0.31868 -0.211975,0.68354 -0.05014,0.4267 0.03213,0.79373 0.08226,0.36702 0.287467,0.64818 0.211387,0.28189 0.534798,0.46409 0.330323,0.17674 0.769392,0.22833 z m -0.088,-4.8002 q -0.134937,0.13461 -0.262963,0.26376 -0.121115,0.1237 -0.236046,0.24812 0.34082,-0.17938 0.731855,-0.25256 0.391034,-0.0732 0.836287,-0.0208 0.538015,0.0632 0.993116,0.2985 0.455828,0.22911 0.768356,0.61065 0.319438,0.37609 0.471566,0.89552 0.152855,0.51324 0.07874,1.14402 -0.07194,0.61222 -0.356327,1.11171 -0.28439,0.49949 -0.732133,0.84185 -0.441558,0.3431 -1.030468,0.4996 -0.582725,0.15723 -1.256789,0.078 -0.66788,-0.0785 -1.187373,-0.35268 -0.518767,-0.28039 -0.856401,-0.71503 -0.330725,-0.44011 -0.475586,-1.02138 -0.137952,-0.58673 -0.05657,-1.27935 0.0683,-0.5813 0.398873,-1.20702 0.337481,-0.63118 0.988154,-1.31333 l 2.606325,-2.75952 q 0.09966,-0.10114 0.256794,-0.15791 0.164048,-0.0622 0.361938,-0.039 l 0.977084,0.11481 z"
       style="font-style:normal;font-variant:normal;font-weight:normal;font-stretch:normal;font-family:Lato;-inkscape-font-specification:Lato;fill:#000000;fill-opacity:1;stroke-width:0.31133085"
       id="path4943"
       inkscape:connector-curvature="0" /><path
       d="m 51.530061,123.73558 q 0.448283,0.005 0.811151,-0.1333 0.369093,-0.13872 0.627486,-0.39087 0.264619,-0.25207 0.405856,-0.59906 0.147464,-0.34692 0.152487,-0.75784 0.0053,-0.43583 -0.127385,-0.78617 -0.132637,-0.35657 -0.384941,-0.60251 -0.246002,-0.25209 -0.593068,-0.3871 -0.347066,-0.13501 -0.764219,-0.14011 -0.448282,-0.005 -0.811302,0.14576 -0.362944,0.14501 -0.621412,0.40339 -0.252167,0.25223 -0.393328,0.59299 -0.134859,0.33462 -0.13935,0.70196 -0.0053,0.4296 0.114933,0.78602 0.120185,0.35641 0.353658,0.61457 0.2397,0.25824 0.580388,0.40563 0.34699,0.14124 0.789046,0.14664 z m -0.589371,-4.76469 q -0.120124,0.14798 -0.233945,0.28981 -0.107519,0.13568 -0.208812,0.27144 0.320198,-0.21403 0.701439,-0.32769 0.381241,-0.11365 0.829524,-0.10817 0.541675,0.007 1.018882,0.19304 0.477283,0.18019 0.827987,0.52697 0.357007,0.34062 0.562608,0.8413 0.205676,0.49446 0.197913,1.12952 -0.0075,0.61639 -0.238146,1.14288 -0.230611,0.52648 -0.640106,0.91378 -0.403268,0.38738 -0.972588,0.60459 -0.563094,0.21729 -1.241744,0.209 -0.672425,-0.008 -1.217738,-0.22661 -0.545238,-0.22461 -0.926464,-0.62158 -0.374925,-0.40312 -0.579764,-0.96606 -0.198537,-0.56909 -0.190013,-1.26642 0.0072,-0.58526 0.270495,-1.24211 0.269642,-0.663 0.845431,-1.40944 l 2.303537,-3.01688 q 0.08854,-0.11101 0.238877,-0.18389 0.156643,-0.079 0.35588,-0.0766 l 0.983732,0.012 z"
       style="font-style:normal;font-variant:normal;font-weight:normal;font-stretch:normal;font-family:Lato;-inkscape-font-specification:Lato;fill:#000000;fill-opacity:1;stroke-width:0.31133085"
       id="path4945"
       inkscape:connector-curvature="0" /><path
       d="m 61.385197,123.1752 0.07784,0.84324 -4.761798,0.43955 -0.07784,-0.84323 1.903479,-0.17571 -0.559172,-6.05765 q -0.02518,-0.27282 -0.03234,-0.55354 l -1.455724,1.5038 q -0.07431,0.0756 -0.153194,0.10168 -0.07946,0.0198 -0.148806,0.0137 -0.06935,-0.006 -0.134784,-0.0376 -0.05924,-0.032 -0.09424,-0.0726 l -0.391284,-0.44537 2.436318,-2.53229 0.899037,-0.083 0.744037,8.06034 z"
       style="font-style:normal;font-variant:normal;font-weight:normal;font-stretch:normal;font-family:Lato;-inkscape-font-specification:Lato;fill:#000000;fill-opacity:1;stroke-width:0.31133085"
       id="path4947"
       inkscape:connector-curvature="0" /><path
       d="m 65.74044,122.46322 q 0.427522,-0.0849 0.740399,-0.26758 0.317771,-0.19004 0.507424,-0.44987 0.194548,-0.26715 0.257294,-0.59066 0.06764,-0.33083 -0.0051,-0.69728 -0.08971,-0.45195 -0.305437,-0.73923 -0.210831,-0.2946 -0.507351,-0.44523 -0.290412,-0.15184 -0.6384,-0.17799 -0.349199,-0.0323 -0.70954,0.0393 -0.36034,0.0715 -0.670746,0.23471 -0.311618,0.15708 -0.528125,0.40954 -0.2104,0.25125 -0.298834,0.60526 -0.08354,0.34668 0.0062,0.79863 0.07274,0.36645 0.255504,0.64758 0.187659,0.2738 0.463386,0.4476 0.280622,0.16649 0.640778,0.22196 0.365052,0.0481 0.792574,-0.0367 z m -1.436587,-7.23734 q -0.390877,0.0776 -0.667109,0.25303 -0.270124,0.17423 -0.431664,0.41579 -0.155433,0.24034 -0.205918,0.52967 -0.04438,0.28813 0.01624,0.5935 0.0594,0.29927 0.200674,0.56324 0.141271,0.26397 0.374245,0.44626 0.231762,0.17618 0.557698,0.25114 0.330832,0.0676 0.758354,-0.0172 0.427522,-0.0849 0.701329,-0.27253 0.278703,-0.19498 0.425603,-0.44632 0.145688,-0.25745 0.175426,-0.55536 0.02974,-0.29792 -0.02967,-0.59718 -0.06061,-0.30538 -0.217784,-0.5535 -0.151061,-0.24933 -0.392613,-0.41087 -0.235445,-0.16275 -0.557744,-0.21939 -0.316192,-0.0579 -0.70707,0.0197 z m 1.935772,3.19608 q 0.864468,0.0696 1.4121,0.52591 0.547633,0.45628 0.716144,1.30522 0.113957,0.5741 -0.01378,1.08191 -0.122838,0.50049 -0.449463,0.90177 -0.320517,0.40007 -0.828924,0.68509 -0.50962,0.2789 -1.163118,0.40862 -0.653498,0.12971 -1.231007,0.0666 -0.578721,-0.0692 -1.03385,-0.31533 -0.45513,-0.2461 -0.759815,-0.66173 -0.305896,-0.42174 -0.419853,-0.99584 -0.168511,-0.84894 0.16333,-1.47979 0.331842,-0.63085 1.104174,-1.02538 -0.74106,-0.11952 -1.195915,-0.55613 -0.449959,-0.44392 -0.590587,-1.15239 -0.09577,-0.48249 0.0099,-0.94148 0.105682,-0.459 0.39198,-0.83958 0.286297,-0.38059 0.73363,-0.65347 0.453439,-0.27411 1.05197,-0.39291 0.592424,-0.1176 1.116178,-0.0375 0.523754,0.0801 0.933707,0.32251 0.409953,0.24238 0.682933,0.62621 0.272981,0.38383 0.368753,0.86632 0.140628,0.70847 -0.11177,1.29181 -0.247504,0.57602 -0.88673,0.96952 z"
       style="font-style:normal;font-variant:normal;font-weight:normal;font-stretch:normal;font-family:Lato;-inkscape-font-specification:Lato;fill:#000000;fill-opacity:1;stroke-width:0.31133085"
       id="path4949"
       inkscape:connector-curvature="0" /><path
       d="m 75.003799,119.70798 q 0.172522,-0.0533 0.304908,0.0166 0.132386,0.0699 0.182022,0.23051 l 0.198544,0.6425 -5.687291,1.75748 -0.11214,-0.3629 q -0.03493,-0.11303 -0.0241,-0.24672 0.01083,-0.13368 0.08071,-0.26607 l 1.883126,-3.58632 q 0.232471,-0.44983 0.414643,-0.85154 0.180333,-0.40765 0.27738,-0.78956 0.09705,-0.38192 0.10302,-0.7422 0.0041,-0.36624 -0.111683,-0.74103 -0.115817,-0.37479 -0.321201,-0.61763 -0.207223,-0.24879 -0.472429,-0.36886 -0.259257,-0.12192 -0.566437,-0.12475 -0.309019,-0.009 -0.630268,0.0905 -0.327198,0.10111 -0.57144,0.28086 -0.244242,0.17975 -0.405096,0.41845 -0.156742,0.23092 -0.227823,0.50705 -0.07108,0.27613 -0.04417,0.57412 -0.007,0.23028 -0.109915,0.34027 -0.09876,0.10221 -0.328066,0.14048 l -0.582675,0.0758 q -0.09687,-0.60875 0.0032,-1.12846 0.104195,-0.5275 0.37333,-0.94304 0.275085,-0.41738 0.697262,-0.71729 0.420339,-0.30585 0.967651,-0.47498 0.541364,-0.16729 1.060974,-0.1519 0.519611,0.0154 0.960251,0.21812 0.438801,0.19677 0.771159,0.57634 0.332358,0.37956 0.505164,0.93877 0.147069,0.47593 0.131139,0.93053 -0.01777,0.44866 -0.1477,0.89287 -0.129932,0.44421 -0.342717,0.89448 -0.206836,0.44843 -0.453477,0.91567 l -1.539131,2.99124 q 0.21774,-0.13898 0.45062,-0.25004 0.231043,-0.11702 0.457107,-0.18688 z"
       style="font-style:normal;font-variant:normal;font-weight:normal;font-stretch:normal;font-family:Lato;-inkscape-font-specification:Lato;fill:#000000;fill-opacity:1;stroke-width:0.31133085"
       id="path4951"
       inkscape:connector-curvature="0" /><path
       d="m 79.036717,109.54371 0.195631,0.4581 q 0.08314,0.1947 0.09113,0.34024 0.01371,0.1431 0.01031,0.24611 l -0.474295,8.30698 q -0.01086,0.18067 -0.0961,0.34572 -0.08769,0.15931 -0.305289,0.25224 l -0.732969,0.31301 0.556787,-8.24065 q 0.01331,-0.17494 0.04212,-0.32943 0.02882,-0.15449 0.07397,-0.30242 l -4.283291,1.82916 q -0.09735,0.0416 -0.20358,-0.001 -0.108677,-0.0484 -0.150249,-0.14573 l -0.295893,-0.69288 z"
       style="font-style:normal;font-variant:normal;font-weight:normal;font-stretch:normal;font-family:Lato;-inkscape-font-specification:Lato;fill:#000000;fill-opacity:1;stroke-width:0.31133085"
       id="path4953"
       inkscape:connector-curvature="0" /><path
       d="m 85.774395,115.11166 q 0.380852,-0.21196 0.622561,-0.48188 0.244122,-0.27838 0.344889,-0.58388 0.103181,-0.31396 0.06362,-0.64111 -0.03714,-0.33563 -0.218827,-0.66207 -0.224075,-0.40262 -0.517551,-0.60984 -0.291064,-0.21569 -0.6195,-0.26805 -0.322996,-0.0554 -0.662217,0.0265 -0.34225,0.0765 -0.663254,0.25512 -0.321004,0.17865 -0.566357,0.42922 -0.24838,0.24512 -0.376966,0.55185 -0.123146,0.30369 -0.09868,0.66775 0.02688,0.35559 0.250953,0.75821 0.181682,0.32644 0.441899,0.53792 0.262629,0.20301 0.578387,0.28381 0.31817,0.0723 0.677972,0.0146 0.362215,-0.0662 0.743068,-0.27816 z m -3.588217,-6.44729 q -0.348208,0.19379 -0.557272,0.44554 -0.203624,0.24872 -0.283244,0.52819 -0.07418,0.27644 -0.03344,0.56731 0.04618,0.28784 0.197583,0.55988 0.148373,0.2666 0.363833,0.47448 0.21546,0.20788 0.493133,0.30988 0.274644,0.0966 0.607858,0.0679 0.335626,-0.0371 0.716479,-0.24911 0.380852,-0.21196 0.583861,-0.47459 0.205421,-0.2711 0.268103,-0.55539 0.05965,-0.28974 -0.0035,-0.58241 -0.06312,-0.29266 -0.211492,-0.55926 -0.151402,-0.27204 -0.377128,-0.45996 -0.220285,-0.19094 -0.499755,-0.27056 -0.274029,-0.0827 -0.598159,-0.0376 -0.318688,0.042 -0.666897,0.23577 z m 2.823164,2.44783 q 0.844126,-0.199 1.505355,0.0672 0.661229,0.26621 1.082125,1.02247 0.284635,0.51143 0.318898,1.03394 0.03668,0.51403 -0.151046,0.99619 -0.182282,0.47912 -0.578696,0.9064 -0.399442,0.42184 -0.981603,0.74584 -0.58216,0.324 -1.151172,0.44115 -0.57204,0.11171 -1.080734,0.0172 -0.508694,-0.0946 -0.926223,-0.39665 -0.420556,-0.30751 -0.705191,-0.81894 -0.420896,-0.75627 -0.298657,-1.45851 0.12224,-0.70225 0.736235,-1.31475 -0.741982,0.11365 -1.308872,-0.1623 -0.564478,-0.28443 -0.915729,-0.91556 -0.239215,-0.42982 -0.279486,-0.8991 -0.04027,-0.46928 0.115423,-0.91935 0.155693,-0.45008 0.4977,-0.84708 0.347447,-0.40002 0.880641,-0.69677 0.527753,-0.29372 1.050826,-0.37818 0.523073,-0.0845 0.987626,0.0204 0.464552,0.10488 0.84215,0.38643 0.377597,0.28154 0.616812,0.71136 0.351251,0.63113 0.290042,1.26378 -0.0588,0.62418 -0.546424,1.19485 z"
       style="font-style:normal;font-variant:normal;font-weight:normal;font-stretch:normal;font-family:Lato;-inkscape-font-specification:Lato;fill:#000000;fill-opacity:1;stroke-width:0.31133085"
       id="path4955"
       inkscape:connector-curvature="0" /></g><circle
     style="fill:none;fill-opacity:1;stroke:#ff0001;stroke-width:0.1070257;stroke-miterlimit:4;stroke-dasharray:none;stroke-opacity:1"
     id="path4958"
     cx="60.465919"
     cy="60.465919"
     r="60.412407" /></svg>